<ttFont>
    <TTGlyph name="A" xMin="22" yMin="0" xMax="546" yMax="699">
      <contour>
        <pt x="22" y="0" on="1"/>
        <pt x="246" y="690" on="1"/>
        <pt x="321" y="699" on="1"/>
        <pt x="546" y="0" on="1"/>
        <pt x="469" y="0" on="1"/>
        <pt x="408" y="195" on="1"/>
        <pt x="159" y="195" on="1"/>
        <pt x="99" y="0" on="1"/>
      </contour>
      <contour>
        <pt x="288" y="618" on="1"/>
        <pt x="282" y="618" on="1"/>
        <pt x="281" y="591" on="0"/>
        <pt x="272" y="561" on="1"/>
        <pt x="179" y="260" on="1"/>
        <pt x="388" y="260" on="1"/>
        <pt x="298" y="561" on="1"/>
        <pt x="292" y="583" on="0"/>
        <pt x="287" y="618" on="0"/>
      </contour>
    </TTGlyph>
    <TTGlyph name="AE" xMin="-8" yMin="-9" xMax="690" yMax="699">
      <contour>
        <pt x="424" y="121" on="0"/>
        <pt x="424" y="76" on="0"/>
        <pt x="422" y="59" on="1"/>
        <pt x="690" y="67" on="1"/>
        <pt x="690" y="0" on="1"/>
        <pt x="354" y="-9" on="1"/>
        <pt x="341" y="195" on="1"/>
        <pt x="147" y="195" on="1"/>
        <pt x="72" y="0" on="1"/>
        <pt x="-8" y="0" on="1"/>
        <pt x="271" y="690" on="1"/>
        <pt x="648" y="699" on="1"/>
        <pt x="648" y="633" on="1"/>
        <pt x="387" y="627" on="1"/>
        <pt x="394" y="586" on="0"/>
        <pt x="404" y="402" on="1"/>
        <pt x="634" y="409" on="1"/>
        <pt x="638" y="343" on="1"/>
        <pt x="408" y="336" on="1"/>
      </contour>
      <contour>
        <pt x="172" y="260" on="1"/>
        <pt x="336" y="261" on="1"/>
        <pt x="313" y="628" on="1"/>
        <pt x="307" y="628" on="1"/>
        <pt x="304" y="600" on="0"/>
        <pt x="293" y="571" on="1"/>
      </contour>
    </TTGlyph>
    <TTGlyph name="Aacute" xMin="22" yMin="0" xMax="546" yMax="845">
      <contour>
        <pt x="22" y="0" on="1"/>
        <pt x="246" y="690" on="1"/>
        <pt x="321" y="699" on="1"/>
        <pt x="546" y="0" on="1"/>
        <pt x="469" y="0" on="1"/>
        <pt x="408" y="195" on="1"/>
        <pt x="159" y="195" on="1"/>
        <pt x="99" y="0" on="1"/>
      </contour>
      <contour>
        <pt x="288" y="618" on="1"/>
        <pt x="282" y="618" on="1"/>
        <pt x="281" y="591" on="0"/>
        <pt x="272" y="561" on="1"/>
        <pt x="179" y="260" on="1"/>
        <pt x="388" y="260" on="1"/>
        <pt x="298" y="561" on="1"/>
        <pt x="292" y="583" on="0"/>
        <pt x="287" y="618" on="0"/>
      </contour>
      <contour>
        <pt x="374" y="837" on="1"/>
        <pt x="391" y="794" on="1"/>
        <pt x="232" y="722" on="1"/>
        <pt x="210" y="750" on="1"/>
        <pt x="292" y="811" on="1"/>
        <pt x="336" y="845" on="0"/>
        <pt x="366" y="845" on="0"/>
      </contour>
    </TTGlyph>
    <TTGlyph name="Acircumflex" xMin="22" yMin="0" xMax="546" yMax="842">
      <contour>
        <pt x="22" y="0" on="1"/>
        <pt x="246" y="690" on="1"/>
        <pt x="321" y="699" on="1"/>
        <pt x="546" y="0" on="1"/>
        <pt x="469" y="0" on="1"/>
        <pt x="408" y="195" on="1"/>
        <pt x="159" y="195" on="1"/>
        <pt x="99" y="0" on="1"/>
      </contour>
      <contour>
        <pt x="288" y="618" on="1"/>
        <pt x="282" y="618" on="1"/>
        <pt x="281" y="591" on="0"/>
        <pt x="272" y="561" on="1"/>
        <pt x="179" y="260" on="1"/>
        <pt x="388" y="260" on="1"/>
        <pt x="298" y="561" on="1"/>
        <pt x="292" y="583" on="0"/>
        <pt x="287" y="618" on="0"/>
      </contour>
      <contour>
        <pt x="191" y="724" on="1"/>
        <pt x="169" y="752" on="1"/>
        <pt x="238" y="833" on="1"/>
        <pt x="309" y="842" on="1"/>
        <pt x="324" y="835" on="0"/>
        <pt x="340" y="816" on="1"/>
        <pt x="395" y="752" on="1"/>
        <pt x="373" y="724" on="1"/>
        <pt x="282" y="792" on="1"/>
      </contour>
    </TTGlyph>
    <TTGlyph name="Adieresis" xMin="22" yMin="0" xMax="546" yMax="830">
      <contour>
        <pt x="22" y="0" on="1"/>
        <pt x="246" y="690" on="1"/>
        <pt x="321" y="699" on="1"/>
        <pt x="546" y="0" on="1"/>
        <pt x="469" y="0" on="1"/>
        <pt x="408" y="195" on="1"/>
        <pt x="159" y="195" on="1"/>
        <pt x="99" y="0" on="1"/>
      </contour>
      <contour>
        <pt x="288" y="618" on="1"/>
        <pt x="282" y="618" on="1"/>
        <pt x="281" y="591" on="0"/>
        <pt x="272" y="561" on="1"/>
        <pt x="179" y="260" on="1"/>
        <pt x="388" y="260" on="1"/>
        <pt x="298" y="561" on="1"/>
        <pt x="292" y="583" on="0"/>
        <pt x="287" y="618" on="0"/>
      </contour>
      <contour>
        <pt x="168" y="786" on="1"/>
        <pt x="168" y="830" on="0"/>
        <pt x="211" y="830" on="1"/>
        <pt x="229" y="830" on="0"/>
        <pt x="250" y="807" on="0"/>
        <pt x="250" y="768" on="0"/>
        <pt x="228" y="745" on="0"/>
        <pt x="190" y="745" on="0"/>
        <pt x="168" y="767" on="0"/>
      </contour>
      <contour>
        <pt x="328" y="786" on="1"/>
        <pt x="328" y="830" on="0"/>
        <pt x="371" y="830" on="1"/>
        <pt x="389" y="830" on="0"/>
        <pt x="410" y="807" on="0"/>
        <pt x="410" y="768" on="0"/>
        <pt x="388" y="745" on="0"/>
        <pt x="350" y="745" on="0"/>
        <pt x="328" y="767" on="0"/>
      </contour>
    </TTGlyph>
    <TTGlyph name="Agrave" xMin="22" yMin="0" xMax="546" yMax="846">
      <contour>
        <pt x="22" y="0" on="1"/>
        <pt x="246" y="690" on="1"/>
        <pt x="321" y="699" on="1"/>
        <pt x="546" y="0" on="1"/>
        <pt x="469" y="0" on="1"/>
        <pt x="408" y="195" on="1"/>
        <pt x="159" y="195" on="1"/>
        <pt x="99" y="0" on="1"/>
      </contour>
      <contour>
        <pt x="288" y="618" on="1"/>
        <pt x="282" y="618" on="1"/>
        <pt x="281" y="591" on="0"/>
        <pt x="272" y="561" on="1"/>
        <pt x="179" y="260" on="1"/>
        <pt x="388" y="260" on="1"/>
        <pt x="298" y="561" on="1"/>
        <pt x="292" y="583" on="0"/>
        <pt x="287" y="618" on="0"/>
      </contour>
      <contour>
        <pt x="197" y="838" on="1"/>
        <pt x="203" y="846" on="0"/>
        <pt x="235" y="846" on="0"/>
        <pt x="279" y="812" on="1"/>
        <pt x="361" y="751" on="1"/>
        <pt x="339" y="723" on="1"/>
        <pt x="180" y="795" on="1"/>
      </contour>
    </TTGlyph>
    <TTGlyph name="Aogonek" xMin="22" yMin="-204" xMax="551" yMax="699">
      <contour>
        <pt x="288" y="618" on="1"/>
        <pt x="282" y="618" on="1"/>
        <pt x="281" y="591" on="0"/>
        <pt x="272" y="561" on="1"/>
        <pt x="179" y="260" on="1"/>
        <pt x="388" y="260" on="1"/>
        <pt x="298" y="561" on="1"/>
        <pt x="292" y="583" on="0"/>
        <pt x="287" y="618" on="0"/>
      </contour>
      <contour>
        <pt x="470" y="-136" on="0"/>
        <pt x="491" y="-157" on="0"/>
        <pt x="528" y="-157" on="0"/>
        <pt x="540" y="-151" on="1"/>
        <pt x="551" y="-188" on="1"/>
        <pt x="533" y="-204" on="0"/>
        <pt x="454" y="-204" on="0"/>
        <pt x="406" y="-167" on="0"/>
        <pt x="406" y="-106" on="0"/>
        <pt x="442" y="-32" on="0"/>
        <pt x="469" y="0" on="1"/>
        <pt x="408" y="195" on="1"/>
        <pt x="159" y="195" on="1"/>
        <pt x="99" y="0" on="1"/>
        <pt x="22" y="0" on="1"/>
        <pt x="246" y="690" on="1"/>
        <pt x="321" y="699" on="1"/>
        <pt x="546" y="0" on="1"/>
        <pt x="518" y="0" on="1"/>
        <pt x="470" y="-73" on="0"/>
        <pt x="470" y="-120" on="1"/>
      </contour>
    </TTGlyph>
    <TTGlyph name="Aring" xMin="22" yMin="0" xMax="546" yMax="914">
      <contour>
        <pt x="22" y="0" on="1"/>
        <pt x="246" y="690" on="1"/>
        <pt x="321" y="699" on="1"/>
        <pt x="546" y="0" on="1"/>
        <pt x="469" y="0" on="1"/>
        <pt x="408" y="195" on="1"/>
        <pt x="159" y="195" on="1"/>
        <pt x="99" y="0" on="1"/>
      </contour>
      <contour>
        <pt x="288" y="618" on="1"/>
        <pt x="282" y="618" on="1"/>
        <pt x="281" y="591" on="0"/>
        <pt x="272" y="561" on="1"/>
        <pt x="179" y="260" on="1"/>
        <pt x="388" y="260" on="1"/>
        <pt x="298" y="561" on="1"/>
        <pt x="292" y="583" on="0"/>
        <pt x="287" y="618" on="0"/>
      </contour>
      <contour>
        <pt x="243" y="822" on="1"/>
        <pt x="243" y="778" on="0"/>
        <pt x="331" y="778" on="0"/>
        <pt x="331" y="869" on="0"/>
        <pt x="289" y="869" on="1"/>
        <pt x="243" y="869" on="0"/>
      </contour>
      <contour>
        <pt x="243" y="733" on="0"/>
        <pt x="192" y="781" on="0"/>
        <pt x="192" y="866" on="0"/>
        <pt x="243" y="914" on="0"/>
        <pt x="333" y="914" on="0"/>
        <pt x="382" y="865" on="0"/>
        <pt x="382" y="782" on="0"/>
        <pt x="332" y="733" on="0"/>
      </contour>
    </TTGlyph>
    <TTGlyph name="Atilde" xMin="22" yMin="0" xMax="546" yMax="847">
      <contour>
        <pt x="22" y="0" on="1"/>
        <pt x="246" y="690" on="1"/>
        <pt x="321" y="699" on="1"/>
        <pt x="546" y="0" on="1"/>
        <pt x="469" y="0" on="1"/>
        <pt x="408" y="195" on="1"/>
        <pt x="159" y="195" on="1"/>
        <pt x="99" y="0" on="1"/>
      </contour>
      <contour>
        <pt x="288" y="618" on="1"/>
        <pt x="282" y="618" on="1"/>
        <pt x="281" y="591" on="0"/>
        <pt x="272" y="561" on="1"/>
        <pt x="179" y="260" on="1"/>
        <pt x="388" y="260" on="1"/>
        <pt x="298" y="561" on="1"/>
        <pt x="292" y="583" on="0"/>
        <pt x="287" y="618" on="0"/>
      </contour>
      <contour>
        <pt x="143" y="807" on="0"/>
        <pt x="186" y="847" on="0"/>
        <pt x="213" y="847" on="1"/>
        <pt x="241" y="847" on="0"/>
        <pt x="284" y="830" on="1"/>
        <pt x="341" y="807" on="0"/>
        <pt x="353" y="807" on="1"/>
        <pt x="381" y="807" on="0"/>
        <pt x="404" y="840" on="1"/>
        <pt x="434" y="824" on="1"/>
        <pt x="425" y="786" on="0"/>
        <pt x="382" y="747" on="0"/>
        <pt x="332" y="747" on="0"/>
        <pt x="226" y="787" on="0"/>
        <pt x="217" y="787" on="1"/>
        <pt x="188" y="787" on="0"/>
        <pt x="164" y="754" on="1"/>
        <pt x="134" y="770" on="1"/>
      </contour>
    </TTGlyph>
    <TTGlyph name="B" xMin="110" yMin="-12" xMax="527" yMax="694">
      <contour>
        <pt x="113" y="682" on="1"/>
        <pt x="185" y="694" on="0"/>
        <pt x="377" y="694" on="0"/>
        <pt x="491" y="609" on="0"/>
        <pt x="491" y="530" on="1"/>
        <pt x="491" y="475" on="0"/>
        <pt x="434" y="400" on="0"/>
        <pt x="381" y="386" on="1"/>
        <pt x="381" y="380" on="1"/>
        <pt x="447" y="372" on="0"/>
        <pt x="527" y="272" on="0"/>
        <pt x="527" y="204" on="1"/>
        <pt x="527" y="103" on="0"/>
        <pt x="384" y="-12" on="0"/>
        <pt x="162" y="-12" on="0"/>
        <pt x="110" y="11" on="1"/>
      </contour>
      <contour>
        <pt x="265" y="53" on="1"/>
        <pt x="349" y="53" on="0"/>
        <pt x="447" y="125" on="0"/>
        <pt x="447" y="278" on="0"/>
        <pt x="363" y="337" on="0"/>
        <pt x="276" y="337" on="1"/>
        <pt x="188" y="333" on="1"/>
        <pt x="188" y="58" on="1"/>
        <pt x="216" y="53" on="0"/>
      </contour>
      <contour>
        <pt x="413" y="460" on="0"/>
        <pt x="413" y="580" on="0"/>
        <pt x="343" y="629" on="0"/>
        <pt x="276" y="629" on="1"/>
        <pt x="188" y="625" on="1"/>
        <pt x="188" y="395" on="1"/>
        <pt x="260" y="398" on="1"/>
        <pt x="329" y="401" on="0"/>
      </contour>
    </TTGlyph>
    <TTGlyph name="C" xMin="70" yMin="-12" xMax="504" yMax="694">
      <contour>
        <pt x="316" y="-12" on="1"/>
        <pt x="174" y="-12" on="0"/>
        <pt x="120" y="92" on="1"/>
        <pt x="70" y="187" on="0"/>
        <pt x="70" y="493" on="0"/>
        <pt x="218" y="694" on="0"/>
        <pt x="350" y="694" on="1"/>
        <pt x="414" y="694" on="0"/>
        <pt x="473" y="674" on="1"/>
        <pt x="458" y="618" on="1"/>
        <pt x="407" y="628" on="0"/>
        <pt x="359" y="628" on="1"/>
        <pt x="150" y="628" on="0"/>
        <pt x="150" y="338" on="1"/>
        <pt x="150" y="131" on="0"/>
        <pt x="240" y="76" on="1"/>
        <pt x="277" y="54" on="0"/>
        <pt x="331" y="54" on="1"/>
        <pt x="418" y="54" on="0"/>
        <pt x="488" y="112" on="1"/>
        <pt x="504" y="61" on="1"/>
        <pt x="438" y="-12" on="0"/>
      </contour>
    </TTGlyph>
    <TTGlyph name="Ccedilla" xMin="70" yMin="-201" xMax="504" yMax="694">
      <contour>
        <pt x="271" y="-161" on="1"/>
        <pt x="314" y="-161" on="0"/>
        <pt x="314" y="-119" on="1"/>
        <pt x="314" y="-80" on="0"/>
        <pt x="257" y="-65" on="1"/>
        <pt x="272" y="-9" on="1"/>
        <pt x="157" y="7" on="0"/>
        <pt x="111" y="108" on="1"/>
        <pt x="70" y="198" on="0"/>
        <pt x="70" y="493" on="0"/>
        <pt x="218" y="694" on="0"/>
        <pt x="350" y="694" on="1"/>
        <pt x="414" y="694" on="0"/>
        <pt x="473" y="674" on="1"/>
        <pt x="458" y="618" on="1"/>
        <pt x="407" y="628" on="0"/>
        <pt x="359" y="628" on="1"/>
        <pt x="150" y="628" on="0"/>
        <pt x="150" y="338" on="1"/>
        <pt x="150" y="131" on="0"/>
        <pt x="240" y="76" on="1"/>
        <pt x="277" y="54" on="0"/>
        <pt x="331" y="54" on="1"/>
        <pt x="418" y="54" on="0"/>
        <pt x="488" y="112" on="1"/>
        <pt x="504" y="61" on="1"/>
        <pt x="438" y="-12" on="0"/>
        <pt x="316" y="-12" on="1"/>
        <pt x="315" y="-12" on="1"/>
        <pt x="308" y="-38" on="1"/>
        <pt x="375" y="-59" on="0"/>
        <pt x="375" y="-118" on="1"/>
        <pt x="375" y="-155" on="0"/>
        <pt x="321" y="-201" on="0"/>
        <pt x="283" y="-201" on="1"/>
        <pt x="247" y="-201" on="0"/>
        <pt x="225" y="-185" on="1"/>
        <pt x="234" y="-155" on="1"/>
        <pt x="249" y="-161" on="0"/>
      </contour>
    </TTGlyph>
    <TTGlyph name="D" xMin="110" yMin="-12" xMax="558" yMax="694">
      <contour>
        <pt x="300" y="694" on="1"/>
        <pt x="558" y="694" on="0"/>
        <pt x="558" y="349" on="1"/>
        <pt x="558" y="196" on="0"/>
        <pt x="490" y="95" on="1"/>
        <pt x="457" y="45" on="0"/>
        <pt x="346" y="-12" on="0"/>
        <pt x="275" y="-12" on="1"/>
        <pt x="162" y="-12" on="0"/>
        <pt x="110" y="11" on="1"/>
        <pt x="113" y="682" on="1"/>
        <pt x="195" y="694" on="0"/>
      </contour>
      <contour>
        <pt x="265" y="53" on="1"/>
        <pt x="376" y="53" on="0"/>
        <pt x="478" y="220" on="0"/>
        <pt x="478" y="352" on="1"/>
        <pt x="478" y="629" on="0"/>
        <pt x="276" y="629" on="1"/>
        <pt x="188" y="625" on="1"/>
        <pt x="188" y="58" on="1"/>
        <pt x="216" y="53" on="0"/>
      </contour>
    </TTGlyph>
    <TTGlyph name="E" xMin="110" yMin="0" xMax="459" yMax="690">
      <contour>
        <pt x="188" y="154" on="1"/>
        <pt x="188" y="101" on="0"/>
        <pt x="182" y="65" on="1"/>
        <pt x="459" y="65" on="1"/>
        <pt x="456" y="0" on="1"/>
        <pt x="110" y="0" on="1"/>
        <pt x="113" y="690" on="1"/>
        <pt x="459" y="690" on="1"/>
        <pt x="456" y="625" on="1"/>
        <pt x="187" y="625" on="1"/>
        <pt x="189" y="596" on="0"/>
        <pt x="189" y="536" on="1"/>
        <pt x="188" y="405" on="1"/>
        <pt x="428" y="405" on="1"/>
        <pt x="428" y="340" on="1"/>
        <pt x="188" y="340" on="1"/>
      </contour>
    </TTGlyph>
    <TTGlyph name="Eacute" xMin="120" yMin="0" xMax="469" yMax="846">
      <contour>
        <pt x="198" y="154" on="1"/>
        <pt x="198" y="101" on="0"/>
        <pt x="192" y="65" on="1"/>
        <pt x="469" y="65" on="1"/>
        <pt x="466" y="0" on="1"/>
        <pt x="120" y="0" on="1"/>
        <pt x="123" y="690" on="1"/>
        <pt x="469" y="690" on="1"/>
        <pt x="466" y="625" on="1"/>
        <pt x="197" y="625" on="1"/>
        <pt x="200" y="596" on="0"/>
        <pt x="200" y="536" on="1"/>
        <pt x="198" y="405" on="1"/>
        <pt x="438" y="405" on="1"/>
        <pt x="438" y="340" on="1"/>
        <pt x="198" y="340" on="1"/>
      </contour>
      <contour>
        <pt x="393" y="838" on="1"/>
        <pt x="410" y="795" on="1"/>
        <pt x="251" y="723" on="1"/>
        <pt x="229" y="751" on="1"/>
        <pt x="311" y="812" on="1"/>
        <pt x="355" y="846" on="0"/>
        <pt x="385" y="846" on="0"/>
      </contour>
    </TTGlyph>
    <TTGlyph name="Ecircumflex" xMin="120" yMin="0" xMax="469" yMax="843">
      <contour>
        <pt x="198" y="154" on="1"/>
        <pt x="198" y="101" on="0"/>
        <pt x="192" y="65" on="1"/>
        <pt x="469" y="65" on="1"/>
        <pt x="466" y="0" on="1"/>
        <pt x="120" y="0" on="1"/>
        <pt x="123" y="690" on="1"/>
        <pt x="469" y="690" on="1"/>
        <pt x="466" y="625" on="1"/>
        <pt x="197" y="625" on="1"/>
        <pt x="200" y="596" on="0"/>
        <pt x="200" y="536" on="1"/>
        <pt x="198" y="405" on="1"/>
        <pt x="438" y="405" on="1"/>
        <pt x="438" y="340" on="1"/>
        <pt x="198" y="340" on="1"/>
      </contour>
      <contour>
        <pt x="203" y="725" on="1"/>
        <pt x="181" y="753" on="1"/>
        <pt x="250" y="834" on="1"/>
        <pt x="321" y="843" on="1"/>
        <pt x="336" y="836" on="0"/>
        <pt x="352" y="817" on="1"/>
        <pt x="407" y="753" on="1"/>
        <pt x="385" y="725" on="1"/>
        <pt x="294" y="793" on="1"/>
      </contour>
    </TTGlyph>
    <TTGlyph name="Edieresis" xMin="120" yMin="0" xMax="469" yMax="830">
      <contour>
        <pt x="198" y="154" on="1"/>
        <pt x="198" y="101" on="0"/>
        <pt x="192" y="65" on="1"/>
        <pt x="469" y="65" on="1"/>
        <pt x="466" y="0" on="1"/>
        <pt x="120" y="0" on="1"/>
        <pt x="123" y="690" on="1"/>
        <pt x="469" y="690" on="1"/>
        <pt x="466" y="625" on="1"/>
        <pt x="197" y="625" on="1"/>
        <pt x="200" y="596" on="0"/>
        <pt x="200" y="536" on="1"/>
        <pt x="198" y="405" on="1"/>
        <pt x="438" y="405" on="1"/>
        <pt x="438" y="340" on="1"/>
        <pt x="198" y="340" on="1"/>
      </contour>
      <contour>
        <pt x="168" y="786" on="1"/>
        <pt x="168" y="830" on="0"/>
        <pt x="211" y="830" on="1"/>
        <pt x="229" y="830" on="0"/>
        <pt x="250" y="807" on="0"/>
        <pt x="250" y="768" on="0"/>
        <pt x="228" y="745" on="0"/>
        <pt x="190" y="745" on="0"/>
        <pt x="168" y="767" on="0"/>
      </contour>
      <contour>
        <pt x="328" y="786" on="1"/>
        <pt x="328" y="830" on="0"/>
        <pt x="371" y="830" on="1"/>
        <pt x="389" y="830" on="0"/>
        <pt x="410" y="807" on="0"/>
        <pt x="410" y="768" on="0"/>
        <pt x="388" y="745" on="0"/>
        <pt x="350" y="745" on="0"/>
        <pt x="328" y="767" on="0"/>
      </contour>
    </TTGlyph>
    <TTGlyph name="Egrave" xMin="120" yMin="0" xMax="469" yMax="846">
      <contour>
        <pt x="198" y="154" on="1"/>
        <pt x="198" y="101" on="0"/>
        <pt x="192" y="65" on="1"/>
        <pt x="469" y="65" on="1"/>
        <pt x="466" y="0" on="1"/>
        <pt x="120" y="0" on="1"/>
        <pt x="123" y="690" on="1"/>
        <pt x="469" y="690" on="1"/>
        <pt x="466" y="625" on="1"/>
        <pt x="197" y="625" on="1"/>
        <pt x="200" y="596" on="0"/>
        <pt x="200" y="536" on="1"/>
        <pt x="198" y="405" on="1"/>
        <pt x="438" y="405" on="1"/>
        <pt x="438" y="340" on="1"/>
        <pt x="198" y="340" on="1"/>
      </contour>
      <contour>
        <pt x="188" y="838" on="1"/>
        <pt x="194" y="846" on="0"/>
        <pt x="226" y="846" on="0"/>
        <pt x="270" y="812" on="1"/>
        <pt x="352" y="751" on="1"/>
        <pt x="330" y="723" on="1"/>
        <pt x="171" y="795" on="1"/>
      </contour>
    </TTGlyph>
    <TTGlyph name="Eogonek" xMin="120" yMin="-204" xMax="469" yMax="690">
      <contour>
        <pt x="198" y="154" on="1"/>
        <pt x="198" y="101" on="0"/>
        <pt x="192" y="65" on="1"/>
        <pt x="469" y="65" on="1"/>
        <pt x="466" y="0" on="1"/>
        <pt x="120" y="0" on="1"/>
        <pt x="123" y="690" on="1"/>
        <pt x="469" y="690" on="1"/>
        <pt x="466" y="625" on="1"/>
        <pt x="197" y="625" on="1"/>
        <pt x="200" y="596" on="0"/>
        <pt x="200" y="536" on="1"/>
        <pt x="198" y="405" on="1"/>
        <pt x="438" y="405" on="1"/>
        <pt x="438" y="340" on="1"/>
        <pt x="198" y="340" on="1"/>
      </contour>
      <contour>
        <pt x="446" y="-151" on="1"/>
        <pt x="457" y="-188" on="1"/>
        <pt x="452" y="-192" on="1"/>
        <pt x="435" y="-204" on="0"/>
        <pt x="388" y="-204" on="1"/>
        <pt x="360" y="-204" on="0"/>
        <pt x="312" y="-167" on="0"/>
        <pt x="312" y="-106" on="0"/>
        <pt x="348" y="-32" on="0"/>
        <pt x="375" y="0" on="1"/>
        <pt x="424" y="0" on="1"/>
        <pt x="376" y="-73" on="0"/>
        <pt x="376" y="-120" on="1"/>
        <pt x="376" y="-136" on="0"/>
        <pt x="397" y="-157" on="0"/>
        <pt x="436" y="-157" on="0"/>
      </contour>
    </TTGlyph>
    <TTGlyph name="Eth" xMin="45" yMin="-12" xMax="568" yMax="694">
      <contour>
        <pt x="310" y="694" on="1"/>
        <pt x="568" y="694" on="0"/>
        <pt x="568" y="349" on="1"/>
        <pt x="568" y="196" on="0"/>
        <pt x="500" y="95" on="1"/>
        <pt x="467" y="45" on="0"/>
        <pt x="356" y="-12" on="0"/>
        <pt x="285" y="-12" on="1"/>
        <pt x="172" y="-12" on="0"/>
        <pt x="120" y="11" on="1"/>
        <pt x="121" y="324" on="1"/>
        <pt x="45" y="323" on="1"/>
        <pt x="45" y="385" on="1"/>
        <pt x="122" y="384" on="1"/>
        <pt x="123" y="682" on="1"/>
        <pt x="205" y="694" on="0"/>
      </contour>
      <contour>
        <pt x="275" y="53" on="1"/>
        <pt x="386" y="53" on="0"/>
        <pt x="488" y="220" on="0"/>
        <pt x="488" y="352" on="1"/>
        <pt x="488" y="629" on="0"/>
        <pt x="286" y="629" on="1"/>
        <pt x="198" y="625" on="1"/>
        <pt x="198" y="383" on="1"/>
        <pt x="344" y="381" on="1"/>
        <pt x="338" y="327" on="1"/>
        <pt x="198" y="325" on="1"/>
        <pt x="198" y="58" on="1"/>
        <pt x="226" y="53" on="0"/>
      </contour>
    </TTGlyph>
    <TTGlyph name="Euro" xMin="70" yMin="-12" xMax="565" yMax="671">
      <contour>
        <pt x="427" y="671" on="1"/>
        <pt x="491" y="671" on="0"/>
        <pt x="550" y="651" on="1"/>
        <pt x="535" y="595" on="1"/>
        <pt x="484" y="605" on="0"/>
        <pt x="436" y="605" on="1"/>
        <pt x="330" y="605" on="0"/>
        <pt x="232" y="503" on="0"/>
        <pt x="223" y="399" on="1"/>
        <pt x="534" y="412" on="1"/>
        <pt x="534" y="408" on="0"/>
        <pt x="534" y="386" on="0"/>
        <pt x="527" y="370" on="1"/>
        <pt x="221" y="358" on="1"/>
        <pt x="221" y="301" on="1"/>
        <pt x="529" y="314" on="1"/>
        <pt x="529" y="310" on="0"/>
        <pt x="529" y="288" on="0"/>
        <pt x="522" y="272" on="1"/>
        <pt x="223" y="261" on="1"/>
        <pt x="231" y="164" on="0"/>
        <pt x="264" y="113" on="1"/>
        <pt x="301" y="54" on="0"/>
        <pt x="479" y="54" on="0"/>
        <pt x="549" y="112" on="1"/>
        <pt x="565" y="61" on="1"/>
        <pt x="499" y="-12" on="0"/>
        <pt x="258" y="-12" on="0"/>
        <pt x="153" y="127" on="0"/>
        <pt x="143" y="258" on="1"/>
        <pt x="70" y="255" on="1"/>
        <pt x="72" y="295" on="1"/>
        <pt x="141" y="298" on="1"/>
        <pt x="141" y="355" on="1"/>
        <pt x="75" y="353" on="1"/>
        <pt x="77" y="393" on="1"/>
        <pt x="143" y="396" on="1"/>
        <pt x="155" y="527" on="0"/>
        <pt x="298" y="671" on="0"/>
      </contour>
    </TTGlyph>
    <TTGlyph name="F" xMin="110" yMin="0" xMax="443" yMax="690">
      <contour>
        <pt x="184" y="625" on="1"/>
        <pt x="187" y="571" on="0"/>
        <pt x="187" y="536" on="1"/>
        <pt x="185" y="405" on="1"/>
        <pt x="415" y="405" on="1"/>
        <pt x="415" y="340" on="1"/>
        <pt x="185" y="340" on="1"/>
        <pt x="185" y="0" on="1"/>
        <pt x="110" y="0" on="1"/>
        <pt x="110" y="690" on="1"/>
        <pt x="443" y="690" on="1"/>
        <pt x="443" y="625" on="1"/>
      </contour>
    </TTGlyph>
    <TTGlyph name="G" xMin="70" yMin="-12" xMax="504" yMax="694">
      <contour>
        <pt x="429" y="293" on="1"/>
        <pt x="344" y="293" on="1"/>
        <pt x="344" y="359" on="1"/>
        <pt x="504" y="359" on="1"/>
        <pt x="504" y="36" on="1"/>
        <pt x="438" y="-12" on="0"/>
        <pt x="324" y="-12" on="1"/>
        <pt x="180" y="-12" on="0"/>
        <pt x="122" y="90" on="1"/>
        <pt x="70" y="182" on="0"/>
        <pt x="70" y="494" on="0"/>
        <pt x="221" y="694" on="0"/>
        <pt x="360" y="694" on="1"/>
        <pt x="428" y="694" on="0"/>
        <pt x="489" y="674" on="1"/>
        <pt x="474" y="618" on="1"/>
        <pt x="419" y="628" on="0"/>
        <pt x="369" y="628" on="1"/>
        <pt x="150" y="628" on="0"/>
        <pt x="150" y="338" on="1"/>
        <pt x="150" y="130" on="0"/>
        <pt x="244" y="76" on="1"/>
        <pt x="282" y="54" on="0"/>
        <pt x="387" y="54" on="0"/>
        <pt x="429" y="69" on="1"/>
      </contour>
    </TTGlyph>
    <TTGlyph name="H" xMin="110" yMin="0" xMax="566" yMax="690">
      <contour>
        <pt x="188" y="690" on="1"/>
        <pt x="188" y="405" on="1"/>
        <pt x="489" y="405" on="1"/>
        <pt x="489" y="690" on="1"/>
        <pt x="563" y="690" on="1"/>
        <pt x="566" y="0" on="1"/>
        <pt x="489" y="0" on="1"/>
        <pt x="489" y="340" on="1"/>
        <pt x="188" y="340" on="1"/>
        <pt x="188" y="0" on="1"/>
        <pt x="110" y="0" on="1"/>
        <pt x="113" y="690" on="1"/>
      </contour>
    </TTGlyph>
    <TTGlyph name="I" xMin="110" yMin="0" xMax="188" yMax="690">
      <contour>
        <pt x="188" y="690" on="1"/>
        <pt x="188" y="0" on="1"/>
        <pt x="110" y="0" on="1"/>
        <pt x="113" y="690" on="1"/>
      </contour>
    </TTGlyph>
    <TTGlyph name="IJ" xMin="122" yMin="-164" xMax="520" yMax="702">
      <contour>
        <pt x="200" y="690" on="1"/>
        <pt x="200" y="0" on="1"/>
        <pt x="122" y="0" on="1"/>
        <pt x="125" y="690" on="1"/>
      </contour>
      <contour>
        <pt x="445" y="119" on="1"/>
        <pt x="445" y="690" on="1"/>
        <pt x="520" y="702" on="1"/>
        <pt x="520" y="106" on="1"/>
        <pt x="520" y="38" on="0"/>
        <pt x="507" y="-50" on="0"/>
        <pt x="488" y="-89" on="1"/>
        <pt x="453" y="-164" on="0"/>
        <pt x="335" y="-164" on="1"/>
        <pt x="325" y="-105" on="1"/>
        <pt x="370" y="-105" on="0"/>
        <pt x="402" y="-82" on="1"/>
        <pt x="421" y="-68" on="0"/>
        <pt x="436" y="-20" on="1"/>
        <pt x="445" y="10" on="0"/>
      </contour>
    </TTGlyph>
    <TTGlyph name="Iacute" xMin="87" yMin="0" xMax="268" yMax="846">
      <contour>
        <pt x="200" y="690" on="1"/>
        <pt x="200" y="0" on="1"/>
        <pt x="122" y="0" on="1"/>
        <pt x="125" y="690" on="1"/>
      </contour>
      <contour>
        <pt x="251" y="838" on="1"/>
        <pt x="268" y="795" on="1"/>
        <pt x="109" y="723" on="1"/>
        <pt x="87" y="751" on="1"/>
        <pt x="169" y="812" on="1"/>
        <pt x="213" y="846" on="0"/>
        <pt x="243" y="846" on="0"/>
      </contour>
    </TTGlyph>
    <TTGlyph name="Icircumflex" xMin="49" yMin="0" xMax="275" yMax="842">
      <contour>
        <pt x="200" y="690" on="1"/>
        <pt x="200" y="0" on="1"/>
        <pt x="122" y="0" on="1"/>
        <pt x="125" y="690" on="1"/>
      </contour>
      <contour>
        <pt x="71" y="724" on="1"/>
        <pt x="49" y="752" on="1"/>
        <pt x="118" y="833" on="1"/>
        <pt x="189" y="842" on="1"/>
        <pt x="204" y="835" on="0"/>
        <pt x="220" y="816" on="1"/>
        <pt x="275" y="752" on="1"/>
        <pt x="253" y="724" on="1"/>
        <pt x="162" y="792" on="1"/>
      </contour>
    </TTGlyph>
    <TTGlyph name="Idieresis" xMin="57" yMin="0" xMax="269" yMax="830">
      <contour>
        <pt x="57" y="786" on="1"/>
        <pt x="57" y="830" on="0"/>
        <pt x="100" y="830" on="1"/>
        <pt x="118" y="830" on="0"/>
        <pt x="139" y="807" on="0"/>
        <pt x="139" y="768" on="0"/>
        <pt x="117" y="745" on="0"/>
        <pt x="79" y="745" on="0"/>
        <pt x="57" y="767" on="0"/>
      </contour>
      <contour>
        <pt x="187" y="786" on="1"/>
        <pt x="187" y="830" on="0"/>
        <pt x="230" y="830" on="1"/>
        <pt x="248" y="830" on="0"/>
        <pt x="269" y="807" on="0"/>
        <pt x="269" y="768" on="0"/>
        <pt x="247" y="745" on="0"/>
        <pt x="209" y="745" on="0"/>
        <pt x="187" y="767" on="0"/>
      </contour>
      <contour>
        <pt x="200" y="690" on="1"/>
        <pt x="200" y="0" on="1"/>
        <pt x="122" y="0" on="1"/>
        <pt x="125" y="690" on="1"/>
      </contour>
    </TTGlyph>
    <TTGlyph name="Igrave" xMin="56" yMin="0" xMax="237" yMax="846">
      <contour>
        <pt x="200" y="690" on="1"/>
        <pt x="200" y="0" on="1"/>
        <pt x="122" y="0" on="1"/>
        <pt x="125" y="690" on="1"/>
      </contour>
      <contour>
        <pt x="73" y="838" on="1"/>
        <pt x="79" y="846" on="0"/>
        <pt x="111" y="846" on="0"/>
        <pt x="155" y="812" on="1"/>
        <pt x="237" y="751" on="1"/>
        <pt x="215" y="723" on="1"/>
        <pt x="56" y="795" on="1"/>
      </contour>
    </TTGlyph>
    <TTGlyph name="Iogonek" xMin="59" yMin="-204" xMax="204" yMax="690">
      <contour>
        <pt x="123" y="-136" on="0"/>
        <pt x="144" y="-157" on="0"/>
        <pt x="181" y="-157" on="0"/>
        <pt x="193" y="-151" on="1"/>
        <pt x="204" y="-188" on="1"/>
        <pt x="186" y="-204" on="0"/>
        <pt x="107" y="-204" on="0"/>
        <pt x="59" y="-167" on="0"/>
        <pt x="59" y="-106" on="0"/>
        <pt x="95" y="-32" on="0"/>
        <pt x="122" y="0" on="1"/>
        <pt x="125" y="690" on="1"/>
        <pt x="200" y="690" on="1"/>
        <pt x="200" y="0" on="1"/>
        <pt x="171" y="0" on="1"/>
        <pt x="123" y="-73" on="0"/>
        <pt x="123" y="-120" on="1"/>
      </contour>
    </TTGlyph>
    <TTGlyph name="Itilde" xMin="60" yMin="0" xMax="360" yMax="847">
      <contour>
        <pt x="248" y="690" on="1"/>
        <pt x="248" y="0" on="1"/>
        <pt x="170" y="0" on="1"/>
        <pt x="173" y="690" on="1"/>
      </contour>
      <contour>
        <pt x="69" y="807" on="0"/>
        <pt x="112" y="847" on="0"/>
        <pt x="139" y="847" on="1"/>
        <pt x="167" y="847" on="0"/>
        <pt x="209" y="830" on="1"/>
        <pt x="267" y="807" on="0"/>
        <pt x="279" y="807" on="1"/>
        <pt x="307" y="807" on="0"/>
        <pt x="330" y="840" on="1"/>
        <pt x="360" y="824" on="1"/>
        <pt x="351" y="786" on="0"/>
        <pt x="308" y="747" on="0"/>
        <pt x="281" y="747" on="1"/>
        <pt x="251" y="747" on="0"/>
        <pt x="186" y="774" on="1"/>
        <pt x="154" y="787" on="0"/>
        <pt x="143" y="787" on="1"/>
        <pt x="114" y="787" on="0"/>
        <pt x="90" y="754" on="1"/>
        <pt x="60" y="770" on="1"/>
      </contour>
    </TTGlyph>
    <TTGlyph name="J" xMin="2" yMin="-164" xMax="197" yMax="702">
      <contour>
        <pt x="122" y="119" on="1"/>
        <pt x="122" y="690" on="1"/>
        <pt x="197" y="702" on="1"/>
        <pt x="197" y="106" on="1"/>
        <pt x="197" y="38" on="0"/>
        <pt x="184" y="-50" on="0"/>
        <pt x="166" y="-89" on="1"/>
        <pt x="130" y="-164" on="0"/>
        <pt x="12" y="-164" on="1"/>
        <pt x="2" y="-105" on="1"/>
        <pt x="47" y="-105" on="0"/>
        <pt x="78" y="-82" on="1"/>
        <pt x="98" y="-68" on="0"/>
        <pt x="112" y="-20" on="1"/>
        <pt x="122" y="10" on="0"/>
      </contour>
    </TTGlyph>
    <TTGlyph name="Jcircumflex" xMin="2" yMin="-164" xMax="275" yMax="842">
      <contour>
        <pt x="71" y="724" on="1"/>
        <pt x="49" y="752" on="1"/>
        <pt x="118" y="833" on="1"/>
        <pt x="189" y="842" on="1"/>
        <pt x="204" y="835" on="0"/>
        <pt x="220" y="816" on="1"/>
        <pt x="275" y="752" on="1"/>
        <pt x="253" y="724" on="1"/>
        <pt x="162" y="792" on="1"/>
      </contour>
      <contour>
        <pt x="122" y="119" on="1"/>
        <pt x="122" y="690" on="1"/>
        <pt x="197" y="702" on="1"/>
        <pt x="197" y="106" on="1"/>
        <pt x="197" y="38" on="0"/>
        <pt x="184" y="-50" on="0"/>
        <pt x="166" y="-89" on="1"/>
        <pt x="130" y="-164" on="0"/>
        <pt x="12" y="-164" on="1"/>
        <pt x="2" y="-105" on="1"/>
        <pt x="47" y="-105" on="0"/>
        <pt x="78" y="-82" on="1"/>
        <pt x="98" y="-68" on="0"/>
        <pt x="112" y="-20" on="1"/>
        <pt x="122" y="10" on="0"/>
      </contour>
    </TTGlyph>
    <TTGlyph name="K" xMin="110" yMin="-8" xMax="553" yMax="702">
      <contour>
        <pt x="110" y="0" on="1"/>
        <pt x="110" y="690" on="1"/>
        <pt x="185" y="690" on="1"/>
        <pt x="185" y="382" on="1"/>
        <pt x="283" y="385" on="1"/>
        <pt x="455" y="702" on="1"/>
        <pt x="531" y="690" on="1"/>
        <pt x="342" y="356" on="1"/>
        <pt x="455" y="134" on="1"/>
        <pt x="481" y="85" on="0"/>
        <pt x="522" y="45" on="0"/>
        <pt x="551" y="45" on="1"/>
        <pt x="553" y="-3" on="1"/>
        <pt x="547" y="-8" on="0"/>
        <pt x="524" y="-8" on="1"/>
        <pt x="478" y="-8" on="0"/>
        <pt x="423" y="43" on="0"/>
        <pt x="395" y="99" on="1"/>
        <pt x="282" y="320" on="1"/>
        <pt x="185" y="317" on="1"/>
        <pt x="185" y="0" on="1"/>
      </contour>
    </TTGlyph>
    <TTGlyph name="L" xMin="110" yMin="0" xMax="443" yMax="702">
      <contour>
        <pt x="188" y="154" on="1"/>
        <pt x="188" y="101" on="0"/>
        <pt x="182" y="65" on="1"/>
        <pt x="443" y="65" on="1"/>
        <pt x="440" y="0" on="1"/>
        <pt x="110" y="0" on="1"/>
        <pt x="113" y="690" on="1"/>
        <pt x="188" y="702" on="1"/>
      </contour>
    </TTGlyph>
    <TTGlyph name="Ldotaccent" xMin="120" yMin="0" xMax="453" yMax="702">
      <contour>
        <pt x="198" y="154" on="1"/>
        <pt x="198" y="101" on="0"/>
        <pt x="192" y="65" on="1"/>
        <pt x="453" y="65" on="1"/>
        <pt x="450" y="0" on="1"/>
        <pt x="120" y="0" on="1"/>
        <pt x="123" y="690" on="1"/>
        <pt x="198" y="702" on="1"/>
      </contour>
      <contour>
        <pt x="290" y="361" on="1"/>
        <pt x="290" y="408" on="0"/>
        <pt x="336" y="408" on="1"/>
        <pt x="378" y="408" on="0"/>
        <pt x="378" y="317" on="0"/>
        <pt x="290" y="317" on="0"/>
      </contour>
    </TTGlyph>
    <TTGlyph name="Lslash" xMin="12" yMin="0" xMax="453" yMax="702">
      <contour>
        <pt x="198" y="154" on="1"/>
        <pt x="198" y="101" on="0"/>
        <pt x="192" y="65" on="1"/>
        <pt x="453" y="65" on="1"/>
        <pt x="450" y="0" on="1"/>
        <pt x="120" y="0" on="1"/>
        <pt x="121" y="338" on="1"/>
        <pt x="30" y="289" on="1"/>
        <pt x="14" y="303" on="0"/>
        <pt x="12" y="323" on="1"/>
        <pt x="121" y="382" on="1"/>
        <pt x="123" y="690" on="1"/>
        <pt x="198" y="702" on="1"/>
        <pt x="198" y="424" on="1"/>
        <pt x="338" y="500" on="1"/>
        <pt x="356" y="486" on="0"/>
        <pt x="356" y="466" on="1"/>
        <pt x="198" y="380" on="1"/>
      </contour>
    </TTGlyph>
    <TTGlyph name="M" xMin="93" yMin="0" xMax="733" yMax="690">
      <contour>
        <pt x="211" y="615" on="1"/>
        <pt x="215" y="611" on="0"/>
        <pt x="215" y="562" on="0"/>
        <pt x="214" y="543" on="1"/>
        <pt x="168" y="0" on="1"/>
        <pt x="93" y="0" on="1"/>
        <pt x="153" y="690" on="1"/>
        <pt x="262" y="690" on="1"/>
        <pt x="402" y="238" on="1"/>
        <pt x="410" y="212" on="0"/>
        <pt x="412" y="181" on="1"/>
        <pt x="418" y="181" on="1"/>
        <pt x="419" y="208" on="0"/>
        <pt x="428" y="238" on="1"/>
        <pt x="569" y="690" on="1"/>
        <pt x="677" y="690" on="1"/>
        <pt x="733" y="0" on="1"/>
        <pt x="658" y="0" on="1"/>
        <pt x="615" y="560" on="0"/>
        <pt x="615" y="599" on="0"/>
        <pt x="619" y="615" on="1"/>
        <pt x="613" y="615" on="1"/>
        <pt x="453" y="101" on="1"/>
        <pt x="378" y="92" on="1"/>
        <pt x="217" y="615" on="1"/>
      </contour>
    </TTGlyph>
    <TTGlyph name="N" xMin="110" yMin="0" xMax="570" yMax="690">
      <contour>
        <pt x="495" y="162" on="1"/>
        <pt x="495" y="690" on="1"/>
        <pt x="570" y="690" on="1"/>
        <pt x="567" y="0" on="1"/>
        <pt x="466" y="0" on="1"/>
        <pt x="203" y="559" on="1"/>
        <pt x="181" y="610" on="1"/>
        <pt x="176" y="609" on="1"/>
        <pt x="185" y="588" on="0"/>
        <pt x="185" y="528" on="1"/>
        <pt x="185" y="0" on="1"/>
        <pt x="110" y="0" on="1"/>
        <pt x="113" y="690" on="1"/>
        <pt x="214" y="690" on="1"/>
        <pt x="477" y="131" on="1"/>
        <pt x="499" y="80" on="1"/>
        <pt x="504" y="81" on="1"/>
        <pt x="495" y="102" on="0"/>
      </contour>
    </TTGlyph>
    <TTGlyph name="Nacute" xMin="120" yMin="0" xMax="580" yMax="846">
      <contour>
        <pt x="464" y="838" on="1"/>
        <pt x="481" y="795" on="1"/>
        <pt x="322" y="723" on="1"/>
        <pt x="300" y="751" on="1"/>
        <pt x="382" y="812" on="1"/>
        <pt x="426" y="846" on="0"/>
        <pt x="456" y="846" on="0"/>
      </contour>
      <contour>
        <pt x="505" y="162" on="1"/>
        <pt x="505" y="690" on="1"/>
        <pt x="580" y="690" on="1"/>
        <pt x="577" y="0" on="1"/>
        <pt x="476" y="0" on="1"/>
        <pt x="213" y="559" on="1"/>
        <pt x="191" y="610" on="1"/>
        <pt x="186" y="609" on="1"/>
        <pt x="195" y="588" on="0"/>
        <pt x="195" y="528" on="1"/>
        <pt x="195" y="0" on="1"/>
        <pt x="120" y="0" on="1"/>
        <pt x="123" y="690" on="1"/>
        <pt x="224" y="690" on="1"/>
        <pt x="487" y="131" on="1"/>
        <pt x="509" y="80" on="1"/>
        <pt x="514" y="81" on="1"/>
        <pt x="505" y="102" on="0"/>
      </contour>
    </TTGlyph>
    <TTGlyph name="Ntilde" xMin="120" yMin="0" xMax="580" yMax="838">
      <contour>
        <pt x="505" y="162" on="1"/>
        <pt x="505" y="690" on="1"/>
        <pt x="580" y="690" on="1"/>
        <pt x="577" y="0" on="1"/>
        <pt x="476" y="0" on="1"/>
        <pt x="213" y="559" on="1"/>
        <pt x="191" y="610" on="1"/>
        <pt x="186" y="609" on="1"/>
        <pt x="195" y="588" on="0"/>
        <pt x="195" y="528" on="1"/>
        <pt x="195" y="0" on="1"/>
        <pt x="120" y="0" on="1"/>
        <pt x="123" y="690" on="1"/>
        <pt x="224" y="690" on="1"/>
        <pt x="487" y="131" on="1"/>
        <pt x="509" y="80" on="1"/>
        <pt x="514" y="81" on="1"/>
        <pt x="505" y="102" on="0"/>
      </contour>
      <contour>
        <pt x="214" y="798" on="0"/>
        <pt x="257" y="838" on="0"/>
        <pt x="284" y="838" on="1"/>
        <pt x="312" y="838" on="0"/>
        <pt x="354" y="821" on="1"/>
        <pt x="412" y="798" on="0"/>
        <pt x="424" y="798" on="1"/>
        <pt x="452" y="798" on="0"/>
        <pt x="475" y="831" on="1"/>
        <pt x="505" y="815" on="1"/>
        <pt x="496" y="777" on="0"/>
        <pt x="453" y="738" on="0"/>
        <pt x="403" y="738" on="0"/>
        <pt x="297" y="778" on="0"/>
        <pt x="288" y="778" on="1"/>
        <pt x="259" y="778" on="0"/>
        <pt x="235" y="745" on="1"/>
        <pt x="205" y="761" on="1"/>
      </contour>
    </TTGlyph>
    <TTGlyph name="O" xMin="70" yMin="-12" xMax="617" yMax="702">
      <contour>
        <pt x="337" y="51" on="1"/>
        <pt x="393" y="51" on="0"/>
        <pt x="474" y="104" on="0"/>
        <pt x="496" y="150" on="1"/>
        <pt x="539" y="238" on="0"/>
        <pt x="539" y="365" on="1"/>
        <pt x="539" y="518" on="0"/>
        <pt x="482" y="584" on="1"/>
        <pt x="438" y="636" on="0"/>
        <pt x="352" y="636" on="1"/>
        <pt x="298" y="636" on="0"/>
        <pt x="217" y="586" on="0"/>
        <pt x="194" y="543" on="1"/>
        <pt x="150" y="458" on="0"/>
        <pt x="150" y="339" on="1"/>
        <pt x="150" y="51" on="0"/>
      </contour>
      <contour>
        <pt x="328" y="-12" on="1"/>
        <pt x="262" y="-12" on="0"/>
        <pt x="156" y="38" on="0"/>
        <pt x="126" y="86" on="1"/>
        <pt x="70" y="177" on="0"/>
        <pt x="70" y="339" on="1"/>
        <pt x="70" y="554" on="0"/>
        <pt x="193" y="651" on="1"/>
        <pt x="258" y="702" on="0"/>
        <pt x="352" y="702" on="1"/>
        <pt x="495" y="702" on="0"/>
        <pt x="617" y="526" on="0"/>
        <pt x="617" y="364" on="1"/>
        <pt x="617" y="169" on="0"/>
        <pt x="521" y="64" on="1"/>
        <pt x="452" y="-12" on="0"/>
      </contour>
    </TTGlyph>
    <TTGlyph name="OE" xMin="70" yMin="-12" xMax="791" yMax="702">
      <contour>
        <pt x="520" y="154" on="1"/>
        <pt x="520" y="101" on="0"/>
        <pt x="514" y="65" on="1"/>
        <pt x="791" y="65" on="1"/>
        <pt x="788" y="0" on="1"/>
        <pt x="442" y="0" on="1"/>
        <pt x="404" y="-12" on="0"/>
        <pt x="341" y="-12" on="1"/>
        <pt x="195" y="-12" on="0"/>
        <pt x="70" y="172" on="0"/>
        <pt x="70" y="339" on="1"/>
        <pt x="70" y="554" on="0"/>
        <pt x="193" y="651" on="1"/>
        <pt x="258" y="702" on="0"/>
        <pt x="352" y="702" on="1"/>
        <pt x="402" y="702" on="0"/>
        <pt x="445" y="690" on="1"/>
        <pt x="791" y="690" on="1"/>
        <pt x="788" y="625" on="1"/>
        <pt x="519" y="625" on="1"/>
        <pt x="522" y="596" on="0"/>
        <pt x="522" y="536" on="1"/>
        <pt x="520" y="405" on="1"/>
        <pt x="760" y="405" on="1"/>
        <pt x="760" y="340" on="1"/>
        <pt x="520" y="340" on="1"/>
      </contour>
      <contour>
        <pt x="406" y="636" on="0"/>
        <pt x="298" y="636" on="0"/>
        <pt x="217" y="586" on="0"/>
        <pt x="194" y="543" on="1"/>
        <pt x="150" y="458" on="0"/>
        <pt x="150" y="339" on="1"/>
        <pt x="150" y="218" on="0"/>
        <pt x="189" y="140" on="1"/>
        <pt x="234" y="51" on="0"/>
        <pt x="341" y="51" on="1"/>
        <pt x="401" y="51" on="0"/>
        <pt x="442" y="69" on="1"/>
        <pt x="444" y="621" on="1"/>
      </contour>
    </TTGlyph>
    <TTGlyph name="Oacute" xMin="73" yMin="-12" xMax="620" yMax="851">
      <contour>
        <pt x="340" y="51" on="1"/>
        <pt x="396" y="51" on="0"/>
        <pt x="477" y="104" on="0"/>
        <pt x="500" y="150" on="1"/>
        <pt x="542" y="238" on="0"/>
        <pt x="542" y="365" on="1"/>
        <pt x="542" y="518" on="0"/>
        <pt x="486" y="584" on="1"/>
        <pt x="441" y="636" on="0"/>
        <pt x="355" y="636" on="1"/>
        <pt x="301" y="636" on="0"/>
        <pt x="220" y="586" on="0"/>
        <pt x="198" y="543" on="1"/>
        <pt x="153" y="458" on="0"/>
        <pt x="153" y="339" on="1"/>
        <pt x="153" y="51" on="0"/>
      </contour>
      <contour>
        <pt x="331" y="-12" on="1"/>
        <pt x="265" y="-12" on="0"/>
        <pt x="159" y="38" on="0"/>
        <pt x="129" y="86" on="1"/>
        <pt x="73" y="177" on="0"/>
        <pt x="73" y="339" on="1"/>
        <pt x="73" y="554" on="0"/>
        <pt x="196" y="651" on="1"/>
        <pt x="261" y="702" on="0"/>
        <pt x="355" y="702" on="1"/>
        <pt x="498" y="702" on="0"/>
        <pt x="620" y="526" on="0"/>
        <pt x="620" y="364" on="1"/>
        <pt x="620" y="169" on="0"/>
        <pt x="524" y="64" on="1"/>
        <pt x="455" y="-12" on="0"/>
      </contour>
      <contour>
        <pt x="456" y="843" on="1"/>
        <pt x="473" y="800" on="1"/>
        <pt x="314" y="728" on="1"/>
        <pt x="292" y="756" on="1"/>
        <pt x="374" y="817" on="1"/>
        <pt x="418" y="851" on="0"/>
        <pt x="448" y="851" on="0"/>
      </contour>
    </TTGlyph>
    <TTGlyph name="Ocircumflex" xMin="73" yMin="-12" xMax="620" yMax="843">
      <contour>
        <pt x="340" y="51" on="1"/>
        <pt x="396" y="51" on="0"/>
        <pt x="477" y="104" on="0"/>
        <pt x="500" y="150" on="1"/>
        <pt x="542" y="238" on="0"/>
        <pt x="542" y="365" on="1"/>
        <pt x="542" y="518" on="0"/>
        <pt x="486" y="584" on="1"/>
        <pt x="441" y="636" on="0"/>
        <pt x="355" y="636" on="1"/>
        <pt x="301" y="636" on="0"/>
        <pt x="220" y="586" on="0"/>
        <pt x="198" y="543" on="1"/>
        <pt x="153" y="458" on="0"/>
        <pt x="153" y="339" on="1"/>
        <pt x="153" y="51" on="0"/>
      </contour>
      <contour>
        <pt x="331" y="-12" on="1"/>
        <pt x="265" y="-12" on="0"/>
        <pt x="159" y="38" on="0"/>
        <pt x="129" y="86" on="1"/>
        <pt x="73" y="177" on="0"/>
        <pt x="73" y="339" on="1"/>
        <pt x="73" y="554" on="0"/>
        <pt x="196" y="651" on="1"/>
        <pt x="261" y="702" on="0"/>
        <pt x="355" y="702" on="1"/>
        <pt x="498" y="702" on="0"/>
        <pt x="620" y="526" on="0"/>
        <pt x="620" y="364" on="1"/>
        <pt x="620" y="169" on="0"/>
        <pt x="524" y="64" on="1"/>
        <pt x="455" y="-12" on="0"/>
      </contour>
      <contour>
        <pt x="255" y="725" on="1"/>
        <pt x="233" y="753" on="1"/>
        <pt x="302" y="834" on="1"/>
        <pt x="373" y="843" on="1"/>
        <pt x="388" y="836" on="0"/>
        <pt x="404" y="817" on="1"/>
        <pt x="459" y="753" on="1"/>
        <pt x="437" y="725" on="1"/>
        <pt x="346" y="793" on="1"/>
      </contour>
    </TTGlyph>
    <TTGlyph name="Odieresis" xMin="73" yMin="-12" xMax="620" yMax="831">
      <contour>
        <pt x="340" y="51" on="1"/>
        <pt x="396" y="51" on="0"/>
        <pt x="477" y="104" on="0"/>
        <pt x="500" y="150" on="1"/>
        <pt x="542" y="238" on="0"/>
        <pt x="542" y="365" on="1"/>
        <pt x="542" y="518" on="0"/>
        <pt x="486" y="584" on="1"/>
        <pt x="441" y="636" on="0"/>
        <pt x="355" y="636" on="1"/>
        <pt x="301" y="636" on="0"/>
        <pt x="220" y="586" on="0"/>
        <pt x="198" y="543" on="1"/>
        <pt x="153" y="458" on="0"/>
        <pt x="153" y="339" on="1"/>
        <pt x="153" y="51" on="0"/>
      </contour>
      <contour>
        <pt x="331" y="-12" on="1"/>
        <pt x="265" y="-12" on="0"/>
        <pt x="159" y="38" on="0"/>
        <pt x="129" y="86" on="1"/>
        <pt x="73" y="177" on="0"/>
        <pt x="73" y="339" on="1"/>
        <pt x="73" y="554" on="0"/>
        <pt x="196" y="651" on="1"/>
        <pt x="261" y="702" on="0"/>
        <pt x="355" y="702" on="1"/>
        <pt x="498" y="702" on="0"/>
        <pt x="620" y="526" on="0"/>
        <pt x="620" y="364" on="1"/>
        <pt x="620" y="169" on="0"/>
        <pt x="524" y="64" on="1"/>
        <pt x="455" y="-12" on="0"/>
      </contour>
      <contour>
        <pt x="235" y="787" on="1"/>
        <pt x="235" y="831" on="0"/>
        <pt x="278" y="831" on="1"/>
        <pt x="296" y="831" on="0"/>
        <pt x="317" y="808" on="0"/>
        <pt x="317" y="769" on="0"/>
        <pt x="295" y="746" on="0"/>
        <pt x="257" y="746" on="0"/>
        <pt x="235" y="768" on="0"/>
      </contour>
      <contour>
        <pt x="395" y="787" on="1"/>
        <pt x="395" y="831" on="0"/>
        <pt x="438" y="831" on="1"/>
        <pt x="456" y="831" on="0"/>
        <pt x="477" y="808" on="0"/>
        <pt x="477" y="769" on="0"/>
        <pt x="455" y="746" on="0"/>
        <pt x="417" y="746" on="0"/>
        <pt x="395" y="768" on="0"/>
      </contour>
    </TTGlyph>
    <TTGlyph name="Ograve" xMin="73" yMin="-12" xMax="620" yMax="851">
      <contour>
        <pt x="340" y="51" on="1"/>
        <pt x="396" y="51" on="0"/>
        <pt x="477" y="104" on="0"/>
        <pt x="500" y="150" on="1"/>
        <pt x="542" y="238" on="0"/>
        <pt x="542" y="365" on="1"/>
        <pt x="542" y="518" on="0"/>
        <pt x="486" y="584" on="1"/>
        <pt x="441" y="636" on="0"/>
        <pt x="355" y="636" on="1"/>
        <pt x="301" y="636" on="0"/>
        <pt x="220" y="586" on="0"/>
        <pt x="198" y="543" on="1"/>
        <pt x="153" y="458" on="0"/>
        <pt x="153" y="339" on="1"/>
        <pt x="153" y="51" on="0"/>
      </contour>
      <contour>
        <pt x="331" y="-12" on="1"/>
        <pt x="265" y="-12" on="0"/>
        <pt x="159" y="38" on="0"/>
        <pt x="129" y="86" on="1"/>
        <pt x="73" y="177" on="0"/>
        <pt x="73" y="339" on="1"/>
        <pt x="73" y="554" on="0"/>
        <pt x="196" y="651" on="1"/>
        <pt x="261" y="702" on="0"/>
        <pt x="355" y="702" on="1"/>
        <pt x="498" y="702" on="0"/>
        <pt x="620" y="526" on="0"/>
        <pt x="620" y="364" on="1"/>
        <pt x="620" y="169" on="0"/>
        <pt x="524" y="64" on="1"/>
        <pt x="455" y="-12" on="0"/>
      </contour>
      <contour>
        <pt x="252" y="843" on="1"/>
        <pt x="258" y="851" on="0"/>
        <pt x="290" y="851" on="0"/>
        <pt x="334" y="817" on="1"/>
        <pt x="416" y="756" on="1"/>
        <pt x="394" y="728" on="1"/>
        <pt x="235" y="800" on="1"/>
      </contour>
    </TTGlyph>
    <TTGlyph name="Oslash" xMin="70" yMin="-74" xMax="617" yMax="750">
      <contour>
        <pt x="70" y="339" on="1"/>
        <pt x="70" y="554" on="0"/>
        <pt x="193" y="651" on="1"/>
        <pt x="258" y="702" on="0"/>
        <pt x="352" y="702" on="1"/>
        <pt x="410" y="702" on="0"/>
        <pt x="453" y="687" on="1"/>
        <pt x="478" y="750" on="1"/>
        <pt x="500" y="748" on="0"/>
        <pt x="515" y="735" on="1"/>
        <pt x="489" y="672" on="1"/>
        <pt x="617" y="603" on="0"/>
        <pt x="617" y="364" on="1"/>
        <pt x="617" y="169" on="0"/>
        <pt x="521" y="64" on="1"/>
        <pt x="489" y="29" on="0"/>
        <pt x="394" y="-12" on="0"/>
        <pt x="275" y="-12" on="0"/>
        <pt x="224" y="7" on="1"/>
        <pt x="192" y="-74" on="1"/>
        <pt x="170" y="-72" on="0"/>
        <pt x="155" y="-59" on="1"/>
        <pt x="188" y="25" on="1"/>
        <pt x="70" y="99" on="0"/>
      </contour>
      <contour>
        <pt x="250" y="72" on="1"/>
        <pt x="286" y="51" on="0"/>
        <pt x="393" y="51" on="0"/>
        <pt x="474" y="104" on="0"/>
        <pt x="496" y="150" on="1"/>
        <pt x="539" y="238" on="0"/>
        <pt x="539" y="365" on="1"/>
        <pt x="539" y="542" on="0"/>
        <pt x="462" y="602" on="1"/>
      </contour>
      <contour>
        <pt x="150" y="339" on="1"/>
        <pt x="150" y="167" on="0"/>
        <pt x="217" y="97" on="1"/>
        <pt x="427" y="622" on="1"/>
        <pt x="394" y="636" on="0"/>
        <pt x="298" y="636" on="0"/>
        <pt x="217" y="586" on="0"/>
        <pt x="194" y="543" on="1"/>
        <pt x="150" y="458" on="0"/>
      </contour>
    </TTGlyph>
    <TTGlyph name="Otilde" xMin="73" yMin="-12" xMax="620" yMax="850">
      <contour>
        <pt x="340" y="51" on="1"/>
        <pt x="396" y="51" on="0"/>
        <pt x="477" y="104" on="0"/>
        <pt x="500" y="150" on="1"/>
        <pt x="542" y="238" on="0"/>
        <pt x="542" y="365" on="1"/>
        <pt x="542" y="518" on="0"/>
        <pt x="486" y="584" on="1"/>
        <pt x="441" y="636" on="0"/>
        <pt x="355" y="636" on="1"/>
        <pt x="301" y="636" on="0"/>
        <pt x="220" y="586" on="0"/>
        <pt x="198" y="543" on="1"/>
        <pt x="153" y="458" on="0"/>
        <pt x="153" y="339" on="1"/>
        <pt x="153" y="51" on="0"/>
      </contour>
      <contour>
        <pt x="331" y="-12" on="1"/>
        <pt x="265" y="-12" on="0"/>
        <pt x="159" y="38" on="0"/>
        <pt x="129" y="86" on="1"/>
        <pt x="73" y="177" on="0"/>
        <pt x="73" y="339" on="1"/>
        <pt x="73" y="554" on="0"/>
        <pt x="196" y="651" on="1"/>
        <pt x="261" y="702" on="0"/>
        <pt x="355" y="702" on="1"/>
        <pt x="498" y="702" on="0"/>
        <pt x="620" y="526" on="0"/>
        <pt x="620" y="364" on="1"/>
        <pt x="620" y="169" on="0"/>
        <pt x="524" y="64" on="1"/>
        <pt x="455" y="-12" on="0"/>
      </contour>
      <contour>
        <pt x="205" y="810" on="0"/>
        <pt x="248" y="850" on="0"/>
        <pt x="275" y="850" on="1"/>
        <pt x="303" y="850" on="0"/>
        <pt x="346" y="833" on="1"/>
        <pt x="403" y="810" on="0"/>
        <pt x="415" y="810" on="1"/>
        <pt x="443" y="810" on="0"/>
        <pt x="466" y="843" on="1"/>
        <pt x="496" y="827" on="1"/>
        <pt x="487" y="789" on="0"/>
        <pt x="444" y="750" on="0"/>
        <pt x="417" y="750" on="1"/>
        <pt x="387" y="750" on="0"/>
        <pt x="322" y="777" on="1"/>
        <pt x="290" y="790" on="0"/>
        <pt x="279" y="790" on="1"/>
        <pt x="250" y="790" on="0"/>
        <pt x="226" y="757" on="1"/>
        <pt x="196" y="773" on="1"/>
      </contour>
    </TTGlyph>
    <TTGlyph name="P" xMin="110" yMin="0" xMax="503" yMax="694">
      <contour>
        <pt x="300" y="694" on="1"/>
        <pt x="391" y="694" on="0"/>
        <pt x="503" y="601" on="0"/>
        <pt x="503" y="515" on="1"/>
        <pt x="503" y="319" on="0"/>
        <pt x="248" y="316" on="1"/>
        <pt x="188" y="315" on="1"/>
        <pt x="188" y="0" on="1"/>
        <pt x="110" y="0" on="1"/>
        <pt x="113" y="682" on="1"/>
        <pt x="175" y="694" on="0"/>
      </contour>
      <contour>
        <pt x="286" y="629" on="1"/>
        <pt x="210" y="629" on="0"/>
        <pt x="188" y="625" on="1"/>
        <pt x="188" y="377" on="1"/>
        <pt x="250" y="378" on="1"/>
        <pt x="423" y="381" on="0"/>
        <pt x="423" y="510" on="1"/>
        <pt x="423" y="629" on="0"/>
      </contour>
    </TTGlyph>
    <TTGlyph name="Q" xMin="70" yMin="-125" xMax="635" yMax="702">
      <contour>
        <pt x="337" y="-12" on="1"/>
        <pt x="187" y="-12" on="0"/>
        <pt x="126" y="86" on="1"/>
        <pt x="70" y="177" on="0"/>
        <pt x="70" y="339" on="1"/>
        <pt x="70" y="554" on="0"/>
        <pt x="193" y="651" on="1"/>
        <pt x="258" y="702" on="0"/>
        <pt x="352" y="702" on="1"/>
        <pt x="495" y="702" on="0"/>
        <pt x="617" y="526" on="0"/>
        <pt x="617" y="364" on="1"/>
        <pt x="617" y="246" on="0"/>
        <pt x="539" y="59" on="0"/>
        <pt x="461" y="17" on="1"/>
        <pt x="466" y="11" on="1"/>
        <pt x="514" y="-56" on="0"/>
        <pt x="573" y="-56" on="1"/>
        <pt x="574" y="-56" on="0"/>
        <pt x="597" y="-56" on="0"/>
        <pt x="616" y="-46" on="1"/>
        <pt x="635" y="-97" on="1"/>
        <pt x="591" y="-125" on="0"/>
        <pt x="549" y="-125" on="1"/>
        <pt x="468" y="-125" on="0"/>
        <pt x="415" y="-46" on="1"/>
        <pt x="389" y="-7" on="1"/>
        <pt x="362" y="-12" on="0"/>
      </contour>
      <contour>
        <pt x="337" y="51" on="1"/>
        <pt x="393" y="51" on="0"/>
        <pt x="474" y="104" on="0"/>
        <pt x="496" y="150" on="1"/>
        <pt x="539" y="238" on="0"/>
        <pt x="539" y="365" on="1"/>
        <pt x="539" y="518" on="0"/>
        <pt x="482" y="584" on="1"/>
        <pt x="438" y="636" on="0"/>
        <pt x="352" y="636" on="1"/>
        <pt x="298" y="636" on="0"/>
        <pt x="217" y="586" on="0"/>
        <pt x="194" y="543" on="1"/>
        <pt x="150" y="458" on="0"/>
        <pt x="150" y="339" on="1"/>
        <pt x="150" y="51" on="0"/>
      </contour>
    </TTGlyph>
    <TTGlyph name="R" xMin="110" yMin="-7" xMax="553" yMax="694">
      <contour>
        <pt x="113" y="682" on="1"/>
        <pt x="202" y="694" on="0"/>
        <pt x="391" y="694" on="0"/>
        <pt x="503" y="600" on="0"/>
        <pt x="503" y="515" on="1"/>
        <pt x="503" y="370" on="0"/>
        <pt x="356" y="330" on="1"/>
        <pt x="456" y="133" on="1"/>
        <pt x="480" y="84" on="0"/>
        <pt x="521" y="45" on="0"/>
        <pt x="550" y="45" on="1"/>
        <pt x="553" y="-3" on="1"/>
        <pt x="549" y="-7" on="0"/>
        <pt x="478" y="-7" on="0"/>
        <pt x="422" y="44" on="0"/>
        <pt x="395" y="98" on="1"/>
        <pt x="283" y="318" on="1"/>
        <pt x="268" y="315" on="0"/>
        <pt x="248" y="315" on="1"/>
        <pt x="186" y="315" on="1"/>
        <pt x="186" y="0" on="1"/>
        <pt x="110" y="0" on="1"/>
      </contour>
      <contour>
        <pt x="186" y="378" on="1"/>
        <pt x="250" y="378" on="1"/>
        <pt x="423" y="378" on="0"/>
        <pt x="423" y="511" on="1"/>
        <pt x="423" y="628" on="0"/>
        <pt x="285" y="628" on="1"/>
        <pt x="229" y="628" on="0"/>
        <pt x="186" y="622" on="1"/>
      </contour>
    </TTGlyph>
    <TTGlyph name="Racute" xMin="120" yMin="-7" xMax="563" yMax="845">
      <contour>
        <pt x="123" y="682" on="1"/>
        <pt x="211" y="694" on="0"/>
        <pt x="401" y="694" on="0"/>
        <pt x="513" y="600" on="0"/>
        <pt x="513" y="515" on="1"/>
        <pt x="513" y="370" on="0"/>
        <pt x="366" y="330" on="1"/>
        <pt x="466" y="133" on="1"/>
        <pt x="490" y="84" on="0"/>
        <pt x="531" y="45" on="0"/>
        <pt x="560" y="45" on="1"/>
        <pt x="563" y="-3" on="1"/>
        <pt x="559" y="-7" on="0"/>
        <pt x="488" y="-7" on="0"/>
        <pt x="432" y="44" on="0"/>
        <pt x="405" y="98" on="1"/>
        <pt x="293" y="318" on="1"/>
        <pt x="278" y="315" on="0"/>
        <pt x="258" y="315" on="1"/>
        <pt x="196" y="315" on="1"/>
        <pt x="196" y="0" on="1"/>
        <pt x="120" y="0" on="1"/>
      </contour>
      <contour>
        <pt x="196" y="378" on="1"/>
        <pt x="260" y="378" on="1"/>
        <pt x="433" y="378" on="0"/>
        <pt x="433" y="511" on="1"/>
        <pt x="433" y="628" on="0"/>
        <pt x="295" y="628" on="1"/>
        <pt x="239" y="628" on="0"/>
        <pt x="196" y="622" on="1"/>
      </contour>
      <contour>
        <pt x="395" y="837" on="1"/>
        <pt x="412" y="794" on="1"/>
        <pt x="253" y="722" on="1"/>
        <pt x="231" y="750" on="1"/>
        <pt x="313" y="811" on="1"/>
        <pt x="357" y="845" on="0"/>
        <pt x="387" y="845" on="0"/>
      </contour>
    </TTGlyph>
    <TTGlyph name="Rcaron" xMin="120" yMin="-7" xMax="563" yMax="851">
      <contour>
        <pt x="123" y="682" on="1"/>
        <pt x="211" y="694" on="0"/>
        <pt x="401" y="694" on="0"/>
        <pt x="513" y="600" on="0"/>
        <pt x="513" y="515" on="1"/>
        <pt x="513" y="370" on="0"/>
        <pt x="366" y="330" on="1"/>
        <pt x="466" y="133" on="1"/>
        <pt x="490" y="84" on="0"/>
        <pt x="531" y="45" on="0"/>
        <pt x="560" y="45" on="1"/>
        <pt x="563" y="-3" on="1"/>
        <pt x="559" y="-7" on="0"/>
        <pt x="488" y="-7" on="0"/>
        <pt x="432" y="44" on="0"/>
        <pt x="405" y="98" on="1"/>
        <pt x="293" y="318" on="1"/>
        <pt x="278" y="315" on="0"/>
        <pt x="258" y="315" on="1"/>
        <pt x="196" y="315" on="1"/>
        <pt x="196" y="0" on="1"/>
        <pt x="120" y="0" on="1"/>
      </contour>
      <contour>
        <pt x="196" y="378" on="1"/>
        <pt x="260" y="378" on="1"/>
        <pt x="433" y="378" on="0"/>
        <pt x="433" y="511" on="1"/>
        <pt x="433" y="628" on="0"/>
        <pt x="295" y="628" on="1"/>
        <pt x="239" y="628" on="0"/>
        <pt x="196" y="622" on="1"/>
      </contour>
      <contour>
        <pt x="234" y="759" on="1"/>
        <pt x="179" y="823" on="1"/>
        <pt x="201" y="851" on="1"/>
        <pt x="292" y="783" on="1"/>
        <pt x="383" y="851" on="1"/>
        <pt x="405" y="823" on="1"/>
        <pt x="336" y="742" on="1"/>
        <pt x="265" y="733" on="1"/>
        <pt x="250" y="740" on="0"/>
      </contour>
    </TTGlyph>
    <TTGlyph name="Rcommaaccent" xMin="120" yMin="-171" xMax="563" yMax="694">
      <contour>
        <pt x="351" y="-29" on="1"/>
        <pt x="369" y="-41" on="0"/>
        <pt x="369" y="-81" on="0"/>
        <pt x="356" y="-105" on="1"/>
        <pt x="317" y="-171" on="1"/>
        <pt x="274" y="-149" on="1"/>
        <pt x="292" y="-88" on="1"/>
        <pt x="301" y="-55" on="0"/>
        <pt x="295" y="-29" on="1"/>
      </contour>
      <contour>
        <pt x="123" y="682" on="1"/>
        <pt x="211" y="694" on="0"/>
        <pt x="401" y="694" on="0"/>
        <pt x="513" y="600" on="0"/>
        <pt x="513" y="515" on="1"/>
        <pt x="513" y="370" on="0"/>
        <pt x="366" y="330" on="1"/>
        <pt x="466" y="133" on="1"/>
        <pt x="490" y="84" on="0"/>
        <pt x="531" y="45" on="0"/>
        <pt x="560" y="45" on="1"/>
        <pt x="563" y="-3" on="1"/>
        <pt x="559" y="-7" on="0"/>
        <pt x="488" y="-7" on="0"/>
        <pt x="432" y="44" on="0"/>
        <pt x="405" y="98" on="1"/>
        <pt x="293" y="318" on="1"/>
        <pt x="278" y="315" on="0"/>
        <pt x="258" y="315" on="1"/>
        <pt x="196" y="315" on="1"/>
        <pt x="196" y="0" on="1"/>
        <pt x="120" y="0" on="1"/>
      </contour>
      <contour>
        <pt x="196" y="378" on="1"/>
        <pt x="260" y="378" on="1"/>
        <pt x="433" y="378" on="0"/>
        <pt x="433" y="511" on="1"/>
        <pt x="433" y="628" on="0"/>
        <pt x="295" y="628" on="1"/>
        <pt x="239" y="628" on="0"/>
        <pt x="196" y="622" on="1"/>
      </contour>
    </TTGlyph>
    <TTGlyph name="S" xMin="37" yMin="-12" xMax="437" yMax="702">
      <contour>
        <pt x="53" y="107" on="1"/>
        <pt x="132" y="53" on="0"/>
        <pt x="279" y="53" on="0"/>
        <pt x="362" y="121" on="0"/>
        <pt x="362" y="181" on="1"/>
        <pt x="362" y="230" on="0"/>
        <pt x="332" y="258" on="1"/>
        <pt x="300" y="289" on="0"/>
        <pt x="232" y="320" on="1"/>
        <pt x="212" y="330" on="0"/>
        <pt x="204" y="334" on="1"/>
        <pt x="136" y="366" on="0"/>
        <pt x="61" y="450" on="0"/>
        <pt x="61" y="604" on="0"/>
        <pt x="176" y="702" on="0"/>
        <pt x="338" y="702" on="0"/>
        <pt x="405" y="673" on="1"/>
        <pt x="390" y="618" on="1"/>
        <pt x="330" y="638" on="0"/>
        <pt x="216" y="638" on="0"/>
        <pt x="138" y="579" on="0"/>
        <pt x="138" y="483" on="0"/>
        <pt x="165" y="454" on="1"/>
        <pt x="196" y="422" on="0"/>
        <pt x="275" y="386" on="1"/>
        <pt x="347" y="352" on="0"/>
        <pt x="373" y="329" on="1"/>
        <pt x="409" y="296" on="0"/>
        <pt x="418" y="276" on="1"/>
        <pt x="437" y="228" on="0"/>
        <pt x="437" y="185" on="1"/>
        <pt x="437" y="94" on="0"/>
        <pt x="312" y="-12" on="0"/>
        <pt x="117" y="-12" on="0"/>
        <pt x="37" y="54" on="1"/>
      </contour>
    </TTGlyph>
    <TTGlyph name="Scaron" xMin="37" yMin="-12" xMax="437" yMax="859">
      <contour>
        <pt x="53" y="107" on="1"/>
        <pt x="132" y="53" on="0"/>
        <pt x="279" y="53" on="0"/>
        <pt x="362" y="121" on="0"/>
        <pt x="362" y="181" on="1"/>
        <pt x="362" y="230" on="0"/>
        <pt x="332" y="258" on="1"/>
        <pt x="300" y="289" on="0"/>
        <pt x="232" y="320" on="1"/>
        <pt x="212" y="330" on="0"/>
        <pt x="204" y="334" on="1"/>
        <pt x="136" y="366" on="0"/>
        <pt x="61" y="450" on="0"/>
        <pt x="61" y="604" on="0"/>
        <pt x="176" y="702" on="0"/>
        <pt x="338" y="702" on="0"/>
        <pt x="405" y="673" on="1"/>
        <pt x="390" y="618" on="1"/>
        <pt x="330" y="638" on="0"/>
        <pt x="216" y="638" on="0"/>
        <pt x="138" y="579" on="0"/>
        <pt x="138" y="483" on="0"/>
        <pt x="165" y="454" on="1"/>
        <pt x="196" y="422" on="0"/>
        <pt x="275" y="386" on="1"/>
        <pt x="347" y="352" on="0"/>
        <pt x="373" y="329" on="1"/>
        <pt x="409" y="296" on="0"/>
        <pt x="418" y="276" on="1"/>
        <pt x="437" y="228" on="0"/>
        <pt x="437" y="185" on="1"/>
        <pt x="437" y="94" on="0"/>
        <pt x="312" y="-12" on="0"/>
        <pt x="117" y="-12" on="0"/>
        <pt x="37" y="54" on="1"/>
      </contour>
      <contour>
        <pt x="196" y="767" on="1"/>
        <pt x="141" y="831" on="1"/>
        <pt x="163" y="859" on="1"/>
        <pt x="254" y="791" on="1"/>
        <pt x="345" y="859" on="1"/>
        <pt x="367" y="831" on="1"/>
        <pt x="298" y="750" on="1"/>
        <pt x="227" y="741" on="1"/>
        <pt x="212" y="748" on="0"/>
      </contour>
    </TTGlyph>
    <TTGlyph name="T" xMin="10" yMin="0" xMax="443" yMax="690">
      <contour>
        <pt x="264" y="625" on="1"/>
        <pt x="264" y="0" on="1"/>
        <pt x="184" y="0" on="1"/>
        <pt x="187" y="625" on="1"/>
        <pt x="10" y="625" on="1"/>
        <pt x="13" y="690" on="1"/>
        <pt x="443" y="690" on="1"/>
        <pt x="435" y="625" on="1"/>
      </contour>
    </TTGlyph>
    <TTGlyph name="Thorn" xMin="120" yMin="0" xMax="513" yMax="690">
      <contour>
        <pt x="198" y="690" on="1"/>
        <pt x="198" y="596" on="1"/>
        <pt x="256" y="600" on="0"/>
        <pt x="310" y="600" on="1"/>
        <pt x="401" y="600" on="0"/>
        <pt x="513" y="507" on="0"/>
        <pt x="513" y="421" on="1"/>
        <pt x="513" y="225" on="0"/>
        <pt x="258" y="222" on="1"/>
        <pt x="198" y="221" on="1"/>
        <pt x="198" y="0" on="1"/>
        <pt x="120" y="0" on="1"/>
        <pt x="123" y="690" on="1"/>
      </contour>
      <contour>
        <pt x="296" y="535" on="1"/>
        <pt x="220" y="535" on="0"/>
        <pt x="198" y="531" on="1"/>
        <pt x="198" y="283" on="1"/>
        <pt x="260" y="284" on="1"/>
        <pt x="433" y="287" on="0"/>
        <pt x="433" y="416" on="1"/>
        <pt x="433" y="535" on="0"/>
      </contour>
    </TTGlyph>
    <TTGlyph name="U" xMin="99" yMin="-12" xMax="551" yMax="702">
      <contour>
        <pt x="170" y="147" on="0"/>
        <pt x="249" y="53" on="0"/>
        <pt x="400" y="53" on="0"/>
        <pt x="476" y="134" on="0"/>
        <pt x="476" y="211" on="1"/>
        <pt x="476" y="690" on="1"/>
        <pt x="549" y="690" on="1"/>
        <pt x="551" y="215" on="1"/>
        <pt x="552" y="106" on="0"/>
        <pt x="434" y="-12" on="0"/>
        <pt x="214" y="-12" on="0"/>
        <pt x="98" y="111" on="0"/>
        <pt x="99" y="225" on="1"/>
        <pt x="102" y="690" on="1"/>
        <pt x="174" y="702" on="1"/>
        <pt x="171" y="227" on="1"/>
      </contour>
    </TTGlyph>
    <TTGlyph name="Uacute" xMin="99" yMin="-12" xMax="551" yMax="846">
      <contour>
        <pt x="170" y="147" on="0"/>
        <pt x="249" y="53" on="0"/>
        <pt x="400" y="53" on="0"/>
        <pt x="476" y="134" on="0"/>
        <pt x="476" y="211" on="1"/>
        <pt x="476" y="690" on="1"/>
        <pt x="549" y="690" on="1"/>
        <pt x="551" y="215" on="1"/>
        <pt x="552" y="106" on="0"/>
        <pt x="434" y="-12" on="0"/>
        <pt x="214" y="-12" on="0"/>
        <pt x="98" y="111" on="0"/>
        <pt x="99" y="225" on="1"/>
        <pt x="102" y="690" on="1"/>
        <pt x="174" y="702" on="1"/>
        <pt x="171" y="227" on="1"/>
      </contour>
      <contour>
        <pt x="438" y="838" on="1"/>
        <pt x="455" y="795" on="1"/>
        <pt x="296" y="723" on="1"/>
        <pt x="274" y="751" on="1"/>
        <pt x="356" y="812" on="1"/>
        <pt x="400" y="846" on="0"/>
        <pt x="430" y="846" on="0"/>
      </contour>
    </TTGlyph>
    <TTGlyph name="Ucircumflex" xMin="99" yMin="-12" xMax="551" yMax="843">
      <contour>
        <pt x="170" y="147" on="0"/>
        <pt x="249" y="53" on="0"/>
        <pt x="400" y="53" on="0"/>
        <pt x="476" y="134" on="0"/>
        <pt x="476" y="211" on="1"/>
        <pt x="476" y="690" on="1"/>
        <pt x="549" y="690" on="1"/>
        <pt x="551" y="215" on="1"/>
        <pt x="552" y="106" on="0"/>
        <pt x="434" y="-12" on="0"/>
        <pt x="214" y="-12" on="0"/>
        <pt x="98" y="111" on="0"/>
        <pt x="99" y="225" on="1"/>
        <pt x="102" y="690" on="1"/>
        <pt x="174" y="702" on="1"/>
        <pt x="171" y="227" on="1"/>
      </contour>
      <contour>
        <pt x="239" y="725" on="1"/>
        <pt x="217" y="753" on="1"/>
        <pt x="286" y="834" on="1"/>
        <pt x="357" y="843" on="1"/>
        <pt x="372" y="836" on="0"/>
        <pt x="388" y="817" on="1"/>
        <pt x="443" y="753" on="1"/>
        <pt x="421" y="725" on="1"/>
        <pt x="330" y="793" on="1"/>
      </contour>
    </TTGlyph>
    <TTGlyph name="Udieresis" xMin="99" yMin="-12" xMax="551" yMax="831">
      <contour>
        <pt x="170" y="147" on="0"/>
        <pt x="249" y="53" on="0"/>
        <pt x="400" y="53" on="0"/>
        <pt x="476" y="134" on="0"/>
        <pt x="476" y="211" on="1"/>
        <pt x="476" y="690" on="1"/>
        <pt x="549" y="690" on="1"/>
        <pt x="551" y="215" on="1"/>
        <pt x="552" y="106" on="0"/>
        <pt x="434" y="-12" on="0"/>
        <pt x="214" y="-12" on="0"/>
        <pt x="98" y="111" on="0"/>
        <pt x="99" y="225" on="1"/>
        <pt x="102" y="690" on="1"/>
        <pt x="174" y="702" on="1"/>
        <pt x="171" y="227" on="1"/>
      </contour>
      <contour>
        <pt x="205" y="787" on="1"/>
        <pt x="205" y="831" on="0"/>
        <pt x="248" y="831" on="1"/>
        <pt x="266" y="831" on="0"/>
        <pt x="287" y="808" on="0"/>
        <pt x="287" y="769" on="0"/>
        <pt x="265" y="746" on="0"/>
        <pt x="227" y="746" on="0"/>
        <pt x="205" y="768" on="0"/>
      </contour>
      <contour>
        <pt x="365" y="787" on="1"/>
        <pt x="365" y="831" on="0"/>
        <pt x="408" y="831" on="1"/>
        <pt x="426" y="831" on="0"/>
        <pt x="447" y="808" on="0"/>
        <pt x="447" y="769" on="0"/>
        <pt x="425" y="746" on="0"/>
        <pt x="387" y="746" on="0"/>
        <pt x="365" y="768" on="0"/>
      </contour>
    </TTGlyph>
    <TTGlyph name="Ugrave" xMin="99" yMin="-12" xMax="551" yMax="846">
      <contour>
        <pt x="170" y="147" on="0"/>
        <pt x="249" y="53" on="0"/>
        <pt x="400" y="53" on="0"/>
        <pt x="476" y="134" on="0"/>
        <pt x="476" y="211" on="1"/>
        <pt x="476" y="690" on="1"/>
        <pt x="549" y="690" on="1"/>
        <pt x="551" y="215" on="1"/>
        <pt x="552" y="106" on="0"/>
        <pt x="434" y="-12" on="0"/>
        <pt x="214" y="-12" on="0"/>
        <pt x="98" y="111" on="0"/>
        <pt x="99" y="225" on="1"/>
        <pt x="102" y="690" on="1"/>
        <pt x="174" y="702" on="1"/>
        <pt x="171" y="227" on="1"/>
      </contour>
      <contour>
        <pt x="224" y="838" on="1"/>
        <pt x="230" y="846" on="0"/>
        <pt x="262" y="846" on="0"/>
        <pt x="306" y="812" on="1"/>
        <pt x="388" y="751" on="1"/>
        <pt x="366" y="723" on="1"/>
        <pt x="207" y="795" on="1"/>
      </contour>
    </TTGlyph>
    <TTGlyph name="V" xMin="14" yMin="-9" xMax="519" yMax="690">
      <contour>
        <pt x="258" y="88" on="1"/>
        <pt x="258" y="80" on="1"/>
        <pt x="264" y="80" on="1"/>
        <pt x="264" y="85" on="0"/>
        <pt x="264" y="112" on="0"/>
        <pt x="271" y="137" on="1"/>
        <pt x="439" y="690" on="1"/>
        <pt x="519" y="690" on="1"/>
        <pt x="296" y="0" on="1"/>
        <pt x="226" y="-9" on="1"/>
        <pt x="14" y="690" on="1"/>
        <pt x="94" y="690" on="1"/>
        <pt x="251" y="137" on="1"/>
        <pt x="258" y="114" on="0"/>
      </contour>
    </TTGlyph>
    <TTGlyph name="W" xMin="40" yMin="-9" xMax="815" yMax="690">
      <contour>
        <pt x="272" y="80" on="1"/>
        <pt x="272" y="117" on="0"/>
        <pt x="281" y="147" on="1"/>
        <pt x="402" y="528" on="1"/>
        <pt x="363" y="690" on="1"/>
        <pt x="439" y="690" on="1"/>
        <pt x="569" y="137" on="1"/>
        <pt x="578" y="80" on="1"/>
        <pt x="584" y="80" on="1"/>
        <pt x="584" y="85" on="0"/>
        <pt x="584" y="130" on="0"/>
        <pt x="591" y="157" on="1"/>
        <pt x="735" y="690" on="1"/>
        <pt x="815" y="690" on="1"/>
        <pt x="617" y="0" on="1"/>
        <pt x="534" y="-9" on="1"/>
        <pt x="433" y="414" on="1"/>
        <pt x="427" y="414" on="1"/>
        <pt x="428" y="411" on="0"/>
        <pt x="428" y="388" on="0"/>
        <pt x="415" y="345" on="1"/>
        <pt x="307" y="0" on="1"/>
        <pt x="225" y="-9" on="1"/>
        <pt x="40" y="690" on="1"/>
        <pt x="120" y="690" on="1"/>
        <pt x="257" y="137" on="1"/>
        <pt x="266" y="80" on="1"/>
      </contour>
    </TTGlyph>
    <TTGlyph name="X" xMin="30" yMin="0" xMax="535" yMax="699">
      <contour>
        <pt x="30" y="0" on="1"/>
        <pt x="233" y="365" on="1"/>
        <pt x="60" y="690" on="1"/>
        <pt x="140" y="699" on="1"/>
        <pt x="288" y="410" on="1"/>
        <pt x="440" y="690" on="1"/>
        <pt x="525" y="690" on="1"/>
        <pt x="335" y="365" on="1"/>
        <pt x="535" y="0" on="1"/>
        <pt x="450" y="0" on="1"/>
        <pt x="284" y="315" on="1"/>
        <pt x="115" y="0" on="1"/>
      </contour>
    </TTGlyph>
    <TTGlyph name="Y" xMin="12" yMin="0" xMax="477" yMax="699">
      <contour>
        <pt x="203" y="0" on="1"/>
        <pt x="203" y="310" on="1"/>
        <pt x="12" y="690" on="1"/>
        <pt x="87" y="699" on="1"/>
        <pt x="244" y="378" on="1"/>
        <pt x="397" y="690" on="1"/>
        <pt x="477" y="690" on="1"/>
        <pt x="278" y="310" on="1"/>
        <pt x="278" y="0" on="1"/>
      </contour>
    </TTGlyph>
    <TTGlyph name="Yacute" xMin="10" yMin="0" xMax="475" yMax="846">
      <contour>
        <pt x="201" y="0" on="1"/>
        <pt x="201" y="310" on="1"/>
        <pt x="10" y="690" on="1"/>
        <pt x="85" y="699" on="1"/>
        <pt x="242" y="378" on="1"/>
        <pt x="395" y="690" on="1"/>
        <pt x="475" y="690" on="1"/>
        <pt x="276" y="310" on="1"/>
        <pt x="276" y="0" on="1"/>
      </contour>
      <contour>
        <pt x="353" y="838" on="1"/>
        <pt x="370" y="795" on="1"/>
        <pt x="211" y="723" on="1"/>
        <pt x="189" y="751" on="1"/>
        <pt x="271" y="812" on="1"/>
        <pt x="315" y="846" on="0"/>
        <pt x="345" y="846" on="0"/>
      </contour>
    </TTGlyph>
    <TTGlyph name="Ydieresis" xMin="10" yMin="0" xMax="475" yMax="831">
      <contour>
        <pt x="201" y="0" on="1"/>
        <pt x="201" y="310" on="1"/>
        <pt x="10" y="690" on="1"/>
        <pt x="85" y="699" on="1"/>
        <pt x="242" y="378" on="1"/>
        <pt x="395" y="690" on="1"/>
        <pt x="475" y="690" on="1"/>
        <pt x="276" y="310" on="1"/>
        <pt x="276" y="0" on="1"/>
      </contour>
      <contour>
        <pt x="126" y="787" on="1"/>
        <pt x="126" y="831" on="0"/>
        <pt x="169" y="831" on="1"/>
        <pt x="187" y="831" on="0"/>
        <pt x="208" y="808" on="0"/>
        <pt x="208" y="769" on="0"/>
        <pt x="186" y="746" on="0"/>
        <pt x="148" y="746" on="0"/>
        <pt x="126" y="768" on="0"/>
      </contour>
      <contour>
        <pt x="286" y="787" on="1"/>
        <pt x="286" y="831" on="0"/>
        <pt x="329" y="831" on="1"/>
        <pt x="347" y="831" on="0"/>
        <pt x="368" y="808" on="0"/>
        <pt x="368" y="769" on="0"/>
        <pt x="346" y="746" on="0"/>
        <pt x="308" y="746" on="0"/>
        <pt x="286" y="768" on="0"/>
      </contour>
    </TTGlyph>
    <TTGlyph name="Z" xMin="20" yMin="0" xMax="456" yMax="690">
      <contour>
        <pt x="20" y="0" on="1"/>
        <pt x="20" y="27" on="1"/>
        <pt x="349" y="623" on="1"/>
        <pt x="349" y="631" on="1"/>
        <pt x="319" y="628" on="0"/>
        <pt x="40" y="621" on="1"/>
        <pt x="36" y="690" on="1"/>
        <pt x="456" y="690" on="1"/>
        <pt x="456" y="663" on="1"/>
        <pt x="127" y="67" on="1"/>
        <pt x="127" y="59" on="1"/>
        <pt x="158" y="62" on="0"/>
        <pt x="443" y="69" on="1"/>
        <pt x="443" y="0" on="1"/>
      </contour>
    </TTGlyph>
    <TTGlyph name="Zcaron" xMin="20" yMin="0" xMax="456" yMax="851">
      <contour>
        <pt x="20" y="0" on="1"/>
        <pt x="20" y="27" on="1"/>
        <pt x="349" y="623" on="1"/>
        <pt x="349" y="631" on="1"/>
        <pt x="319" y="628" on="0"/>
        <pt x="40" y="621" on="1"/>
        <pt x="36" y="690" on="1"/>
        <pt x="456" y="690" on="1"/>
        <pt x="456" y="663" on="1"/>
        <pt x="127" y="67" on="1"/>
        <pt x="127" y="59" on="1"/>
        <pt x="158" y="62" on="0"/>
        <pt x="443" y="69" on="1"/>
        <pt x="443" y="0" on="1"/>
      </contour>
      <contour>
        <pt x="195" y="759" on="1"/>
        <pt x="140" y="823" on="1"/>
        <pt x="162" y="851" on="1"/>
        <pt x="253" y="783" on="1"/>
        <pt x="344" y="851" on="1"/>
        <pt x="366" y="823" on="1"/>
        <pt x="297" y="742" on="1"/>
        <pt x="226" y="733" on="1"/>
        <pt x="211" y="740" on="0"/>
      </contour>
    </TTGlyph>
    <TTGlyph name="a" xMin="55" yMin="-12" xMax="509" yMax="482">
      <contour>
        <pt x="365" y="341" on="1"/>
        <pt x="365" y="414" on="1"/>
        <pt x="336" y="429" on="0"/>
        <pt x="278" y="429" on="1"/>
        <pt x="130" y="429" on="0"/>
        <pt x="130" y="206" on="1"/>
        <pt x="130" y="43" on="0"/>
        <pt x="229" y="43" on="1"/>
        <pt x="271" y="43" on="0"/>
        <pt x="328" y="100" on="0"/>
        <pt x="342" y="149" on="1"/>
        <pt x="365" y="234" on="0"/>
      </contour>
      <contour>
        <pt x="222" y="-12" on="1"/>
        <pt x="135" y="-12" on="0"/>
        <pt x="55" y="108" on="0"/>
        <pt x="55" y="329" on="0"/>
        <pt x="168" y="482" on="0"/>
        <pt x="278" y="482" on="1"/>
        <pt x="317" y="482" on="0"/>
        <pt x="394" y="466" on="0"/>
        <pt x="432" y="451" on="1"/>
        <pt x="432" y="197" on="1"/>
        <pt x="432" y="95" on="0"/>
        <pt x="450" y="68" on="1"/>
        <pt x="467" y="41" on="0"/>
        <pt x="507" y="41" on="1"/>
        <pt x="509" y="-4" on="1"/>
        <pt x="493" y="-8" on="0"/>
        <pt x="469" y="-8" on="1"/>
        <pt x="416" y="-8" on="0"/>
        <pt x="393" y="29" on="1"/>
        <pt x="376" y="56" on="0"/>
        <pt x="376" y="93" on="1"/>
        <pt x="376" y="105" on="0"/>
        <pt x="378" y="119" on="1"/>
        <pt x="372" y="119" on="1"/>
        <pt x="355" y="59" on="0"/>
        <pt x="280" y="-12" on="0"/>
      </contour>
    </TTGlyph>
    <TTGlyph name="aacute" xMin="55" yMin="-12" xMax="509" yMax="686">
      <contour>
        <pt x="278" y="429" on="1"/>
        <pt x="130" y="429" on="0"/>
        <pt x="130" y="206" on="1"/>
        <pt x="130" y="43" on="0"/>
        <pt x="229" y="43" on="1"/>
        <pt x="271" y="43" on="0"/>
        <pt x="328" y="100" on="0"/>
        <pt x="342" y="149" on="1"/>
        <pt x="365" y="234" on="0"/>
        <pt x="365" y="341" on="1"/>
        <pt x="365" y="414" on="1"/>
        <pt x="331" y="429" on="0"/>
      </contour>
      <contour>
        <pt x="376" y="93" on="1"/>
        <pt x="376" y="105" on="0"/>
        <pt x="378" y="119" on="1"/>
        <pt x="372" y="119" on="1"/>
        <pt x="355" y="59" on="0"/>
        <pt x="280" y="-12" on="0"/>
        <pt x="222" y="-12" on="1"/>
        <pt x="55" y="-12" on="0"/>
        <pt x="55" y="218" on="1"/>
        <pt x="55" y="329" on="0"/>
        <pt x="168" y="482" on="0"/>
        <pt x="278" y="482" on="1"/>
        <pt x="365" y="482" on="0"/>
        <pt x="432" y="451" on="1"/>
        <pt x="432" y="197" on="1"/>
        <pt x="432" y="164" on="0"/>
        <pt x="436" y="89" on="0"/>
        <pt x="450" y="68" on="1"/>
        <pt x="467" y="41" on="0"/>
        <pt x="507" y="41" on="1"/>
        <pt x="509" y="-4" on="1"/>
        <pt x="469" y="-8" on="1"/>
        <pt x="416" y="-8" on="0"/>
        <pt x="393" y="29" on="1"/>
        <pt x="376" y="56" on="0"/>
      </contour>
      <contour>
        <pt x="217" y="550" on="1"/>
        <pt x="276" y="633" on="1"/>
        <pt x="313" y="686" on="0"/>
        <pt x="334" y="686" on="1"/>
        <pt x="346" y="683" on="1"/>
        <pt x="376" y="648" on="1"/>
        <pt x="247" y="530" on="1"/>
      </contour>
    </TTGlyph>
    <TTGlyph name="acircumflex" xMin="55" yMin="-12" xMax="509" yMax="659">
      <contour>
        <pt x="278" y="429" on="1"/>
        <pt x="130" y="429" on="0"/>
        <pt x="130" y="206" on="1"/>
        <pt x="130" y="43" on="0"/>
        <pt x="229" y="43" on="1"/>
        <pt x="271" y="43" on="0"/>
        <pt x="328" y="100" on="0"/>
        <pt x="342" y="149" on="1"/>
        <pt x="365" y="234" on="0"/>
        <pt x="365" y="341" on="1"/>
        <pt x="365" y="414" on="1"/>
        <pt x="331" y="429" on="0"/>
      </contour>
      <contour>
        <pt x="376" y="93" on="1"/>
        <pt x="376" y="105" on="0"/>
        <pt x="378" y="119" on="1"/>
        <pt x="372" y="119" on="1"/>
        <pt x="355" y="59" on="0"/>
        <pt x="280" y="-12" on="0"/>
        <pt x="222" y="-12" on="1"/>
        <pt x="55" y="-12" on="0"/>
        <pt x="55" y="218" on="1"/>
        <pt x="55" y="329" on="0"/>
        <pt x="168" y="482" on="0"/>
        <pt x="278" y="482" on="1"/>
        <pt x="365" y="482" on="0"/>
        <pt x="432" y="451" on="1"/>
        <pt x="432" y="197" on="1"/>
        <pt x="432" y="164" on="0"/>
        <pt x="436" y="89" on="0"/>
        <pt x="450" y="68" on="1"/>
        <pt x="467" y="41" on="0"/>
        <pt x="507" y="41" on="1"/>
        <pt x="509" y="-4" on="1"/>
        <pt x="469" y="-8" on="1"/>
        <pt x="416" y="-8" on="0"/>
        <pt x="393" y="29" on="1"/>
        <pt x="376" y="56" on="0"/>
      </contour>
      <contour>
        <pt x="148" y="550" on="1"/>
        <pt x="221" y="650" on="1"/>
        <pt x="291" y="659" on="1"/>
        <pt x="312" y="652" on="0"/>
        <pt x="326" y="630" on="1"/>
        <pt x="382" y="550" on="1"/>
        <pt x="352" y="530" on="1"/>
        <pt x="265" y="609" on="1"/>
        <pt x="178" y="530" on="1"/>
      </contour>
    </TTGlyph>
    <TTGlyph name="acute" xMin="82" yMin="530" xMax="241" yMax="686">
      <contour>
        <pt x="82" y="550" on="1"/>
        <pt x="141" y="633" on="1"/>
        <pt x="178" y="686" on="0"/>
        <pt x="199" y="686" on="1"/>
        <pt x="211" y="683" on="1"/>
        <pt x="241" y="648" on="1"/>
        <pt x="112" y="530" on="1"/>
      </contour>
    </TTGlyph>
    <TTGlyph name="acute.cap" xMin="60" yMin="722" xMax="241" yMax="845">
      <contour>
        <pt x="224" y="837" on="1"/>
        <pt x="241" y="794" on="1"/>
        <pt x="82" y="722" on="1"/>
        <pt x="60" y="750" on="1"/>
        <pt x="142" y="811" on="1"/>
        <pt x="186" y="845" on="0"/>
        <pt x="216" y="845" on="0"/>
      </contour>
    </TTGlyph>
    <TTGlyph name="adieresis" xMin="55" yMin="-12" xMax="509" yMax="645">
      <contour>
        <pt x="278" y="429" on="1"/>
        <pt x="130" y="429" on="0"/>
        <pt x="130" y="206" on="1"/>
        <pt x="130" y="43" on="0"/>
        <pt x="229" y="43" on="1"/>
        <pt x="271" y="43" on="0"/>
        <pt x="328" y="100" on="0"/>
        <pt x="342" y="149" on="1"/>
        <pt x="365" y="234" on="0"/>
        <pt x="365" y="341" on="1"/>
        <pt x="365" y="414" on="1"/>
        <pt x="331" y="429" on="0"/>
      </contour>
      <contour>
        <pt x="376" y="93" on="1"/>
        <pt x="376" y="105" on="0"/>
        <pt x="378" y="119" on="1"/>
        <pt x="372" y="119" on="1"/>
        <pt x="355" y="59" on="0"/>
        <pt x="280" y="-12" on="0"/>
        <pt x="222" y="-12" on="1"/>
        <pt x="55" y="-12" on="0"/>
        <pt x="55" y="218" on="1"/>
        <pt x="55" y="329" on="0"/>
        <pt x="168" y="482" on="0"/>
        <pt x="278" y="482" on="1"/>
        <pt x="365" y="482" on="0"/>
        <pt x="432" y="451" on="1"/>
        <pt x="432" y="197" on="1"/>
        <pt x="432" y="164" on="0"/>
        <pt x="436" y="89" on="0"/>
        <pt x="450" y="68" on="1"/>
        <pt x="467" y="41" on="0"/>
        <pt x="507" y="41" on="1"/>
        <pt x="509" y="-4" on="1"/>
        <pt x="469" y="-8" on="1"/>
        <pt x="416" y="-8" on="0"/>
        <pt x="393" y="29" on="1"/>
        <pt x="376" y="56" on="0"/>
      </contour>
      <contour>
        <pt x="145" y="601" on="1"/>
        <pt x="145" y="645" on="0"/>
        <pt x="188" y="645" on="1"/>
        <pt x="206" y="645" on="0"/>
        <pt x="227" y="622" on="0"/>
        <pt x="227" y="583" on="0"/>
        <pt x="205" y="560" on="0"/>
        <pt x="167" y="560" on="0"/>
        <pt x="145" y="582" on="0"/>
      </contour>
      <contour>
        <pt x="305" y="601" on="1"/>
        <pt x="305" y="645" on="0"/>
        <pt x="348" y="645" on="1"/>
        <pt x="366" y="645" on="0"/>
        <pt x="387" y="622" on="0"/>
        <pt x="387" y="583" on="0"/>
        <pt x="365" y="560" on="0"/>
        <pt x="327" y="560" on="0"/>
        <pt x="305" y="582" on="0"/>
      </contour>
    </TTGlyph>
    <TTGlyph name="ae" xMin="55" yMin="-12" xMax="661" yMax="482">
      <contour>
        <pt x="502" y="-12" on="1"/>
        <pt x="395" y="-12" on="0"/>
        <pt x="349" y="64" on="1"/>
        <pt x="306" y="-12" on="0"/>
        <pt x="135" y="-12" on="0"/>
        <pt x="55" y="108" on="0"/>
        <pt x="55" y="329" on="0"/>
        <pt x="168" y="482" on="0"/>
        <pt x="278" y="482" on="1"/>
        <pt x="355" y="482" on="0"/>
        <pt x="411" y="448" on="1"/>
        <pt x="461" y="482" on="0"/>
        <pt x="588" y="482" on="0"/>
        <pt x="661" y="423" on="0"/>
        <pt x="661" y="320" on="0"/>
        <pt x="612" y="255" on="0"/>
        <pt x="570" y="238" on="1"/>
        <pt x="491" y="206" on="0"/>
        <pt x="387" y="206" on="1"/>
        <pt x="387" y="47" on="0"/>
        <pt x="514" y="47" on="1"/>
        <pt x="578" y="47" on="0"/>
        <pt x="635" y="82" on="1"/>
        <pt x="646" y="43" on="1"/>
        <pt x="621" y="18" on="0"/>
        <pt x="540" y="-12" on="0"/>
      </contour>
      <contour>
        <pt x="278" y="429" on="1"/>
        <pt x="130" y="429" on="0"/>
        <pt x="130" y="206" on="1"/>
        <pt x="130" y="43" on="0"/>
        <pt x="229" y="43" on="1"/>
        <pt x="292" y="43" on="0"/>
        <pt x="328" y="114" on="1"/>
        <pt x="314" y="160" on="0"/>
        <pt x="314" y="228" on="1"/>
        <pt x="314" y="335" on="0"/>
        <pt x="365" y="404" on="1"/>
        <pt x="365" y="410" on="1"/>
        <pt x="326" y="429" on="0"/>
      </contour>
      <contour>
        <pt x="588" y="367" on="1"/>
        <pt x="588" y="396" on="0"/>
        <pt x="552" y="426" on="0"/>
        <pt x="522" y="426" on="1"/>
        <pt x="462" y="426" on="0"/>
        <pt x="394" y="327" on="0"/>
        <pt x="389" y="257" on="1"/>
        <pt x="588" y="257" on="0"/>
      </contour>
    </TTGlyph>
    <TTGlyph name="agrave" xMin="55" yMin="-12" xMax="509" yMax="686">
      <contour>
        <pt x="278" y="429" on="1"/>
        <pt x="130" y="429" on="0"/>
        <pt x="130" y="206" on="1"/>
        <pt x="130" y="43" on="0"/>
        <pt x="229" y="43" on="1"/>
        <pt x="271" y="43" on="0"/>
        <pt x="328" y="100" on="0"/>
        <pt x="342" y="149" on="1"/>
        <pt x="365" y="234" on="0"/>
        <pt x="365" y="341" on="1"/>
        <pt x="365" y="414" on="1"/>
        <pt x="331" y="429" on="0"/>
      </contour>
      <contour>
        <pt x="376" y="93" on="1"/>
        <pt x="376" y="105" on="0"/>
        <pt x="378" y="119" on="1"/>
        <pt x="372" y="119" on="1"/>
        <pt x="355" y="59" on="0"/>
        <pt x="280" y="-12" on="0"/>
        <pt x="222" y="-12" on="1"/>
        <pt x="55" y="-12" on="0"/>
        <pt x="55" y="218" on="1"/>
        <pt x="55" y="329" on="0"/>
        <pt x="168" y="482" on="0"/>
        <pt x="278" y="482" on="1"/>
        <pt x="365" y="482" on="0"/>
        <pt x="432" y="451" on="1"/>
        <pt x="432" y="197" on="1"/>
        <pt x="432" y="164" on="0"/>
        <pt x="436" y="89" on="0"/>
        <pt x="450" y="68" on="1"/>
        <pt x="467" y="41" on="0"/>
        <pt x="507" y="41" on="1"/>
        <pt x="509" y="-4" on="1"/>
        <pt x="469" y="-8" on="1"/>
        <pt x="416" y="-8" on="0"/>
        <pt x="393" y="29" on="1"/>
        <pt x="376" y="56" on="0"/>
      </contour>
      <contour>
        <pt x="228" y="686" on="1"/>
        <pt x="249" y="686" on="0"/>
        <pt x="286" y="633" on="1"/>
        <pt x="345" y="550" on="1"/>
        <pt x="315" y="530" on="1"/>
        <pt x="186" y="648" on="1"/>
        <pt x="216" y="683" on="1"/>
        <pt x="221" y="686" on="0"/>
      </contour>
    </TTGlyph>
    <TTGlyph name="ampersand" xMin="58" yMin="-11" xMax="670" yMax="567">
      <contour>
        <pt x="381" y="406" on="1"/>
        <pt x="381" y="437" on="0"/>
        <pt x="338" y="471" on="0"/>
        <pt x="302" y="471" on="1"/>
        <pt x="167" y="471" on="0"/>
        <pt x="140" y="285" on="1"/>
        <pt x="381" y="288" on="0"/>
      </contour>
      <contour>
        <pt x="293" y="54" on="1"/>
        <pt x="361" y="54" on="0"/>
        <pt x="465" y="135" on="0"/>
        <pt x="515" y="256" on="0"/>
        <pt x="515" y="324" on="1"/>
        <pt x="670" y="337" on="1"/>
        <pt x="664" y="283" on="1"/>
        <pt x="578" y="271" on="1"/>
        <pt x="554" y="149" on="0"/>
        <pt x="398" y="-11" on="0"/>
        <pt x="171" y="-11" on="0"/>
        <pt x="58" y="124" on="0"/>
        <pt x="58" y="366" on="0"/>
        <pt x="192" y="536" on="0"/>
        <pt x="306" y="536" on="1"/>
        <pt x="365" y="536" on="0"/>
        <pt x="447" y="478" on="0"/>
        <pt x="447" y="424" on="1"/>
        <pt x="447" y="406" on="0"/>
        <pt x="439" y="398" on="1"/>
        <pt x="443" y="393" on="1"/>
        <pt x="474" y="421" on="0"/>
        <pt x="522" y="524" on="0"/>
        <pt x="529" y="567" on="1"/>
        <pt x="573" y="555" on="1"/>
        <pt x="573" y="494" on="0"/>
        <pt x="501" y="359" on="0"/>
        <pt x="450" y="316" on="1"/>
        <pt x="347" y="230" on="0"/>
        <pt x="138" y="229" on="1"/>
        <pt x="138" y="54" on="0"/>
      </contour>
    </TTGlyph>
    <TTGlyph name="ampersand2" xMin="105" yMin="-12" xMax="693" yMax="702">
      <contour>
        <pt x="239" y="430" on="1"/>
        <pt x="172" y="516" on="0"/>
        <pt x="172" y="635" on="0"/>
        <pt x="260" y="702" on="0"/>
        <pt x="380" y="702" on="0"/>
        <pt x="428" y="674" on="1"/>
        <pt x="413" y="622" on="1"/>
        <pt x="377" y="638" on="0"/>
        <pt x="338" y="638" on="1"/>
        <pt x="249" y="638" on="0"/>
        <pt x="249" y="578" on="1"/>
        <pt x="249" y="563" on="0"/>
        <pt x="257" y="543" on="0"/>
        <pt x="261" y="531" on="0"/>
        <pt x="271" y="514" on="0"/>
        <pt x="276" y="505" on="0"/>
        <pt x="289" y="487" on="0"/>
        <pt x="291" y="484" on="1"/>
        <pt x="296" y="476" on="0"/>
        <pt x="512" y="192" on="1"/>
        <pt x="538" y="286" on="0"/>
        <pt x="538" y="396" on="1"/>
        <pt x="693" y="409" on="1"/>
        <pt x="688" y="354" on="1"/>
        <pt x="609" y="339" on="1"/>
        <pt x="598" y="210" on="0"/>
        <pt x="557" y="135" on="1"/>
        <pt x="626" y="45" on="0"/>
        <pt x="691" y="45" on="1"/>
        <pt x="693" y="-2" on="1"/>
        <pt x="682" y="-8" on="0"/>
        <pt x="612" y="-8" on="0"/>
        <pt x="550" y="32" on="0"/>
        <pt x="513" y="76" on="1"/>
        <pt x="442" y="-12" on="0"/>
        <pt x="318" y="-12" on="1"/>
        <pt x="228" y="-12" on="0"/>
        <pt x="105" y="102" on="0"/>
        <pt x="105" y="191" on="1"/>
        <pt x="105" y="324" on="0"/>
        <pt x="254" y="411" on="1"/>
      </contour>
      <contour>
        <pt x="182" y="195" on="1"/>
        <pt x="182" y="131" on="0"/>
        <pt x="263" y="53" on="0"/>
        <pt x="329" y="53" on="1"/>
        <pt x="428" y="53" on="0"/>
        <pt x="477" y="127" on="1"/>
        <pt x="297" y="363" on="1"/>
        <pt x="246" y="332" on="0"/>
        <pt x="182" y="241" on="0"/>
      </contour>
    </TTGlyph>
    <TTGlyph name="aogonek" xMin="55" yMin="-204" xMax="522" yMax="482">
      <contour>
        <pt x="437" y="-3" on="1"/>
        <pt x="376" y="15" on="0"/>
        <pt x="376" y="91" on="1"/>
        <pt x="376" y="105" on="0"/>
        <pt x="378" y="119" on="1"/>
        <pt x="372" y="119" on="1"/>
        <pt x="355" y="59" on="0"/>
        <pt x="280" y="-12" on="0"/>
        <pt x="222" y="-12" on="1"/>
        <pt x="135" y="-12" on="0"/>
        <pt x="55" y="108" on="0"/>
        <pt x="55" y="329" on="0"/>
        <pt x="168" y="482" on="0"/>
        <pt x="278" y="482" on="1"/>
        <pt x="317" y="482" on="0"/>
        <pt x="394" y="466" on="0"/>
        <pt x="432" y="451" on="1"/>
        <pt x="432" y="197" on="1"/>
        <pt x="432" y="95" on="0"/>
        <pt x="450" y="68" on="1"/>
        <pt x="467" y="41" on="0"/>
        <pt x="507" y="41" on="1"/>
        <pt x="509" y="-4" on="1"/>
        <pt x="499" y="-6" on="0"/>
        <pt x="484" y="-7" on="1"/>
        <pt x="441" y="-74" on="0"/>
        <pt x="441" y="-120" on="1"/>
        <pt x="441" y="-136" on="0"/>
        <pt x="462" y="-157" on="0"/>
        <pt x="499" y="-157" on="0"/>
        <pt x="511" y="-151" on="1"/>
        <pt x="522" y="-188" on="1"/>
        <pt x="504" y="-204" on="0"/>
        <pt x="425" y="-204" on="0"/>
        <pt x="377" y="-167" on="0"/>
        <pt x="377" y="-131" on="1"/>
        <pt x="377" y="-78" on="0"/>
      </contour>
      <contour>
        <pt x="365" y="341" on="1"/>
        <pt x="365" y="414" on="1"/>
        <pt x="336" y="429" on="0"/>
        <pt x="278" y="429" on="1"/>
        <pt x="130" y="429" on="0"/>
        <pt x="130" y="206" on="1"/>
        <pt x="130" y="43" on="0"/>
        <pt x="229" y="43" on="1"/>
        <pt x="271" y="43" on="0"/>
        <pt x="328" y="100" on="0"/>
        <pt x="342" y="149" on="1"/>
        <pt x="365" y="234" on="0"/>
      </contour>
    </TTGlyph>
    <TTGlyph name="aring" xMin="55" yMin="-12" xMax="509" yMax="717">
      <contour>
        <pt x="278" y="429" on="1"/>
        <pt x="130" y="429" on="0"/>
        <pt x="130" y="206" on="1"/>
        <pt x="130" y="43" on="0"/>
        <pt x="229" y="43" on="1"/>
        <pt x="271" y="43" on="0"/>
        <pt x="328" y="100" on="0"/>
        <pt x="342" y="149" on="1"/>
        <pt x="365" y="234" on="0"/>
        <pt x="365" y="341" on="1"/>
        <pt x="365" y="414" on="1"/>
        <pt x="331" y="429" on="0"/>
      </contour>
      <contour>
        <pt x="376" y="93" on="1"/>
        <pt x="376" y="105" on="0"/>
        <pt x="378" y="119" on="1"/>
        <pt x="372" y="119" on="1"/>
        <pt x="355" y="59" on="0"/>
        <pt x="280" y="-12" on="0"/>
        <pt x="222" y="-12" on="1"/>
        <pt x="55" y="-12" on="0"/>
        <pt x="55" y="218" on="1"/>
        <pt x="55" y="329" on="0"/>
        <pt x="168" y="482" on="0"/>
        <pt x="278" y="482" on="1"/>
        <pt x="365" y="482" on="0"/>
        <pt x="432" y="451" on="1"/>
        <pt x="432" y="197" on="1"/>
        <pt x="432" y="164" on="0"/>
        <pt x="436" y="89" on="0"/>
        <pt x="450" y="68" on="1"/>
        <pt x="467" y="41" on="0"/>
        <pt x="507" y="41" on="1"/>
        <pt x="509" y="-4" on="1"/>
        <pt x="469" y="-8" on="1"/>
        <pt x="416" y="-8" on="0"/>
        <pt x="393" y="29" on="1"/>
        <pt x="376" y="56" on="0"/>
      </contour>
      <contour>
        <pt x="224" y="625" on="1"/>
        <pt x="224" y="581" on="0"/>
        <pt x="312" y="581" on="0"/>
        <pt x="312" y="672" on="0"/>
        <pt x="270" y="672" on="1"/>
        <pt x="224" y="672" on="0"/>
      </contour>
      <contour>
        <pt x="224" y="536" on="0"/>
        <pt x="173" y="584" on="0"/>
        <pt x="173" y="669" on="0"/>
        <pt x="224" y="717" on="0"/>
        <pt x="314" y="717" on="0"/>
        <pt x="363" y="668" on="0"/>
        <pt x="363" y="585" on="0"/>
        <pt x="313" y="536" on="0"/>
      </contour>
    </TTGlyph>
    <TTGlyph name="asciicircum" xMin="30" yMin="392" xMax="464" yMax="733">
      <contour>
        <pt x="30" y="428" on="1"/>
        <pt x="218" y="733" on="1"/>
        <pt x="280" y="730" on="1"/>
        <pt x="464" y="427" on="1"/>
        <pt x="411" y="392" on="1"/>
        <pt x="247" y="672" on="1"/>
        <pt x="83" y="392" on="1"/>
      </contour>
    </TTGlyph>
    <TTGlyph name="asciitilde" xMin="80" yMin="203" xMax="510" yMax="302">
      <contour>
        <pt x="98" y="268" on="0"/>
        <pt x="159" y="302" on="0"/>
        <pt x="193" y="302" on="1"/>
        <pt x="231" y="302" on="0"/>
        <pt x="346" y="268" on="0"/>
        <pt x="380" y="263" on="0"/>
        <pt x="401" y="263" on="1"/>
        <pt x="455" y="263" on="0"/>
        <pt x="480" y="286" on="1"/>
        <pt x="510" y="270" on="1"/>
        <pt x="465" y="203" on="0"/>
        <pt x="389" y="203" on="1"/>
        <pt x="361" y="203" on="0"/>
        <pt x="206" y="243" on="0"/>
        <pt x="190" y="243" on="1"/>
        <pt x="144" y="243" on="0"/>
        <pt x="110" y="220" on="1"/>
        <pt x="80" y="236" on="1"/>
      </contour>
    </TTGlyph>
    <TTGlyph name="asterisk" xMin="15" yMin="532" xMax="289" yMax="797">
      <contour>
        <pt x="15" y="709" on="1"/>
        <pt x="15" y="714" on="1"/>
        <pt x="24" y="733" on="1"/>
        <pt x="25" y="733" on="1"/>
        <pt x="113" y="710" on="1"/>
        <pt x="147" y="797" on="1"/>
        <pt x="186" y="790" on="1"/>
        <pt x="186" y="697" on="1"/>
        <pt x="282" y="695" on="1"/>
        <pt x="289" y="660" on="1"/>
        <pt x="193" y="627" on="1"/>
        <pt x="215" y="542" on="1"/>
        <pt x="214" y="542" on="1"/>
        <pt x="195" y="532" on="0"/>
        <pt x="191" y="532" on="1"/>
        <pt x="175" y="532" on="0"/>
        <pt x="163" y="555" on="1"/>
        <pt x="138" y="602" on="1"/>
        <pt x="53" y="551" on="1"/>
        <pt x="33" y="571" on="1"/>
        <pt x="84" y="656" on="1"/>
        <pt x="37" y="681" on="1"/>
        <pt x="26" y="687" on="0"/>
        <pt x="15" y="704" on="0"/>
      </contour>
    </TTGlyph>
    <TTGlyph name="at" xMin="70" yMin="-175" xMax="863" yMax="655">
      <contour>
        <pt x="476" y="-175" on="1"/>
        <pt x="307" y="-175" on="0"/>
        <pt x="70" y="67" on="0"/>
        <pt x="70" y="412" on="0"/>
        <pt x="302" y="655" on="0"/>
        <pt x="643" y="655" on="0"/>
        <pt x="863" y="460" on="0"/>
        <pt x="863" y="285" on="1"/>
        <pt x="863" y="161" on="0"/>
        <pt x="770" y="-1" on="0"/>
        <pt x="680" y="-1" on="1"/>
        <pt x="626" y="-1" on="0"/>
        <pt x="604" y="35" on="1"/>
        <pt x="587" y="62" on="0"/>
        <pt x="587" y="109" on="0"/>
        <pt x="589" y="122" on="1"/>
        <pt x="583" y="122" on="1"/>
        <pt x="567" y="64" on="0"/>
        <pt x="493" y="-5" on="0"/>
        <pt x="438" y="-5" on="1"/>
        <pt x="353" y="-5" on="0"/>
        <pt x="276" y="111" on="0"/>
        <pt x="276" y="327" on="0"/>
        <pt x="386" y="475" on="0"/>
        <pt x="492" y="475" on="1"/>
        <pt x="530" y="475" on="0"/>
        <pt x="604" y="460" on="0"/>
        <pt x="641" y="445" on="1"/>
        <pt x="641" y="198" on="1"/>
        <pt x="641" y="119" on="0"/>
        <pt x="663" y="50" on="0"/>
        <pt x="695" y="50" on="1"/>
        <pt x="793" y="50" on="0"/>
        <pt x="793" y="285" on="1"/>
        <pt x="793" y="439" on="0"/>
        <pt x="614" y="602" on="0"/>
        <pt x="330" y="602" on="0"/>
        <pt x="140" y="391" on="0"/>
        <pt x="140" y="88" on="0"/>
        <pt x="336" y="-123" on="0"/>
        <pt x="476" y="-123" on="1"/>
        <pt x="536" y="-123" on="0"/>
        <pt x="593" y="-103" on="1"/>
        <pt x="605" y="-147" on="1"/>
        <pt x="543" y="-175" on="0"/>
      </contour>
      <contour>
        <pt x="577" y="338" on="1"/>
        <pt x="577" y="409" on="1"/>
        <pt x="548" y="423" on="0"/>
        <pt x="492" y="423" on="1"/>
        <pt x="349" y="423" on="0"/>
        <pt x="349" y="207" on="1"/>
        <pt x="349" y="49" on="0"/>
        <pt x="445" y="49" on="1"/>
        <pt x="485" y="49" on="0"/>
        <pt x="541" y="104" on="0"/>
        <pt x="554" y="152" on="1"/>
        <pt x="577" y="236" on="0"/>
      </contour>
    </TTGlyph>
    <TTGlyph name="atilde" xMin="55" yMin="-12" xMax="509" yMax="649">
      <contour>
        <pt x="365" y="341" on="1"/>
        <pt x="365" y="414" on="1"/>
        <pt x="336" y="429" on="0"/>
        <pt x="278" y="429" on="1"/>
        <pt x="130" y="429" on="0"/>
        <pt x="130" y="206" on="1"/>
        <pt x="130" y="43" on="0"/>
        <pt x="229" y="43" on="1"/>
        <pt x="271" y="43" on="0"/>
        <pt x="328" y="100" on="0"/>
        <pt x="342" y="149" on="1"/>
        <pt x="365" y="234" on="0"/>
      </contour>
      <contour>
        <pt x="222" y="-12" on="1"/>
        <pt x="135" y="-12" on="0"/>
        <pt x="55" y="108" on="0"/>
        <pt x="55" y="329" on="0"/>
        <pt x="168" y="482" on="0"/>
        <pt x="278" y="482" on="1"/>
        <pt x="317" y="482" on="0"/>
        <pt x="394" y="466" on="0"/>
        <pt x="432" y="451" on="1"/>
        <pt x="432" y="197" on="1"/>
        <pt x="432" y="95" on="0"/>
        <pt x="450" y="68" on="1"/>
        <pt x="467" y="41" on="0"/>
        <pt x="507" y="41" on="1"/>
        <pt x="509" y="-4" on="1"/>
        <pt x="493" y="-8" on="0"/>
        <pt x="469" y="-8" on="1"/>
        <pt x="416" y="-8" on="0"/>
        <pt x="393" y="29" on="1"/>
        <pt x="376" y="56" on="0"/>
        <pt x="376" y="93" on="1"/>
        <pt x="376" y="105" on="0"/>
        <pt x="378" y="119" on="1"/>
        <pt x="372" y="119" on="1"/>
        <pt x="355" y="59" on="0"/>
        <pt x="280" y="-12" on="0"/>
      </contour>
      <contour>
        <pt x="125" y="609" on="0"/>
        <pt x="168" y="649" on="0"/>
        <pt x="195" y="649" on="1"/>
        <pt x="223" y="649" on="0"/>
        <pt x="266" y="632" on="1"/>
        <pt x="323" y="609" on="0"/>
        <pt x="335" y="609" on="1"/>
        <pt x="363" y="609" on="0"/>
        <pt x="386" y="642" on="1"/>
        <pt x="416" y="626" on="1"/>
        <pt x="407" y="588" on="0"/>
        <pt x="364" y="549" on="0"/>
        <pt x="337" y="549" on="1"/>
        <pt x="307" y="549" on="0"/>
        <pt x="242" y="576" on="1"/>
        <pt x="210" y="589" on="0"/>
        <pt x="199" y="589" on="1"/>
        <pt x="170" y="589" on="0"/>
        <pt x="146" y="556" on="1"/>
        <pt x="116" y="572" on="1"/>
      </contour>
    </TTGlyph>
    <TTGlyph name="b" xMin="90" yMin="-12" xMax="467" yMax="745">
      <contour>
        <pt x="157" y="159" on="1"/>
        <pt x="157" y="56" on="1"/>
        <pt x="186" y="41" on="0"/>
        <pt x="244" y="41" on="1"/>
        <pt x="392" y="41" on="0"/>
        <pt x="392" y="275" on="1"/>
        <pt x="392" y="425" on="0"/>
        <pt x="298" y="425" on="1"/>
        <pt x="245" y="425" on="0"/>
        <pt x="178" y="335" on="0"/>
        <pt x="157" y="224" on="0"/>
      </contour>
      <contour>
        <pt x="159" y="460" on="1"/>
        <pt x="159" y="407" on="0"/>
        <pt x="151" y="371" on="1"/>
        <pt x="157" y="371" on="1"/>
        <pt x="179" y="428" on="0"/>
        <pt x="251" y="482" on="0"/>
        <pt x="310" y="482" on="1"/>
        <pt x="397" y="482" on="0"/>
        <pt x="467" y="369" on="0"/>
        <pt x="467" y="143" on="0"/>
        <pt x="356" y="-12" on="0"/>
        <pt x="244" y="-12" on="1"/>
        <pt x="205" y="-12" on="0"/>
        <pt x="128" y="4" on="0"/>
        <pt x="90" y="19" on="1"/>
        <pt x="90" y="734" on="1"/>
        <pt x="159" y="745" on="1"/>
      </contour>
    </TTGlyph>
    <TTGlyph name="backslash" xMin="0" yMin="-74" xMax="370" yMax="750">
      <contour>
        <pt x="48" y="750" on="1"/>
        <pt x="370" y="-59" on="1"/>
        <pt x="356" y="-71" on="0"/>
        <pt x="322" y="-74" on="1"/>
        <pt x="0" y="735" on="1"/>
        <pt x="14" y="747" on="0"/>
      </contour>
    </TTGlyph>
    <TTGlyph name="bar" xMin="63" yMin="-169" xMax="113" yMax="733">
      <contour>
        <pt x="63" y="-169" on="1"/>
        <pt x="63" y="733" on="1"/>
        <pt x="113" y="733" on="1"/>
        <pt x="113" y="-169" on="1"/>
      </contour>
    </TTGlyph>
    <TTGlyph name="braceleft" xMin="60" yMin="-179" xMax="303" yMax="745">
      <contour>
        <pt x="123" y="176" on="1"/>
        <pt x="123" y="213" on="0"/>
        <pt x="97" y="265" on="0"/>
        <pt x="60" y="277" on="1"/>
        <pt x="66" y="305" on="1"/>
        <pt x="123" y="326" on="0"/>
        <pt x="123" y="405" on="1"/>
        <pt x="123" y="409" on="0"/>
        <pt x="117" y="574" on="0"/>
        <pt x="117" y="614" on="0"/>
        <pt x="123" y="664" on="0"/>
        <pt x="136" y="691" on="1"/>
        <pt x="160" y="745" on="0"/>
        <pt x="242" y="745" on="1"/>
        <pt x="276" y="745" on="0"/>
        <pt x="303" y="733" on="1"/>
        <pt x="294" y="692" on="1"/>
        <pt x="281" y="695" on="0"/>
        <pt x="237" y="695" on="0"/>
        <pt x="222" y="686" on="1"/>
        <pt x="194" y="667" on="0"/>
        <pt x="194" y="595" on="1"/>
        <pt x="194" y="584" on="0"/>
        <pt x="200" y="421" on="0"/>
        <pt x="200" y="414" on="1"/>
        <pt x="200" y="365" on="0"/>
        <pt x="175" y="308" on="0"/>
        <pt x="137" y="288" on="1"/>
        <pt x="175" y="268" on="0"/>
        <pt x="200" y="211" on="0"/>
        <pt x="200" y="162" on="1"/>
        <pt x="200" y="154" on="0"/>
        <pt x="193" y="-20" on="0"/>
        <pt x="193" y="-43" on="0"/>
        <pt x="196" y="-75" on="0"/>
        <pt x="202" y="-92" on="1"/>
        <pt x="213" y="-129" on="0"/>
        <pt x="261" y="-129" on="1"/>
        <pt x="294" y="-126" on="1"/>
        <pt x="303" y="-168" on="1"/>
        <pt x="278" y="-179" on="0"/>
        <pt x="201" y="-179" on="0"/>
        <pt x="174" y="-166" on="1"/>
        <pt x="117" y="-136" on="0"/>
        <pt x="117" y="-23" on="1"/>
        <pt x="117" y="-15" on="0"/>
        <pt x="123" y="171" on="0"/>
      </contour>
    </TTGlyph>
    <TTGlyph name="braceright" xMin="4" yMin="-179" xMax="247" yMax="745">
      <contour>
        <pt x="13" y="-126" on="1"/>
        <pt x="26" y="-129" on="0"/>
        <pt x="70" y="-129" on="0"/>
        <pt x="85" y="-119" on="1"/>
        <pt x="114" y="-100" on="0"/>
        <pt x="114" y="-31" on="1"/>
        <pt x="107" y="154" on="0"/>
        <pt x="107" y="182" on="1"/>
        <pt x="107" y="255" on="0"/>
        <pt x="170" y="288" on="1"/>
        <pt x="132" y="308" on="0"/>
        <pt x="107" y="365" on="0"/>
        <pt x="107" y="414" on="1"/>
        <pt x="107" y="423" on="0"/>
        <pt x="113" y="585" on="0"/>
        <pt x="113" y="609" on="0"/>
        <pt x="111" y="638" on="0"/>
        <pt x="105" y="657" on="1"/>
        <pt x="93" y="695" on="0"/>
        <pt x="46" y="695" on="1"/>
        <pt x="13" y="692" on="1"/>
        <pt x="4" y="733" on="1"/>
        <pt x="31" y="745" on="0"/>
        <pt x="106" y="745" on="0"/>
        <pt x="132" y="732" on="1"/>
        <pt x="190" y="702" on="0"/>
        <pt x="190" y="589" on="1"/>
        <pt x="190" y="579" on="0"/>
        <pt x="184" y="409" on="0"/>
        <pt x="184" y="405" on="1"/>
        <pt x="184" y="326" on="0"/>
        <pt x="241" y="305" on="1"/>
        <pt x="247" y="277" on="1"/>
        <pt x="210" y="265" on="0"/>
        <pt x="184" y="213" on="0"/>
        <pt x="184" y="176" on="1"/>
        <pt x="184" y="173" on="0"/>
        <pt x="190" y="-8" on="0"/>
        <pt x="190" y="-48" on="0"/>
        <pt x="184" y="-98" on="0"/>
        <pt x="172" y="-125" on="1"/>
        <pt x="146" y="-179" on="0"/>
        <pt x="65" y="-179" on="1"/>
        <pt x="29" y="-179" on="0"/>
        <pt x="4" y="-168" on="1"/>
      </contour>
    </TTGlyph>
    <TTGlyph name="bracketleft" xMin="60" yMin="-167" xMax="239" yMax="733">
      <contour>
        <pt x="135" y="-16" on="1"/>
        <pt x="135" y="-69" on="0"/>
        <pt x="129" y="-105" on="1"/>
        <pt x="236" y="-105" on="1"/>
        <pt x="239" y="-167" on="1"/>
        <pt x="60" y="-167" on="1"/>
        <pt x="60" y="733" on="1"/>
        <pt x="239" y="733" on="1"/>
        <pt x="236" y="671" on="1"/>
        <pt x="129" y="671" on="1"/>
        <pt x="135" y="642" on="0"/>
        <pt x="135" y="582" on="1"/>
      </contour>
    </TTGlyph>
    <TTGlyph name="bracketright" xMin="4" yMin="-167" xMax="183" yMax="733">
      <contour>
        <pt x="108" y="582" on="1"/>
        <pt x="108" y="635" on="0"/>
        <pt x="114" y="671" on="1"/>
        <pt x="7" y="671" on="1"/>
        <pt x="4" y="733" on="1"/>
        <pt x="183" y="733" on="1"/>
        <pt x="183" y="-167" on="1"/>
        <pt x="4" y="-167" on="1"/>
        <pt x="7" y="-105" on="1"/>
        <pt x="114" y="-105" on="1"/>
        <pt x="108" y="-76" on="0"/>
        <pt x="108" y="-16" on="1"/>
      </contour>
    </TTGlyph>
    <TTGlyph name="brokenbar" xMin="63" yMin="-169" xMax="113" yMax="733">
      <contour>
        <pt x="67" y="342" on="1"/>
        <pt x="63" y="733" on="1"/>
        <pt x="113" y="733" on="1"/>
        <pt x="111" y="342" on="1"/>
      </contour>
      <contour>
        <pt x="63" y="-169" on="1"/>
        <pt x="66" y="222" on="1"/>
        <pt x="111" y="222" on="1"/>
        <pt x="113" y="-169" on="1"/>
      </contour>
    </TTGlyph>
    <TTGlyph name="bullet" xMin="60" yMin="157" xMax="178" yMax="279">
      <contour>
        <pt x="60" y="216" on="1"/>
        <pt x="60" y="279" on="0"/>
        <pt x="122" y="279" on="1"/>
        <pt x="178" y="279" on="0"/>
        <pt x="178" y="157" on="0"/>
        <pt x="119" y="157" on="1"/>
        <pt x="91" y="157" on="0"/>
        <pt x="60" y="188" on="0"/>
      </contour>
    </TTGlyph>
    <TTGlyph name="c" xMin="54" yMin="-12" xMax="382" yMax="482">
      <contour>
        <pt x="241" y="-12" on="1"/>
        <pt x="54" y="-12" on="0"/>
        <pt x="54" y="218" on="1"/>
        <pt x="54" y="332" on="0"/>
        <pt x="165" y="482" on="0"/>
        <pt x="268" y="482" on="1"/>
        <pt x="327" y="482" on="0"/>
        <pt x="373" y="462" on="1"/>
        <pt x="362" y="410" on="1"/>
        <pt x="321" y="424" on="0"/>
        <pt x="276" y="424" on="1"/>
        <pt x="129" y="424" on="0"/>
        <pt x="129" y="216" on="1"/>
        <pt x="129" y="47" on="0"/>
        <pt x="253" y="47" on="1"/>
        <pt x="316" y="47" on="0"/>
        <pt x="371" y="82" on="1"/>
        <pt x="382" y="43" on="1"/>
        <pt x="357" y="18" on="0"/>
        <pt x="278" y="-12" on="0"/>
      </contour>
    </TTGlyph>
    <TTGlyph name="caron" xMin="13" yMin="533" xMax="247" yMax="662">
      <contour>
        <pt x="69" y="562" on="1"/>
        <pt x="13" y="642" on="1"/>
        <pt x="43" y="662" on="1"/>
        <pt x="130" y="583" on="1"/>
        <pt x="217" y="662" on="1"/>
        <pt x="247" y="642" on="1"/>
        <pt x="174" y="542" on="1"/>
        <pt x="104" y="533" on="1"/>
        <pt x="83" y="540" on="0"/>
      </contour>
    </TTGlyph>
    <TTGlyph name="caron.cap" xMin="60" yMin="548" xMax="286" yMax="666">
      <contour>
        <pt x="115" y="574" on="1"/>
        <pt x="60" y="638" on="1"/>
        <pt x="82" y="666" on="1"/>
        <pt x="173" y="598" on="1"/>
        <pt x="264" y="666" on="1"/>
        <pt x="286" y="638" on="1"/>
        <pt x="217" y="557" on="1"/>
        <pt x="146" y="548" on="1"/>
        <pt x="131" y="555" on="0"/>
      </contour>
    </TTGlyph>
    <TTGlyph name="ccedilla" xMin="54" yMin="-201" xMax="382" yMax="482">
      <contour>
        <pt x="207" y="-161" on="1"/>
        <pt x="250" y="-161" on="0"/>
        <pt x="250" y="-119" on="1"/>
        <pt x="250" y="-80" on="0"/>
        <pt x="193" y="-65" on="1"/>
        <pt x="208" y="-10" on="1"/>
        <pt x="54" y="9" on="0"/>
        <pt x="54" y="218" on="1"/>
        <pt x="54" y="332" on="0"/>
        <pt x="165" y="482" on="0"/>
        <pt x="268" y="482" on="1"/>
        <pt x="327" y="482" on="0"/>
        <pt x="373" y="462" on="1"/>
        <pt x="362" y="410" on="1"/>
        <pt x="321" y="424" on="0"/>
        <pt x="276" y="424" on="1"/>
        <pt x="129" y="424" on="0"/>
        <pt x="129" y="216" on="1"/>
        <pt x="129" y="47" on="0"/>
        <pt x="253" y="47" on="1"/>
        <pt x="316" y="47" on="0"/>
        <pt x="371" y="82" on="1"/>
        <pt x="382" y="43" on="1"/>
        <pt x="334" y="-7" on="0"/>
        <pt x="251" y="-12" on="1"/>
        <pt x="244" y="-38" on="1"/>
        <pt x="311" y="-59" on="0"/>
        <pt x="311" y="-118" on="1"/>
        <pt x="311" y="-155" on="0"/>
        <pt x="257" y="-201" on="0"/>
        <pt x="219" y="-201" on="1"/>
        <pt x="183" y="-201" on="0"/>
        <pt x="161" y="-185" on="1"/>
        <pt x="170" y="-155" on="1"/>
        <pt x="185" y="-161" on="0"/>
      </contour>
    </TTGlyph>
    <TTGlyph name="cedilla" xMin="156" yMin="-201" xMax="306" yMax="39">
      <contour>
        <pt x="202" y="-161" on="1"/>
        <pt x="245" y="-161" on="0"/>
        <pt x="245" y="-119" on="1"/>
        <pt x="245" y="-80" on="0"/>
        <pt x="188" y="-65" on="1"/>
        <pt x="216" y="39" on="1"/>
        <pt x="257" y="28" on="1"/>
        <pt x="239" y="-38" on="1"/>
        <pt x="306" y="-59" on="0"/>
        <pt x="306" y="-118" on="1"/>
        <pt x="306" y="-155" on="0"/>
        <pt x="252" y="-201" on="0"/>
        <pt x="214" y="-201" on="1"/>
        <pt x="178" y="-201" on="0"/>
        <pt x="156" y="-185" on="1"/>
        <pt x="165" y="-155" on="1"/>
        <pt x="180" y="-161" on="0"/>
      </contour>
    </TTGlyph>
    <TTGlyph name="cent" xMin="54" yMin="-59" xMax="382" yMax="671">
      <contour>
        <pt x="54" y="288" on="1"/>
        <pt x="54" y="392" on="0"/>
        <pt x="148" y="538" on="0"/>
        <pt x="236" y="550" on="1"/>
        <pt x="242" y="671" on="1"/>
        <pt x="267" y="671" on="0"/>
        <pt x="282" y="666" on="1"/>
        <pt x="276" y="552" on="1"/>
        <pt x="330" y="550" on="0"/>
        <pt x="373" y="532" on="1"/>
        <pt x="362" y="480" on="1"/>
        <pt x="321" y="494" on="0"/>
        <pt x="274" y="494" on="1"/>
        <pt x="257" y="117" on="1"/>
        <pt x="320" y="119" on="0"/>
        <pt x="371" y="152" on="1"/>
        <pt x="382" y="113" on="1"/>
        <pt x="336" y="65" on="0"/>
        <pt x="254" y="58" on="1"/>
        <pt x="249" y="-59" on="1"/>
        <pt x="209" y="-59" on="1"/>
        <pt x="214" y="59" on="1"/>
        <pt x="54" y="74" on="0"/>
      </contour>
      <contour>
        <pt x="129" y="286" on="1"/>
        <pt x="129" y="142" on="0"/>
        <pt x="217" y="121" on="1"/>
        <pt x="234" y="489" on="1"/>
        <pt x="129" y="461" on="0"/>
      </contour>
    </TTGlyph>
    <TTGlyph name="circumflex" xMin="12" yMin="530" xMax="246" yMax="659">
      <contour>
        <pt x="12" y="550" on="1"/>
        <pt x="85" y="650" on="1"/>
        <pt x="155" y="659" on="1"/>
        <pt x="176" y="652" on="0"/>
        <pt x="190" y="630" on="1"/>
        <pt x="246" y="550" on="1"/>
        <pt x="216" y="530" on="1"/>
        <pt x="129" y="609" on="1"/>
        <pt x="42" y="530" on="1"/>
      </contour>
    </TTGlyph>
    <TTGlyph name="circumflex.cap" xMin="60" yMin="724" xMax="286" yMax="842">
      <contour>
        <pt x="82" y="724" on="1"/>
        <pt x="60" y="752" on="1"/>
        <pt x="129" y="833" on="1"/>
        <pt x="200" y="842" on="1"/>
        <pt x="215" y="835" on="0"/>
        <pt x="231" y="816" on="1"/>
        <pt x="286" y="752" on="1"/>
        <pt x="264" y="724" on="1"/>
        <pt x="173" y="792" on="1"/>
      </contour>
    </TTGlyph>
    <TTGlyph name="colon" xMin="60" yMin="-12" xMax="148" yMax="362">
      <contour>
        <pt x="60" y="315" on="1"/>
        <pt x="60" y="362" on="0"/>
        <pt x="106" y="362" on="1"/>
        <pt x="148" y="362" on="0"/>
        <pt x="148" y="271" on="0"/>
        <pt x="60" y="271" on="0"/>
      </contour>
      <contour>
        <pt x="60" y="32" on="1"/>
        <pt x="60" y="79" on="0"/>
        <pt x="106" y="79" on="1"/>
        <pt x="148" y="79" on="0"/>
        <pt x="148" y="-12" on="0"/>
        <pt x="60" y="-12" on="0"/>
      </contour>
    </TTGlyph>
    <TTGlyph name="comma" xMin="58" yMin="-108" xMax="156" yMax="75">
      <contour>
        <pt x="77" y="0" on="1"/>
        <pt x="81" y="20" on="0"/>
        <pt x="81" y="51" on="0"/>
        <pt x="75" y="68" on="1"/>
        <pt x="133" y="75" on="1"/>
        <pt x="155" y="67" on="0"/>
        <pt x="155" y="20" on="0"/>
        <pt x="142" y="-11" on="1"/>
        <pt x="101" y="-108" on="1"/>
        <pt x="58" y="-93" on="1"/>
      </contour>
    </TTGlyph>
    <TTGlyph name="commaaccent" xMin="58" yMin="-171" xMax="154" yMax="-29">
      <contour>
        <pt x="135" y="-29" on="1"/>
        <pt x="153" y="-41" on="0"/>
        <pt x="153" y="-81" on="0"/>
        <pt x="140" y="-105" on="1"/>
        <pt x="101" y="-171" on="1"/>
        <pt x="58" y="-149" on="1"/>
        <pt x="76" y="-88" on="1"/>
        <pt x="85" y="-55" on="0"/>
        <pt x="79" y="-29" on="1"/>
      </contour>
    </TTGlyph>
    <TTGlyph name="copyright" xMin="48" yMin="-16" xMax="762" yMax="698">
      <contour>
        <pt x="256" y="-16" on="0"/>
        <pt x="48" y="192" on="0"/>
        <pt x="48" y="489" on="0"/>
        <pt x="256" y="698" on="0"/>
        <pt x="552" y="698" on="0"/>
        <pt x="762" y="488" on="0"/>
        <pt x="762" y="192" on="0"/>
        <pt x="553" y="-16" on="0"/>
      </contour>
      <contour>
        <pt x="274" y="24" on="0"/>
        <pt x="534" y="24" on="0"/>
        <pt x="720" y="210" on="0"/>
        <pt x="720" y="471" on="0"/>
        <pt x="534" y="658" on="0"/>
        <pt x="274" y="658" on="0"/>
        <pt x="90" y="471" on="0"/>
        <pt x="90" y="210" on="0"/>
      </contour>
      <contour>
        <pt x="537" y="166" on="1"/>
        <pt x="488" y="114" on="0"/>
        <pt x="313" y="114" on="0"/>
        <pt x="237" y="234" on="0"/>
        <pt x="237" y="443" on="0"/>
        <pt x="337" y="572" on="0"/>
        <pt x="430" y="572" on="1"/>
        <pt x="477" y="572" on="0"/>
        <pt x="515" y="557" on="1"/>
        <pt x="501" y="505" on="1"/>
        <pt x="466" y="513" on="0"/>
        <pt x="437" y="513" on="1"/>
        <pt x="366" y="513" on="0"/>
        <pt x="308" y="424" on="0"/>
        <pt x="308" y="260" on="0"/>
        <pt x="354" y="172" on="0"/>
        <pt x="477" y="172" on="0"/>
        <pt x="523" y="206" on="1"/>
      </contour>
    </TTGlyph>
    <TTGlyph name="currency" xMin="60" yMin="117" xMax="402" yMax="461">
      <contour>
        <pt x="105" y="208" on="1"/>
        <pt x="82" y="243" on="0"/>
        <pt x="82" y="336" on="0"/>
        <pt x="107" y="373" on="1"/>
        <pt x="63" y="419" on="1"/>
        <pt x="105" y="461" on="1"/>
        <pt x="150" y="416" on="1"/>
        <pt x="188" y="439" on="0"/>
        <pt x="276" y="439" on="0"/>
        <pt x="311" y="416" on="1"/>
        <pt x="357" y="461" on="1"/>
        <pt x="399" y="420" on="1"/>
        <pt x="354" y="375" on="1"/>
        <pt x="381" y="337" on="0"/>
        <pt x="381" y="245" on="0"/>
        <pt x="357" y="208" on="1"/>
        <pt x="402" y="164" on="1"/>
        <pt x="355" y="117" on="1"/>
        <pt x="310" y="162" on="1"/>
        <pt x="274" y="140" on="0"/>
        <pt x="187" y="140" on="0"/>
        <pt x="151" y="162" on="1"/>
        <pt x="107" y="117" on="1"/>
        <pt x="60" y="163" on="1"/>
      </contour>
      <contour>
        <pt x="130" y="330" on="0"/>
        <pt x="130" y="248" on="0"/>
        <pt x="190" y="188" on="0"/>
        <pt x="272" y="188" on="0"/>
        <pt x="333" y="248" on="0"/>
        <pt x="333" y="330" on="0"/>
        <pt x="272" y="392" on="0"/>
        <pt x="191" y="392" on="0"/>
      </contour>
    </TTGlyph>
    <TTGlyph name="d" xMin="55" yMin="-12" xMax="505" yMax="745">
      <contour>
        <pt x="222" y="-12" on="1"/>
        <pt x="135" y="-12" on="0"/>
        <pt x="55" y="108" on="0"/>
        <pt x="55" y="329" on="0"/>
        <pt x="168" y="482" on="0"/>
        <pt x="278" y="482" on="1"/>
        <pt x="321" y="482" on="0"/>
        <pt x="365" y="464" on="1"/>
        <pt x="365" y="733" on="1"/>
        <pt x="432" y="745" on="1"/>
        <pt x="432" y="197" on="1"/>
        <pt x="432" y="108" on="0"/>
        <pt x="458" y="41" on="0"/>
        <pt x="503" y="41" on="1"/>
        <pt x="505" y="-4" on="1"/>
        <pt x="492" y="-8" on="0"/>
        <pt x="465" y="-8" on="1"/>
        <pt x="415" y="-8" on="0"/>
        <pt x="376" y="52" on="0"/>
        <pt x="376" y="91" on="1"/>
        <pt x="376" y="101" on="0"/>
        <pt x="377" y="113" on="1"/>
        <pt x="371" y="113" on="1"/>
        <pt x="331" y="-12" on="0"/>
      </contour>
      <contour>
        <pt x="365" y="311" on="1"/>
        <pt x="365" y="414" on="1"/>
        <pt x="336" y="429" on="0"/>
        <pt x="278" y="429" on="1"/>
        <pt x="130" y="429" on="0"/>
        <pt x="130" y="206" on="1"/>
        <pt x="130" y="43" on="0"/>
        <pt x="229" y="43" on="1"/>
        <pt x="268" y="43" on="0"/>
        <pt x="325" y="94" on="0"/>
        <pt x="339" y="136" on="1"/>
        <pt x="365" y="215" on="0"/>
      </contour>
    </TTGlyph>
    <TTGlyph name="degree" xMin="56" yMin="463" xMax="295" yMax="702">
      <contour>
        <pt x="56" y="532" on="0"/>
        <pt x="56" y="632" on="0"/>
        <pt x="125" y="702" on="0"/>
        <pt x="225" y="702" on="0"/>
        <pt x="295" y="632" on="0"/>
        <pt x="295" y="532" on="0"/>
        <pt x="225" y="463" on="0"/>
        <pt x="126" y="463" on="0"/>
      </contour>
      <contour>
        <pt x="145" y="658" on="0"/>
        <pt x="101" y="613" on="0"/>
        <pt x="101" y="552" on="0"/>
        <pt x="145" y="508" on="0"/>
        <pt x="206" y="508" on="0"/>
        <pt x="250" y="552" on="0"/>
        <pt x="250" y="613" on="0"/>
        <pt x="206" y="658" on="0"/>
      </contour>
    </TTGlyph>
    <TTGlyph name="dieresis" xMin="145" yMin="560" xMax="387" yMax="645">
      <contour>
        <pt x="145" y="601" on="1"/>
        <pt x="145" y="645" on="0"/>
        <pt x="188" y="645" on="1"/>
        <pt x="206" y="645" on="0"/>
        <pt x="227" y="622" on="0"/>
        <pt x="227" y="583" on="0"/>
        <pt x="205" y="560" on="0"/>
        <pt x="167" y="560" on="0"/>
        <pt x="145" y="582" on="0"/>
      </contour>
      <contour>
        <pt x="305" y="601" on="1"/>
        <pt x="305" y="645" on="0"/>
        <pt x="348" y="645" on="1"/>
        <pt x="366" y="645" on="0"/>
        <pt x="387" y="622" on="0"/>
        <pt x="387" y="583" on="0"/>
        <pt x="365" y="560" on="0"/>
        <pt x="327" y="560" on="0"/>
        <pt x="305" y="582" on="0"/>
      </contour>
    </TTGlyph>
    <TTGlyph name="dieresis.cap" xMin="60" yMin="745" xMax="272" yMax="830">
      <contour>
        <pt x="60" y="786" on="1"/>
        <pt x="60" y="830" on="0"/>
        <pt x="103" y="830" on="1"/>
        <pt x="121" y="830" on="0"/>
        <pt x="142" y="807" on="0"/>
        <pt x="142" y="768" on="0"/>
        <pt x="120" y="745" on="0"/>
        <pt x="82" y="745" on="0"/>
        <pt x="60" y="767" on="0"/>
      </contour>
      <contour>
        <pt x="190" y="786" on="1"/>
        <pt x="190" y="830" on="0"/>
        <pt x="233" y="830" on="1"/>
        <pt x="251" y="830" on="0"/>
        <pt x="272" y="807" on="0"/>
        <pt x="272" y="768" on="0"/>
        <pt x="250" y="745" on="0"/>
        <pt x="212" y="745" on="0"/>
        <pt x="190" y="767" on="0"/>
      </contour>
    </TTGlyph>
    <TTGlyph name="divide" xMin="51" yMin="101" xMax="358" yMax="475">
      <contour>
        <pt x="243" y="475" on="0"/>
        <pt x="243" y="393" on="0"/>
        <pt x="164" y="393" on="0"/>
        <pt x="164" y="475" on="0"/>
        <pt x="205" y="475" on="1"/>
      </contour>
      <contour>
        <pt x="243" y="183" on="0"/>
        <pt x="243" y="101" on="0"/>
        <pt x="164" y="101" on="0"/>
        <pt x="164" y="183" on="0"/>
        <pt x="205" y="183" on="1"/>
      </contour>
      <contour>
        <pt x="51" y="257" on="1"/>
        <pt x="51" y="324" on="1"/>
        <pt x="358" y="320" on="1"/>
        <pt x="352" y="261" on="1"/>
      </contour>
    </TTGlyph>
    <TTGlyph name="dollar" xMin="89" yMin="-83" xMax="489" yMax="745">
      <contour>
        <pt x="113" y="568" on="0"/>
        <pt x="216" y="659" on="0"/>
        <pt x="292" y="664" on="1"/>
        <pt x="296" y="745" on="1"/>
        <pt x="321" y="745" on="0"/>
        <pt x="336" y="740" on="1"/>
        <pt x="332" y="664" on="1"/>
        <pt x="399" y="661" on="0"/>
        <pt x="457" y="638" on="1"/>
        <pt x="442" y="586" on="1"/>
        <pt x="383" y="604" on="0"/>
        <pt x="330" y="605" on="1"/>
        <pt x="320" y="371" on="1"/>
        <pt x="354" y="356" on="0"/>
        <pt x="385" y="341" on="0"/>
        <pt x="441" y="304" on="0"/>
        <pt x="454" y="287" on="1"/>
        <pt x="489" y="241" on="0"/>
        <pt x="489" y="103" on="0"/>
        <pt x="386" y="6" on="0"/>
        <pt x="303" y="-3" on="1"/>
        <pt x="300" y="-83" on="1"/>
        <pt x="260" y="-83" on="1"/>
        <pt x="263" y="-5" on="1"/>
        <pt x="167" y="-3" on="0"/>
        <pt x="89" y="57" on="1"/>
        <pt x="105" y="107" on="1"/>
        <pt x="182" y="56" on="0"/>
        <pt x="266" y="56" on="1"/>
        <pt x="277" y="310" on="1"/>
        <pt x="173" y="357" on="0"/>
        <pt x="146" y="394" on="1"/>
        <pt x="113" y="441" on="0"/>
      </contour>
      <contour>
        <pt x="355" y="68" on="0"/>
        <pt x="414" y="129" on="0"/>
        <pt x="414" y="218" on="0"/>
        <pt x="364" y="270" on="0"/>
        <pt x="316" y="293" on="1"/>
        <pt x="306" y="59" on="1"/>
      </contour>
      <contour>
        <pt x="190" y="504" on="1"/>
        <pt x="190" y="433" on="0"/>
        <pt x="280" y="390" on="1"/>
        <pt x="290" y="602" on="1"/>
        <pt x="246" y="594" on="0"/>
        <pt x="190" y="542" on="0"/>
      </contour>
    </TTGlyph>
    <TTGlyph name="dotaccentcmb" xMin="60" yMin="560" xMax="148" yMax="651">
      <contour>
        <pt x="60" y="604" on="1"/>
        <pt x="60" y="651" on="0"/>
        <pt x="106" y="651" on="1"/>
        <pt x="148" y="651" on="0"/>
        <pt x="148" y="560" on="0"/>
        <pt x="60" y="560" on="0"/>
      </contour>
    </TTGlyph>
    <TTGlyph name="dotaccentcmb.cap" xMin="60" yMin="724" xMax="148" yMax="815">
      <contour>
        <pt x="60" y="768" on="1"/>
        <pt x="60" y="815" on="0"/>
        <pt x="106" y="815" on="1"/>
        <pt x="148" y="815" on="0"/>
        <pt x="148" y="724" on="0"/>
        <pt x="60" y="724" on="0"/>
      </contour>
    </TTGlyph>
    <TTGlyph name="dotlessi" xMin="92" yMin="-8" xMax="220" yMax="470">
      <contour>
        <pt x="92" y="84" on="1"/>
        <pt x="92" y="470" on="1"/>
        <pt x="164" y="470" on="1"/>
        <pt x="164" y="127" on="1"/>
        <pt x="164" y="74" on="0"/>
        <pt x="180" y="43" on="0"/>
        <pt x="218" y="43" on="1"/>
        <pt x="220" y="-1" on="1"/>
        <pt x="200" y="-8" on="0"/>
        <pt x="180" y="-8" on="1"/>
        <pt x="131" y="-8" on="0"/>
        <pt x="92" y="33" on="0"/>
      </contour>
    </TTGlyph>
    <TTGlyph name="dotlessj" xMin="-49" yMin="-240" xMax="162" yMax="470">
      <contour>
        <pt x="-39" y="-183" on="1"/>
        <pt x="-25" y="-187" on="0"/>
        <pt x="20" y="-187" on="0"/>
        <pt x="49" y="-178" on="0"/>
        <pt x="67" y="-166" on="0"/>
        <pt x="80" y="-140" on="0"/>
        <pt x="86" y="-120" on="0"/>
        <pt x="90" y="-80" on="0"/>
        <pt x="90" y="-68" on="1"/>
        <pt x="90" y="470" on="1"/>
        <pt x="162" y="470" on="1"/>
        <pt x="162" y="-31" on="1"/>
        <pt x="162" y="-138" on="0"/>
        <pt x="100" y="-240" on="0"/>
        <pt x="10" y="-240" on="1"/>
        <pt x="-23" y="-240" on="0"/>
        <pt x="-49" y="-227" on="1"/>
      </contour>
    </TTGlyph>
    <TTGlyph name="e" xMin="56" yMin="-12" xMax="403" yMax="482">
      <contour>
        <pt x="330" y="367" on="1"/>
        <pt x="330" y="396" on="0"/>
        <pt x="294" y="426" on="0"/>
        <pt x="264" y="426" on="1"/>
        <pt x="204" y="426" on="0"/>
        <pt x="136" y="327" on="0"/>
        <pt x="131" y="257" on="1"/>
        <pt x="330" y="257" on="0"/>
      </contour>
      <contour>
        <pt x="244" y="-12" on="1"/>
        <pt x="56" y="-12" on="0"/>
        <pt x="56" y="228" on="1"/>
        <pt x="56" y="338" on="0"/>
        <pt x="167" y="482" on="0"/>
        <pt x="268" y="482" on="1"/>
        <pt x="330" y="482" on="0"/>
        <pt x="403" y="423" on="0"/>
        <pt x="403" y="320" on="0"/>
        <pt x="354" y="255" on="0"/>
        <pt x="312" y="238" on="1"/>
        <pt x="233" y="206" on="0"/>
        <pt x="129" y="206" on="1"/>
        <pt x="129" y="47" on="0"/>
        <pt x="256" y="47" on="1"/>
        <pt x="320" y="47" on="0"/>
        <pt x="377" y="82" on="1"/>
        <pt x="388" y="43" on="1"/>
        <pt x="363" y="18" on="0"/>
        <pt x="282" y="-12" on="0"/>
      </contour>
    </TTGlyph>
    <TTGlyph name="eacute" xMin="56" yMin="-12" xMax="403" yMax="686">
      <contour>
        <pt x="330" y="367" on="1"/>
        <pt x="330" y="396" on="0"/>
        <pt x="294" y="426" on="0"/>
        <pt x="264" y="426" on="1"/>
        <pt x="204" y="426" on="0"/>
        <pt x="136" y="327" on="0"/>
        <pt x="131" y="257" on="1"/>
        <pt x="330" y="257" on="0"/>
      </contour>
      <contour>
        <pt x="244" y="-12" on="1"/>
        <pt x="56" y="-12" on="0"/>
        <pt x="56" y="228" on="1"/>
        <pt x="56" y="338" on="0"/>
        <pt x="167" y="482" on="0"/>
        <pt x="268" y="482" on="1"/>
        <pt x="330" y="482" on="0"/>
        <pt x="403" y="423" on="0"/>
        <pt x="403" y="320" on="0"/>
        <pt x="354" y="255" on="0"/>
        <pt x="312" y="238" on="1"/>
        <pt x="233" y="206" on="0"/>
        <pt x="129" y="206" on="1"/>
        <pt x="129" y="47" on="0"/>
        <pt x="256" y="47" on="1"/>
        <pt x="320" y="47" on="0"/>
        <pt x="377" y="82" on="1"/>
        <pt x="388" y="43" on="1"/>
        <pt x="363" y="18" on="0"/>
        <pt x="282" y="-12" on="0"/>
      </contour>
      <contour>
        <pt x="208" y="550" on="1"/>
        <pt x="267" y="633" on="1"/>
        <pt x="304" y="686" on="0"/>
        <pt x="325" y="686" on="1"/>
        <pt x="337" y="683" on="1"/>
        <pt x="367" y="648" on="1"/>
        <pt x="238" y="530" on="1"/>
      </contour>
    </TTGlyph>
    <TTGlyph name="ecircumflex" xMin="56" yMin="-12" xMax="403" yMax="659">
      <contour>
        <pt x="330" y="367" on="1"/>
        <pt x="330" y="396" on="0"/>
        <pt x="294" y="426" on="0"/>
        <pt x="264" y="426" on="1"/>
        <pt x="204" y="426" on="0"/>
        <pt x="136" y="327" on="0"/>
        <pt x="131" y="257" on="1"/>
        <pt x="330" y="257" on="0"/>
      </contour>
      <contour>
        <pt x="244" y="-12" on="1"/>
        <pt x="56" y="-12" on="0"/>
        <pt x="56" y="228" on="1"/>
        <pt x="56" y="338" on="0"/>
        <pt x="167" y="482" on="0"/>
        <pt x="268" y="482" on="1"/>
        <pt x="330" y="482" on="0"/>
        <pt x="403" y="423" on="0"/>
        <pt x="403" y="320" on="0"/>
        <pt x="354" y="255" on="0"/>
        <pt x="312" y="238" on="1"/>
        <pt x="233" y="206" on="0"/>
        <pt x="129" y="206" on="1"/>
        <pt x="129" y="47" on="0"/>
        <pt x="256" y="47" on="1"/>
        <pt x="320" y="47" on="0"/>
        <pt x="377" y="82" on="1"/>
        <pt x="388" y="43" on="1"/>
        <pt x="363" y="18" on="0"/>
        <pt x="282" y="-12" on="0"/>
      </contour>
      <contour>
        <pt x="129" y="550" on="1"/>
        <pt x="202" y="650" on="1"/>
        <pt x="272" y="659" on="1"/>
        <pt x="293" y="652" on="0"/>
        <pt x="307" y="630" on="1"/>
        <pt x="363" y="550" on="1"/>
        <pt x="333" y="530" on="1"/>
        <pt x="246" y="609" on="1"/>
        <pt x="159" y="530" on="1"/>
      </contour>
    </TTGlyph>
    <TTGlyph name="edieresis" xMin="56" yMin="-12" xMax="403" yMax="645">
      <contour>
        <pt x="330" y="367" on="1"/>
        <pt x="330" y="396" on="0"/>
        <pt x="294" y="426" on="0"/>
        <pt x="264" y="426" on="1"/>
        <pt x="204" y="426" on="0"/>
        <pt x="136" y="327" on="0"/>
        <pt x="131" y="257" on="1"/>
        <pt x="330" y="257" on="0"/>
      </contour>
      <contour>
        <pt x="244" y="-12" on="1"/>
        <pt x="56" y="-12" on="0"/>
        <pt x="56" y="228" on="1"/>
        <pt x="56" y="338" on="0"/>
        <pt x="167" y="482" on="0"/>
        <pt x="268" y="482" on="1"/>
        <pt x="330" y="482" on="0"/>
        <pt x="403" y="423" on="0"/>
        <pt x="403" y="320" on="0"/>
        <pt x="354" y="255" on="0"/>
        <pt x="312" y="238" on="1"/>
        <pt x="233" y="206" on="0"/>
        <pt x="129" y="206" on="1"/>
        <pt x="129" y="47" on="0"/>
        <pt x="256" y="47" on="1"/>
        <pt x="320" y="47" on="0"/>
        <pt x="377" y="82" on="1"/>
        <pt x="388" y="43" on="1"/>
        <pt x="363" y="18" on="0"/>
        <pt x="282" y="-12" on="0"/>
      </contour>
      <contour>
        <pt x="123" y="601" on="1"/>
        <pt x="123" y="645" on="0"/>
        <pt x="166" y="645" on="1"/>
        <pt x="184" y="645" on="0"/>
        <pt x="205" y="622" on="0"/>
        <pt x="205" y="583" on="0"/>
        <pt x="183" y="560" on="0"/>
        <pt x="145" y="560" on="0"/>
        <pt x="123" y="582" on="0"/>
      </contour>
      <contour>
        <pt x="283" y="601" on="1"/>
        <pt x="283" y="645" on="0"/>
        <pt x="326" y="645" on="1"/>
        <pt x="344" y="645" on="0"/>
        <pt x="365" y="622" on="0"/>
        <pt x="365" y="583" on="0"/>
        <pt x="343" y="560" on="0"/>
        <pt x="305" y="560" on="0"/>
        <pt x="283" y="582" on="0"/>
      </contour>
    </TTGlyph>
    <TTGlyph name="egrave" xMin="56" yMin="-12" xMax="403" yMax="686">
      <contour>
        <pt x="330" y="367" on="1"/>
        <pt x="330" y="396" on="0"/>
        <pt x="294" y="426" on="0"/>
        <pt x="264" y="426" on="1"/>
        <pt x="204" y="426" on="0"/>
        <pt x="136" y="327" on="0"/>
        <pt x="131" y="257" on="1"/>
        <pt x="330" y="257" on="0"/>
      </contour>
      <contour>
        <pt x="244" y="-12" on="1"/>
        <pt x="56" y="-12" on="0"/>
        <pt x="56" y="228" on="1"/>
        <pt x="56" y="338" on="0"/>
        <pt x="167" y="482" on="0"/>
        <pt x="268" y="482" on="1"/>
        <pt x="330" y="482" on="0"/>
        <pt x="403" y="423" on="0"/>
        <pt x="403" y="320" on="0"/>
        <pt x="354" y="255" on="0"/>
        <pt x="312" y="238" on="1"/>
        <pt x="233" y="206" on="0"/>
        <pt x="129" y="206" on="1"/>
        <pt x="129" y="47" on="0"/>
        <pt x="256" y="47" on="1"/>
        <pt x="320" y="47" on="0"/>
        <pt x="377" y="82" on="1"/>
        <pt x="388" y="43" on="1"/>
        <pt x="363" y="18" on="0"/>
        <pt x="282" y="-12" on="0"/>
      </contour>
      <contour>
        <pt x="179" y="686" on="1"/>
        <pt x="200" y="686" on="0"/>
        <pt x="237" y="633" on="1"/>
        <pt x="296" y="550" on="1"/>
        <pt x="266" y="530" on="1"/>
        <pt x="137" y="648" on="1"/>
        <pt x="167" y="683" on="1"/>
        <pt x="172" y="686" on="0"/>
      </contour>
    </TTGlyph>
    <TTGlyph name="eight" xMin="63" yMin="-12" xMax="488" yMax="671">
      <contour>
        <pt x="98" y="499" on="1"/>
        <pt x="98" y="573" on="0"/>
        <pt x="200" y="671" on="0"/>
        <pt x="349" y="671" on="0"/>
        <pt x="453" y="582" on="0"/>
        <pt x="453" y="509" on="1"/>
        <pt x="453" y="410" on="0"/>
        <pt x="359" y="348" on="1"/>
        <pt x="420" y="321" on="0"/>
        <pt x="488" y="245" on="0"/>
        <pt x="488" y="177" on="1"/>
        <pt x="488" y="88" on="0"/>
        <pt x="367" y="-12" on="0"/>
        <pt x="182" y="-12" on="0"/>
        <pt x="63" y="85" on="0"/>
        <pt x="63" y="172" on="1"/>
        <pt x="63" y="227" on="0"/>
        <pt x="129" y="324" on="0"/>
        <pt x="182" y="353" on="1"/>
        <pt x="98" y="404" on="0"/>
      </contour>
      <contour>
        <pt x="133" y="173" on="1"/>
        <pt x="133" y="116" on="0"/>
        <pt x="214" y="49" on="0"/>
        <pt x="335" y="49" on="0"/>
        <pt x="418" y="115" on="0"/>
        <pt x="418" y="173" on="1"/>
        <pt x="418" y="212" on="0"/>
        <pt x="385" y="249" on="0"/>
        <pt x="366" y="266" on="0"/>
        <pt x="322" y="288" on="0"/>
        <pt x="311" y="293" on="1"/>
        <pt x="268" y="313" on="0"/>
        <pt x="231" y="326" on="1"/>
        <pt x="133" y="264" on="0"/>
      </contour>
      <contour>
        <pt x="382" y="503" on="1"/>
        <pt x="382" y="553" on="0"/>
        <pt x="323" y="610" on="0"/>
        <pt x="227" y="610" on="0"/>
        <pt x="166" y="551" on="0"/>
        <pt x="166" y="456" on="0"/>
        <pt x="231" y="403" on="0"/>
        <pt x="306" y="371" on="1"/>
        <pt x="382" y="428" on="0"/>
      </contour>
    </TTGlyph>
    <TTGlyph name="ellipsis" xMin="73" yMin="-12" xMax="551" yMax="79">
      <contour>
        <pt x="73" y="32" on="1"/>
        <pt x="73" y="79" on="0"/>
        <pt x="119" y="79" on="1"/>
        <pt x="161" y="79" on="0"/>
        <pt x="161" y="-12" on="0"/>
        <pt x="73" y="-12" on="0"/>
      </contour>
      <contour>
        <pt x="268" y="32" on="1"/>
        <pt x="268" y="79" on="0"/>
        <pt x="314" y="79" on="1"/>
        <pt x="356" y="79" on="0"/>
        <pt x="356" y="-12" on="0"/>
        <pt x="268" y="-12" on="0"/>
      </contour>
      <contour>
        <pt x="463" y="32" on="1"/>
        <pt x="463" y="79" on="0"/>
        <pt x="509" y="79" on="1"/>
        <pt x="551" y="79" on="0"/>
        <pt x="551" y="-12" on="0"/>
        <pt x="463" y="-12" on="0"/>
      </contour>
    </TTGlyph>
    <TTGlyph name="emdash" xMin="51" yMin="232" xMax="480" yMax="299">
      <contour>
        <pt x="51" y="232" on="1"/>
        <pt x="51" y="299" on="1"/>
        <pt x="480" y="295" on="1"/>
        <pt x="474" y="236" on="1"/>
      </contour>
    </TTGlyph>
    <TTGlyph name="endash" xMin="51" yMin="232" xMax="390" yMax="299">
      <contour>
        <pt x="51" y="232" on="1"/>
        <pt x="51" y="299" on="1"/>
        <pt x="390" y="295" on="1"/>
        <pt x="384" y="236" on="1"/>
      </contour>
    </TTGlyph>
    <TTGlyph name="eogonek" xMin="54" yMin="-204" xMax="403" yMax="482">
      <contour>
        <pt x="263" y="-136" on="0"/>
        <pt x="284" y="-157" on="0"/>
        <pt x="320" y="-157" on="0"/>
        <pt x="333" y="-148" on="1"/>
        <pt x="344" y="-185" on="1"/>
        <pt x="326" y="-204" on="0"/>
        <pt x="247" y="-204" on="0"/>
        <pt x="199" y="-167" on="0"/>
        <pt x="199" y="-83" on="0"/>
        <pt x="259" y="-11" on="1"/>
        <pt x="250" y="-12" on="0"/>
        <pt x="241" y="-12" on="1"/>
        <pt x="54" y="-12" on="0"/>
        <pt x="54" y="218" on="1"/>
        <pt x="54" y="332" on="0"/>
        <pt x="165" y="482" on="0"/>
        <pt x="268" y="482" on="1"/>
        <pt x="330" y="482" on="0"/>
        <pt x="403" y="423" on="0"/>
        <pt x="403" y="320" on="0"/>
        <pt x="354" y="255" on="0"/>
        <pt x="312" y="238" on="1"/>
        <pt x="233" y="206" on="0"/>
        <pt x="129" y="206" on="1"/>
        <pt x="129" y="47" on="0"/>
        <pt x="253" y="47" on="1"/>
        <pt x="316" y="47" on="0"/>
        <pt x="371" y="82" on="1"/>
        <pt x="382" y="43" on="1"/>
        <pt x="361" y="22" on="0"/>
        <pt x="325" y="4" on="1"/>
        <pt x="303" y="-10" on="0"/>
        <pt x="263" y="-89" on="0"/>
      </contour>
      <contour>
        <pt x="330" y="367" on="1"/>
        <pt x="330" y="396" on="0"/>
        <pt x="294" y="426" on="0"/>
        <pt x="264" y="426" on="1"/>
        <pt x="204" y="426" on="0"/>
        <pt x="136" y="327" on="0"/>
        <pt x="131" y="257" on="1"/>
        <pt x="330" y="257" on="0"/>
      </contour>
    </TTGlyph>
    <TTGlyph name="equal" xMin="51" yMin="182" xMax="379" yMax="373">
      <contour>
        <pt x="51" y="306" on="1"/>
        <pt x="51" y="373" on="1"/>
        <pt x="379" y="369" on="1"/>
        <pt x="373" y="310" on="1"/>
      </contour>
      <contour>
        <pt x="51" y="182" on="1"/>
        <pt x="51" y="249" on="1"/>
        <pt x="379" y="245" on="1"/>
        <pt x="373" y="186" on="1"/>
      </contour>
    </TTGlyph>
    <TTGlyph name="eth" xMin="53" yMin="-12" xMax="464" yMax="748">
      <contour>
        <pt x="370" y="27" on="1"/>
        <pt x="322" y="-12" on="0"/>
        <pt x="251" y="-12" on="1"/>
        <pt x="163" y="-12" on="0"/>
        <pt x="53" y="117" on="0"/>
        <pt x="53" y="307" on="0"/>
        <pt x="150" y="428" on="0"/>
        <pt x="241" y="428" on="1"/>
        <pt x="294" y="428" on="0"/>
        <pt x="353" y="412" on="1"/>
        <pt x="327" y="487" on="0"/>
        <pt x="284" y="557" on="1"/>
        <pt x="148" y="505" on="1"/>
        <pt x="128" y="563" on="1"/>
        <pt x="250" y="606" on="1"/>
        <pt x="204" y="669" on="0"/>
        <pt x="154" y="716" on="1"/>
        <pt x="207" y="748" on="1"/>
        <pt x="268" y="698" on="0"/>
        <pt x="318" y="631" on="1"/>
        <pt x="452" y="682" on="1"/>
        <pt x="464" y="620" on="1"/>
        <pt x="353" y="582" on="1"/>
        <pt x="457" y="420" on="0"/>
        <pt x="457" y="99" on="0"/>
      </contour>
      <contour>
        <pt x="257" y="366" on="1"/>
        <pt x="129" y="366" on="0"/>
        <pt x="129" y="209" on="1"/>
        <pt x="129" y="141" on="0"/>
        <pt x="191" y="50" on="0"/>
        <pt x="251" y="50" on="1"/>
        <pt x="351" y="50" on="0"/>
        <pt x="374" y="186" on="1"/>
        <pt x="380" y="222" on="0"/>
        <pt x="380" y="302" on="0"/>
        <pt x="370" y="352" on="1"/>
        <pt x="309" y="366" on="0"/>
      </contour>
    </TTGlyph>
    <TTGlyph name="exclam" xMin="80" yMin="-12" xMax="176" yMax="746">
      <contour>
        <pt x="172" y="-12" on="0"/>
        <pt x="80" y="-12" on="0"/>
        <pt x="80" y="83" on="0"/>
        <pt x="124" y="83" on="1"/>
        <pt x="172" y="83" on="0"/>
        <pt x="172" y="34" on="1"/>
        <pt x="172" y="-12" on="0"/>
        <pt x="80" y="-12" on="0"/>
        <pt x="80" y="83" on="0"/>
        <pt x="124" y="83" on="1"/>
        <pt x="172" y="83" on="0"/>
        <pt x="172" y="34" on="1"/>
      </contour>
      <contour>
        <pt x="119" y="746" on="1"/>
        <pt x="121" y="746" on="0"/>
        <pt x="176" y="733" on="1"/>
        <pt x="148" y="183" on="1"/>
        <pt x="95" y="183" on="1"/>
        <pt x="96" y="663" on="1"/>
        <pt x="96" y="708" on="0"/>
        <pt x="106" y="746" on="0"/>
      </contour>
    </TTGlyph>
    <TTGlyph name="exclamdown" xMin="80" yMin="-241" xMax="182" yMax="482">
      <contour>
        <pt x="138" y="387" on="1"/>
        <pt x="90" y="387" on="0"/>
        <pt x="90" y="436" on="1"/>
        <pt x="90" y="482" on="0"/>
        <pt x="182" y="482" on="0"/>
        <pt x="182" y="387" on="0"/>
        <pt x="138" y="387" on="1"/>
        <pt x="90" y="387" on="0"/>
        <pt x="90" y="436" on="1"/>
        <pt x="90" y="482" on="0"/>
        <pt x="182" y="482" on="0"/>
        <pt x="182" y="387" on="0"/>
      </contour>
      <contour>
        <pt x="137" y="-241" on="1"/>
        <pt x="135" y="-241" on="0"/>
        <pt x="80" y="-228" on="1"/>
        <pt x="108" y="287" on="1"/>
        <pt x="161" y="287" on="1"/>
        <pt x="160" y="-158" on="1"/>
        <pt x="160" y="-203" on="0"/>
        <pt x="150" y="-241" on="0"/>
      </contour>
    </TTGlyph>
    <TTGlyph name="f" xMin="40" yMin="-175" xMax="331" yMax="745">
      <contour>
        <pt x="40" y="417" on="1"/>
        <pt x="40" y="460" on="1"/>
        <pt x="120" y="470" on="1"/>
        <pt x="120" y="538" on="1"/>
        <pt x="120" y="745" on="0"/>
        <pt x="272" y="745" on="1"/>
        <pt x="305" y="745" on="0"/>
        <pt x="331" y="732" on="1"/>
        <pt x="321" y="688" on="1"/>
        <pt x="307" y="692" on="0"/>
        <pt x="251" y="692" on="0"/>
        <pt x="214" y="667" on="0"/>
        <pt x="206" y="643" on="1"/>
        <pt x="192" y="605" on="0"/>
        <pt x="192" y="536" on="1"/>
        <pt x="192" y="470" on="1"/>
        <pt x="321" y="470" on="1"/>
        <pt x="321" y="417" on="1"/>
        <pt x="192" y="417" on="1"/>
        <pt x="191" y="-93" on="1"/>
        <pt x="191" y="-135" on="0"/>
        <pt x="181" y="-172" on="0"/>
        <pt x="163" y="-175" on="1"/>
        <pt x="107" y="-163" on="1"/>
        <pt x="122" y="-145" on="0"/>
        <pt x="122" y="-79" on="1"/>
        <pt x="120" y="417" on="1"/>
      </contour>
    </TTGlyph>
    <TTGlyph name="five" xMin="78" yMin="-12" xMax="485" yMax="659">
      <contour>
        <pt x="94" y="108" on="1"/>
        <pt x="164" y="50" on="0"/>
        <pt x="246" y="50" on="1"/>
        <pt x="408" y="50" on="0"/>
        <pt x="408" y="205" on="1"/>
        <pt x="408" y="274" on="0"/>
        <pt x="329" y="346" on="0"/>
        <pt x="204" y="346" on="0"/>
        <pt x="121" y="335" on="1"/>
        <pt x="143" y="659" on="1"/>
        <pt x="450" y="659" on="1"/>
        <pt x="441" y="597" on="1"/>
        <pt x="208" y="597" on="1"/>
        <pt x="195" y="402" on="1"/>
        <pt x="246" y="408" on="0"/>
        <pt x="289" y="408" on="1"/>
        <pt x="381" y="408" on="0"/>
        <pt x="485" y="299" on="0"/>
        <pt x="485" y="106" on="0"/>
        <pt x="363" y="-12" on="0"/>
        <pt x="266" y="-12" on="1"/>
        <pt x="144" y="-12" on="0"/>
        <pt x="78" y="57" on="1"/>
      </contour>
    </TTGlyph>
    <TTGlyph name="four" xMin="69" yMin="0" xMax="500" yMax="671">
      <contour>
        <pt x="69" y="195" on="1"/>
        <pt x="69" y="222" on="1"/>
        <pt x="227" y="671" on="1"/>
        <pt x="295" y="659" on="1"/>
        <pt x="156" y="257" on="1"/>
        <pt x="350" y="257" on="1"/>
        <pt x="350" y="470" on="1"/>
        <pt x="424" y="470" on="1"/>
        <pt x="424" y="257" on="1"/>
        <pt x="500" y="257" on="1"/>
        <pt x="491" y="195" on="1"/>
        <pt x="424" y="195" on="1"/>
        <pt x="424" y="0" on="1"/>
        <pt x="350" y="0" on="1"/>
        <pt x="350" y="195" on="1"/>
      </contour>
    </TTGlyph>
    <TTGlyph name="g" xMin="56" yMin="-240" xMax="441" yMax="482">
      <contour>
        <pt x="372" y="30" on="1"/>
        <pt x="372" y="77" on="0"/>
        <pt x="379" y="119" on="1"/>
        <pt x="373" y="119" on="1"/>
        <pt x="335" y="-12" on="0"/>
        <pt x="223" y="-12" on="1"/>
        <pt x="138" y="-12" on="0"/>
        <pt x="56" y="111" on="0"/>
        <pt x="56" y="329" on="0"/>
        <pt x="169" y="482" on="0"/>
        <pt x="279" y="482" on="1"/>
        <pt x="320" y="482" on="0"/>
        <pt x="401" y="465" on="0"/>
        <pt x="440" y="448" on="1"/>
        <pt x="441" y="30" on="1"/>
        <pt x="441" y="-97" on="0"/>
        <pt x="348" y="-240" on="0"/>
        <pt x="238" y="-240" on="1"/>
        <pt x="198" y="-240" on="0"/>
        <pt x="114" y="-211" on="0"/>
        <pt x="89" y="-185" on="1"/>
        <pt x="100" y="-146" on="1"/>
        <pt x="158" y="-184" on="0"/>
        <pt x="313" y="-184" on="0"/>
        <pt x="372" y="-75" on="0"/>
      </contour>
      <contour>
        <pt x="230" y="43" on="1"/>
        <pt x="373" y="43" on="0"/>
        <pt x="373" y="411" on="1"/>
        <pt x="341" y="429" on="0"/>
        <pt x="279" y="429" on="1"/>
        <pt x="131" y="429" on="0"/>
        <pt x="131" y="206" on="1"/>
        <pt x="131" y="137" on="0"/>
        <pt x="177" y="43" on="0"/>
      </contour>
    </TTGlyph>
    <TTGlyph name="germandbls" xMin="40" yMin="-175" xMax="518" yMax="745">
      <contour>
        <pt x="40" y="417" on="1"/>
        <pt x="40" y="460" on="1"/>
        <pt x="120" y="470" on="1"/>
        <pt x="120" y="553" on="1"/>
        <pt x="120" y="644" on="0"/>
        <pt x="209" y="745" on="0"/>
        <pt x="371" y="745" on="0"/>
        <pt x="471" y="670" on="0"/>
        <pt x="471" y="603" on="1"/>
        <pt x="471" y="562" on="0"/>
        <pt x="417" y="469" on="0"/>
        <pt x="363" y="388" on="0"/>
        <pt x="363" y="336" on="0"/>
        <pt x="395" y="294" on="0"/>
        <pt x="440" y="259" on="0"/>
        <pt x="463" y="240" on="1"/>
        <pt x="518" y="193" on="0"/>
        <pt x="518" y="62" on="0"/>
        <pt x="422" y="-12" on="0"/>
        <pt x="353" y="-12" on="1"/>
        <pt x="326" y="-12" on="0"/>
        <pt x="264" y="6" on="0"/>
        <pt x="245" y="21" on="1"/>
        <pt x="257" y="61" on="1"/>
        <pt x="306" y="43" on="0"/>
        <pt x="395" y="43" on="0"/>
        <pt x="451" y="84" on="0"/>
        <pt x="451" y="146" on="0"/>
        <pt x="419" y="189" on="0"/>
        <pt x="374" y="225" on="0"/>
        <pt x="351" y="245" on="1"/>
        <pt x="296" y="293" on="0"/>
        <pt x="296" y="360" on="1"/>
        <pt x="296" y="398" on="0"/>
        <pt x="404" y="558" on="0"/>
        <pt x="404" y="642" on="0"/>
        <pt x="345" y="689" on="0"/>
        <pt x="239" y="689" on="0"/>
        <pt x="192" y="621" on="0"/>
        <pt x="192" y="557" on="1"/>
        <pt x="191" y="-93" on="1"/>
        <pt x="191" y="-135" on="0"/>
        <pt x="181" y="-172" on="0"/>
        <pt x="163" y="-175" on="1"/>
        <pt x="107" y="-163" on="1"/>
        <pt x="122" y="-145" on="0"/>
        <pt x="122" y="-79" on="1"/>
        <pt x="120" y="417" on="1"/>
      </contour>
    </TTGlyph>
    <TTGlyph name="grave" xMin="82" yMin="530" xMax="241" yMax="686">
      <contour>
        <pt x="124" y="686" on="1"/>
        <pt x="145" y="686" on="0"/>
        <pt x="182" y="633" on="1"/>
        <pt x="241" y="550" on="1"/>
        <pt x="211" y="530" on="1"/>
        <pt x="82" y="648" on="1"/>
        <pt x="112" y="683" on="1"/>
        <pt x="117" y="686" on="0"/>
      </contour>
    </TTGlyph>
    <TTGlyph name="grave.cap" xMin="60" yMin="723" xMax="241" yMax="846">
      <contour>
        <pt x="77" y="838" on="1"/>
        <pt x="83" y="846" on="0"/>
        <pt x="115" y="846" on="0"/>
        <pt x="159" y="812" on="1"/>
        <pt x="241" y="751" on="1"/>
        <pt x="219" y="723" on="1"/>
        <pt x="60" y="795" on="1"/>
      </contour>
    </TTGlyph>
    <TTGlyph name="greater" xMin="51" yMin="86" xMax="382" yMax="490">
      <contour>
        <pt x="86" y="86" on="1"/>
        <pt x="51" y="139" on="1"/>
        <pt x="321" y="288" on="1"/>
        <pt x="51" y="437" on="1"/>
        <pt x="86" y="490" on="1"/>
        <pt x="382" y="319" on="1"/>
        <pt x="379" y="257" on="1"/>
      </contour>
    </TTGlyph>
    <TTGlyph name="guillemotleft" xMin="60" yMin="29" xMax="456" yMax="423">
      <contour>
        <pt x="71" y="200" on="1"/>
        <pt x="60" y="210" on="0"/>
        <pt x="60" y="222" on="1"/>
        <pt x="60" y="240" on="0"/>
        <pt x="71" y="253" on="1"/>
        <pt x="264" y="423" on="1"/>
        <pt x="271" y="423" on="0"/>
        <pt x="294" y="383" on="0"/>
        <pt x="294" y="375" on="1"/>
        <pt x="141" y="226" on="1"/>
        <pt x="294" y="77" on="1"/>
        <pt x="294" y="69" on="0"/>
        <pt x="271" y="29" on="0"/>
        <pt x="264" y="29" on="1"/>
      </contour>
      <contour>
        <pt x="233" y="200" on="1"/>
        <pt x="222" y="210" on="0"/>
        <pt x="222" y="222" on="1"/>
        <pt x="222" y="240" on="0"/>
        <pt x="233" y="253" on="1"/>
        <pt x="426" y="423" on="1"/>
        <pt x="433" y="423" on="0"/>
        <pt x="456" y="383" on="0"/>
        <pt x="456" y="375" on="1"/>
        <pt x="303" y="226" on="1"/>
        <pt x="456" y="77" on="1"/>
        <pt x="456" y="69" on="0"/>
        <pt x="433" y="29" on="0"/>
        <pt x="426" y="29" on="1"/>
      </contour>
    </TTGlyph>
    <TTGlyph name="guillemotright" xMin="60" yMin="29" xMax="456" yMax="423">
      <contour>
        <pt x="445" y="253" on="1"/>
        <pt x="456" y="242" on="0"/>
        <pt x="456" y="230" on="1"/>
        <pt x="456" y="213" on="0"/>
        <pt x="445" y="200" on="1"/>
        <pt x="252" y="29" on="1"/>
        <pt x="245" y="29" on="0"/>
        <pt x="222" y="69" on="0"/>
        <pt x="222" y="77" on="1"/>
        <pt x="375" y="226" on="1"/>
        <pt x="222" y="375" on="1"/>
        <pt x="222" y="383" on="0"/>
        <pt x="245" y="423" on="0"/>
        <pt x="252" y="423" on="1"/>
      </contour>
      <contour>
        <pt x="283" y="253" on="1"/>
        <pt x="294" y="242" on="0"/>
        <pt x="294" y="230" on="1"/>
        <pt x="294" y="213" on="0"/>
        <pt x="283" y="200" on="1"/>
        <pt x="90" y="29" on="1"/>
        <pt x="83" y="29" on="0"/>
        <pt x="60" y="69" on="0"/>
        <pt x="60" y="77" on="1"/>
        <pt x="213" y="226" on="1"/>
        <pt x="60" y="375" on="1"/>
        <pt x="60" y="383" on="0"/>
        <pt x="83" y="423" on="0"/>
        <pt x="90" y="423" on="1"/>
      </contour>
    </TTGlyph>
    <TTGlyph name="guilsinglleft" xMin="60" yMin="29" xMax="294" yMax="423">
      <contour>
        <pt x="71" y="200" on="1"/>
        <pt x="60" y="210" on="0"/>
        <pt x="60" y="222" on="1"/>
        <pt x="60" y="240" on="0"/>
        <pt x="71" y="253" on="1"/>
        <pt x="264" y="423" on="1"/>
        <pt x="271" y="423" on="0"/>
        <pt x="294" y="383" on="0"/>
        <pt x="294" y="375" on="1"/>
        <pt x="141" y="226" on="1"/>
        <pt x="294" y="77" on="1"/>
        <pt x="294" y="69" on="0"/>
        <pt x="271" y="29" on="0"/>
        <pt x="264" y="29" on="1"/>
      </contour>
    </TTGlyph>
    <TTGlyph name="guilsinglright" xMin="60" yMin="29" xMax="294" yMax="423">
      <contour>
        <pt x="283" y="253" on="1"/>
        <pt x="294" y="242" on="0"/>
        <pt x="294" y="230" on="1"/>
        <pt x="294" y="213" on="0"/>
        <pt x="283" y="200" on="1"/>
        <pt x="90" y="29" on="1"/>
        <pt x="83" y="29" on="0"/>
        <pt x="60" y="69" on="0"/>
        <pt x="60" y="77" on="1"/>
        <pt x="213" y="226" on="1"/>
        <pt x="60" y="375" on="1"/>
        <pt x="60" y="383" on="0"/>
        <pt x="83" y="423" on="0"/>
        <pt x="90" y="423" on="1"/>
      </contour>
    </TTGlyph>
    <TTGlyph name="h" xMin="90" yMin="-8" xMax="499" yMax="745">
      <contour>
        <pt x="161" y="460" on="1"/>
        <pt x="161" y="407" on="0"/>
        <pt x="153" y="371" on="1"/>
        <pt x="159" y="371" on="1"/>
        <pt x="200" y="482" on="0"/>
        <pt x="312" y="482" on="1"/>
        <pt x="391" y="482" on="0"/>
        <pt x="451" y="403" on="0"/>
        <pt x="451" y="324" on="1"/>
        <pt x="451" y="321" on="0"/>
        <pt x="448" y="123" on="0"/>
        <pt x="448" y="69" on="0"/>
        <pt x="461" y="43" on="0"/>
        <pt x="497" y="43" on="1"/>
        <pt x="499" y="-2" on="1"/>
        <pt x="485" y="-8" on="0"/>
        <pt x="458" y="-8" on="1"/>
        <pt x="410" y="-8" on="0"/>
        <pt x="375" y="36" on="0"/>
        <pt x="375" y="84" on="1"/>
        <pt x="375" y="86" on="0"/>
        <pt x="379" y="298" on="0"/>
        <pt x="379" y="302" on="1"/>
        <pt x="379" y="360" on="0"/>
        <pt x="349" y="425" on="0"/>
        <pt x="247" y="425" on="0"/>
        <pt x="180" y="335" on="0"/>
        <pt x="159" y="224" on="0"/>
        <pt x="159" y="159" on="1"/>
        <pt x="159" y="0" on="1"/>
        <pt x="90" y="0" on="1"/>
        <pt x="90" y="733" on="1"/>
        <pt x="161" y="745" on="1"/>
      </contour>
    </TTGlyph>
    <TTGlyph name="hbar" xMin="65" yMin="-8" xMax="538" yMax="745">
      <contour>
        <pt x="200" y="460" on="1"/>
        <pt x="200" y="407" on="0"/>
        <pt x="192" y="371" on="1"/>
        <pt x="198" y="371" on="1"/>
        <pt x="238" y="482" on="0"/>
        <pt x="351" y="482" on="1"/>
        <pt x="430" y="482" on="0"/>
        <pt x="490" y="403" on="0"/>
        <pt x="490" y="324" on="1"/>
        <pt x="490" y="321" on="0"/>
        <pt x="487" y="123" on="0"/>
        <pt x="487" y="69" on="0"/>
        <pt x="500" y="43" on="0"/>
        <pt x="536" y="43" on="1"/>
        <pt x="538" y="-2" on="1"/>
        <pt x="524" y="-8" on="0"/>
        <pt x="497" y="-8" on="1"/>
        <pt x="449" y="-8" on="0"/>
        <pt x="414" y="36" on="0"/>
        <pt x="414" y="84" on="1"/>
        <pt x="414" y="86" on="0"/>
        <pt x="418" y="298" on="0"/>
        <pt x="418" y="302" on="1"/>
        <pt x="418" y="360" on="0"/>
        <pt x="388" y="425" on="0"/>
        <pt x="286" y="425" on="0"/>
        <pt x="219" y="335" on="0"/>
        <pt x="198" y="224" on="0"/>
        <pt x="198" y="159" on="1"/>
        <pt x="198" y="0" on="1"/>
        <pt x="129" y="0" on="1"/>
        <pt x="129" y="555" on="1"/>
        <pt x="65" y="554" on="1"/>
        <pt x="65" y="611" on="1"/>
        <pt x="129" y="610" on="1"/>
        <pt x="129" y="733" on="1"/>
        <pt x="200" y="745" on="1"/>
        <pt x="200" y="609" on="1"/>
        <pt x="363" y="607" on="1"/>
        <pt x="357" y="558" on="1"/>
        <pt x="200" y="556" on="1"/>
      </contour>
    </TTGlyph>
    <TTGlyph name="hyphen" xMin="51" yMin="232" xMax="280" yMax="299">
      <contour>
        <pt x="51" y="232" on="1"/>
        <pt x="51" y="299" on="1"/>
        <pt x="280" y="295" on="1"/>
        <pt x="274" y="236" on="1"/>
      </contour>
    </TTGlyph>
    <TTGlyph name="i" xMin="85" yMin="-8" xMax="220" yMax="674">
      <contour>
        <pt x="174" y="-8" on="1"/>
        <pt x="128" y="-8" on="0"/>
        <pt x="92" y="36" on="0"/>
        <pt x="92" y="86" on="1"/>
        <pt x="92" y="470" on="1"/>
        <pt x="164" y="470" on="1"/>
        <pt x="164" y="127" on="1"/>
        <pt x="164" y="74" on="0"/>
        <pt x="180" y="43" on="0"/>
        <pt x="218" y="43" on="1"/>
        <pt x="220" y="-1" on="1"/>
        <pt x="197" y="-8" on="0"/>
      </contour>
      <contour>
        <pt x="85" y="627" on="1"/>
        <pt x="85" y="674" on="0"/>
        <pt x="131" y="674" on="1"/>
        <pt x="173" y="674" on="0"/>
        <pt x="173" y="583" on="0"/>
        <pt x="85" y="583" on="0"/>
      </contour>
    </TTGlyph>
    <TTGlyph name="iacute" xMin="77" yMin="-8" xMax="236" yMax="686">
      <contour>
        <pt x="92" y="84" on="1"/>
        <pt x="92" y="470" on="1"/>
        <pt x="164" y="470" on="1"/>
        <pt x="164" y="127" on="1"/>
        <pt x="164" y="74" on="0"/>
        <pt x="180" y="43" on="0"/>
        <pt x="218" y="43" on="1"/>
        <pt x="220" y="-1" on="1"/>
        <pt x="200" y="-8" on="0"/>
        <pt x="180" y="-8" on="1"/>
        <pt x="131" y="-8" on="0"/>
        <pt x="92" y="33" on="0"/>
      </contour>
      <contour>
        <pt x="77" y="550" on="1"/>
        <pt x="136" y="633" on="1"/>
        <pt x="173" y="686" on="0"/>
        <pt x="194" y="686" on="1"/>
        <pt x="206" y="683" on="1"/>
        <pt x="236" y="648" on="1"/>
        <pt x="107" y="530" on="1"/>
      </contour>
    </TTGlyph>
    <TTGlyph name="icircumflex" xMin="14" yMin="-8" xMax="248" yMax="659">
      <contour>
        <pt x="92" y="84" on="1"/>
        <pt x="92" y="470" on="1"/>
        <pt x="164" y="470" on="1"/>
        <pt x="164" y="127" on="1"/>
        <pt x="164" y="74" on="0"/>
        <pt x="180" y="43" on="0"/>
        <pt x="218" y="43" on="1"/>
        <pt x="220" y="-1" on="1"/>
        <pt x="200" y="-8" on="0"/>
        <pt x="180" y="-8" on="1"/>
        <pt x="131" y="-8" on="0"/>
        <pt x="92" y="33" on="0"/>
      </contour>
      <contour>
        <pt x="14" y="550" on="1"/>
        <pt x="87" y="650" on="1"/>
        <pt x="157" y="659" on="1"/>
        <pt x="178" y="652" on="0"/>
        <pt x="192" y="630" on="1"/>
        <pt x="248" y="550" on="1"/>
        <pt x="218" y="530" on="1"/>
        <pt x="131" y="609" on="1"/>
        <pt x="44" y="530" on="1"/>
      </contour>
    </TTGlyph>
    <TTGlyph name="idieresis" xMin="19" yMin="-8" xMax="245" yMax="645">
      <contour>
        <pt x="19" y="601" on="1"/>
        <pt x="19" y="645" on="0"/>
        <pt x="62" y="645" on="1"/>
        <pt x="80" y="645" on="0"/>
        <pt x="101" y="622" on="0"/>
        <pt x="101" y="583" on="0"/>
        <pt x="79" y="560" on="0"/>
        <pt x="41" y="560" on="0"/>
        <pt x="19" y="582" on="0"/>
      </contour>
      <contour>
        <pt x="163" y="601" on="1"/>
        <pt x="163" y="645" on="0"/>
        <pt x="206" y="645" on="1"/>
        <pt x="224" y="645" on="0"/>
        <pt x="245" y="622" on="0"/>
        <pt x="245" y="583" on="0"/>
        <pt x="223" y="560" on="0"/>
        <pt x="185" y="560" on="0"/>
        <pt x="163" y="582" on="0"/>
      </contour>
      <contour>
        <pt x="92" y="84" on="1"/>
        <pt x="92" y="470" on="1"/>
        <pt x="164" y="470" on="1"/>
        <pt x="164" y="127" on="1"/>
        <pt x="164" y="74" on="0"/>
        <pt x="180" y="43" on="0"/>
        <pt x="218" y="43" on="1"/>
        <pt x="220" y="-1" on="1"/>
        <pt x="200" y="-8" on="0"/>
        <pt x="180" y="-8" on="1"/>
        <pt x="131" y="-8" on="0"/>
        <pt x="92" y="33" on="0"/>
      </contour>
    </TTGlyph>
    <TTGlyph name="igrave" xMin="20" yMin="-8" xMax="220" yMax="686">
      <contour>
        <pt x="92" y="84" on="1"/>
        <pt x="92" y="470" on="1"/>
        <pt x="164" y="470" on="1"/>
        <pt x="164" y="127" on="1"/>
        <pt x="164" y="74" on="0"/>
        <pt x="180" y="43" on="0"/>
        <pt x="218" y="43" on="1"/>
        <pt x="220" y="-1" on="1"/>
        <pt x="200" y="-8" on="0"/>
        <pt x="180" y="-8" on="1"/>
        <pt x="131" y="-8" on="0"/>
        <pt x="92" y="33" on="0"/>
      </contour>
      <contour>
        <pt x="62" y="686" on="1"/>
        <pt x="83" y="686" on="0"/>
        <pt x="120" y="633" on="1"/>
        <pt x="179" y="550" on="1"/>
        <pt x="149" y="530" on="1"/>
        <pt x="20" y="648" on="1"/>
        <pt x="50" y="683" on="1"/>
        <pt x="55" y="686" on="0"/>
      </contour>
    </TTGlyph>
    <TTGlyph name="ij" xMin="85" yMin="-240" xMax="433" yMax="674">
      <contour>
        <pt x="174" y="-8" on="1"/>
        <pt x="128" y="-8" on="0"/>
        <pt x="92" y="36" on="0"/>
        <pt x="92" y="86" on="1"/>
        <pt x="92" y="470" on="1"/>
        <pt x="164" y="470" on="1"/>
        <pt x="164" y="127" on="1"/>
        <pt x="164" y="74" on="0"/>
        <pt x="180" y="43" on="0"/>
        <pt x="218" y="43" on="1"/>
        <pt x="220" y="-1" on="1"/>
        <pt x="197" y="-8" on="0"/>
      </contour>
      <contour>
        <pt x="85" y="627" on="1"/>
        <pt x="85" y="674" on="0"/>
        <pt x="131" y="674" on="1"/>
        <pt x="173" y="674" on="0"/>
        <pt x="173" y="583" on="0"/>
        <pt x="85" y="583" on="0"/>
      </contour>
      <contour>
        <pt x="225" y="-183" on="1"/>
        <pt x="239" y="-187" on="0"/>
        <pt x="284" y="-187" on="0"/>
        <pt x="313" y="-178" on="0"/>
        <pt x="331" y="-166" on="0"/>
        <pt x="344" y="-140" on="0"/>
        <pt x="350" y="-120" on="0"/>
        <pt x="354" y="-80" on="0"/>
        <pt x="354" y="-68" on="1"/>
        <pt x="354" y="470" on="1"/>
        <pt x="426" y="470" on="1"/>
        <pt x="426" y="-31" on="1"/>
        <pt x="426" y="-138" on="0"/>
        <pt x="364" y="-240" on="0"/>
        <pt x="274" y="-240" on="1"/>
        <pt x="241" y="-240" on="0"/>
        <pt x="215" y="-227" on="1"/>
      </contour>
      <contour>
        <pt x="345" y="627" on="1"/>
        <pt x="345" y="674" on="0"/>
        <pt x="391" y="674" on="1"/>
        <pt x="433" y="674" on="0"/>
        <pt x="433" y="583" on="0"/>
        <pt x="345" y="583" on="0"/>
      </contour>
    </TTGlyph>
    <TTGlyph name="iogonek" xMin="67" yMin="-204" xMax="220" yMax="674">
      <contour>
        <pt x="85" y="627" on="1"/>
        <pt x="85" y="674" on="0"/>
        <pt x="131" y="674" on="1"/>
        <pt x="173" y="674" on="0"/>
        <pt x="173" y="583" on="0"/>
        <pt x="85" y="583" on="0"/>
      </contour>
      <contour>
        <pt x="173" y="-8" on="1"/>
        <pt x="131" y="-75" on="0"/>
        <pt x="131" y="-120" on="1"/>
        <pt x="131" y="-136" on="0"/>
        <pt x="152" y="-157" on="0"/>
        <pt x="191" y="-157" on="0"/>
        <pt x="201" y="-151" on="1"/>
        <pt x="212" y="-188" on="1"/>
        <pt x="206" y="-192" on="1"/>
        <pt x="190" y="-204" on="0"/>
        <pt x="144" y="-204" on="1"/>
        <pt x="115" y="-204" on="0"/>
        <pt x="67" y="-167" on="0"/>
        <pt x="67" y="-105" on="0"/>
        <pt x="103" y="-32" on="0"/>
        <pt x="129" y="0" on="1"/>
        <pt x="92" y="16" on="0"/>
        <pt x="92" y="86" on="1"/>
        <pt x="92" y="470" on="1"/>
        <pt x="164" y="470" on="1"/>
        <pt x="164" y="127" on="1"/>
        <pt x="164" y="74" on="0"/>
        <pt x="180" y="43" on="0"/>
        <pt x="218" y="43" on="1"/>
        <pt x="220" y="-1" on="1"/>
        <pt x="197" y="-8" on="0"/>
      </contour>
    </TTGlyph>
    <TTGlyph name="itilde" xMin="44" yMin="-8" xMax="344" yMax="649">
      <contour>
        <pt x="158" y="84" on="1"/>
        <pt x="158" y="470" on="1"/>
        <pt x="230" y="470" on="1"/>
        <pt x="230" y="127" on="1"/>
        <pt x="230" y="74" on="0"/>
        <pt x="246" y="43" on="0"/>
        <pt x="284" y="43" on="1"/>
        <pt x="286" y="-1" on="1"/>
        <pt x="266" y="-8" on="0"/>
        <pt x="246" y="-8" on="1"/>
        <pt x="197" y="-8" on="0"/>
        <pt x="158" y="33" on="0"/>
      </contour>
      <contour>
        <pt x="53" y="609" on="0"/>
        <pt x="96" y="649" on="0"/>
        <pt x="123" y="649" on="1"/>
        <pt x="151" y="649" on="0"/>
        <pt x="193" y="632" on="1"/>
        <pt x="251" y="609" on="0"/>
        <pt x="263" y="609" on="1"/>
        <pt x="291" y="609" on="0"/>
        <pt x="314" y="642" on="1"/>
        <pt x="344" y="626" on="1"/>
        <pt x="335" y="588" on="0"/>
        <pt x="292" y="549" on="0"/>
        <pt x="242" y="549" on="0"/>
        <pt x="136" y="589" on="0"/>
        <pt x="127" y="589" on="1"/>
        <pt x="98" y="589" on="0"/>
        <pt x="74" y="556" on="1"/>
        <pt x="44" y="572" on="1"/>
      </contour>
    </TTGlyph>
    <TTGlyph name="j" xMin="-49" yMin="-240" xMax="169" yMax="674">
      <contour>
        <pt x="-39" y="-183" on="1"/>
        <pt x="-25" y="-187" on="0"/>
        <pt x="20" y="-187" on="0"/>
        <pt x="49" y="-178" on="0"/>
        <pt x="67" y="-166" on="0"/>
        <pt x="80" y="-140" on="0"/>
        <pt x="86" y="-120" on="0"/>
        <pt x="90" y="-80" on="0"/>
        <pt x="90" y="-68" on="1"/>
        <pt x="90" y="470" on="1"/>
        <pt x="162" y="470" on="1"/>
        <pt x="162" y="-31" on="1"/>
        <pt x="162" y="-138" on="0"/>
        <pt x="100" y="-240" on="0"/>
        <pt x="10" y="-240" on="1"/>
        <pt x="-23" y="-240" on="0"/>
        <pt x="-49" y="-227" on="1"/>
      </contour>
      <contour>
        <pt x="81" y="627" on="1"/>
        <pt x="81" y="674" on="0"/>
        <pt x="127" y="674" on="1"/>
        <pt x="169" y="674" on="0"/>
        <pt x="169" y="583" on="0"/>
        <pt x="81" y="583" on="0"/>
      </contour>
    </TTGlyph>
    <TTGlyph name="jcircumflex" xMin="-49" yMin="-240" xMax="246" yMax="659">
      <contour>
        <pt x="-39" y="-183" on="1"/>
        <pt x="-25" y="-187" on="0"/>
        <pt x="20" y="-187" on="0"/>
        <pt x="49" y="-178" on="0"/>
        <pt x="67" y="-166" on="0"/>
        <pt x="80" y="-140" on="0"/>
        <pt x="86" y="-120" on="0"/>
        <pt x="90" y="-80" on="0"/>
        <pt x="90" y="-68" on="1"/>
        <pt x="90" y="470" on="1"/>
        <pt x="162" y="470" on="1"/>
        <pt x="162" y="-31" on="1"/>
        <pt x="162" y="-138" on="0"/>
        <pt x="100" y="-240" on="0"/>
        <pt x="10" y="-240" on="1"/>
        <pt x="-23" y="-240" on="0"/>
        <pt x="-49" y="-227" on="1"/>
      </contour>
      <contour>
        <pt x="12" y="550" on="1"/>
        <pt x="85" y="650" on="1"/>
        <pt x="155" y="659" on="1"/>
        <pt x="176" y="652" on="0"/>
        <pt x="190" y="630" on="1"/>
        <pt x="246" y="550" on="1"/>
        <pt x="216" y="530" on="1"/>
        <pt x="129" y="609" on="1"/>
        <pt x="42" y="530" on="1"/>
      </contour>
    </TTGlyph>
    <TTGlyph name="k" xMin="90" yMin="-8" xMax="448" yMax="745">
      <contour>
        <pt x="90" y="0" on="1"/>
        <pt x="90" y="733" on="1"/>
        <pt x="158" y="745" on="1"/>
        <pt x="159" y="470" on="1"/>
        <pt x="159" y="417" on="0"/>
        <pt x="151" y="371" on="1"/>
        <pt x="157" y="371" on="1"/>
        <pt x="174" y="422" on="0"/>
        <pt x="256" y="482" on="0"/>
        <pt x="366" y="482" on="0"/>
        <pt x="437" y="422" on="0"/>
        <pt x="437" y="313" on="0"/>
        <pt x="351" y="240" on="0"/>
        <pt x="287" y="226" on="1"/>
        <pt x="345" y="125" on="1"/>
        <pt x="372" y="79" on="0"/>
        <pt x="416" y="42" on="0"/>
        <pt x="446" y="42" on="1"/>
        <pt x="448" y="-3" on="1"/>
        <pt x="442" y="-8" on="0"/>
        <pt x="418" y="-8" on="1"/>
        <pt x="370" y="-8" on="0"/>
        <pt x="312" y="41" on="0"/>
        <pt x="285" y="93" on="1"/>
        <pt x="207" y="242" on="1"/>
        <pt x="207" y="260" on="1"/>
        <pt x="270" y="260" on="0"/>
        <pt x="362" y="316" on="0"/>
        <pt x="362" y="368" on="1"/>
        <pt x="362" y="396" on="0"/>
        <pt x="325" y="426" on="0"/>
        <pt x="296" y="426" on="1"/>
        <pt x="249" y="426" on="0"/>
        <pt x="216" y="391" on="1"/>
        <pt x="158" y="328" on="0"/>
        <pt x="158" y="206" on="1"/>
        <pt x="158" y="0" on="1"/>
      </contour>
    </TTGlyph>
    <TTGlyph name="kcommaaccent" xMin="90" yMin="-171" xMax="448" yMax="745">
      <contour>
        <pt x="90" y="0" on="1"/>
        <pt x="90" y="733" on="1"/>
        <pt x="158" y="745" on="1"/>
        <pt x="159" y="470" on="1"/>
        <pt x="159" y="417" on="0"/>
        <pt x="151" y="371" on="1"/>
        <pt x="157" y="371" on="1"/>
        <pt x="174" y="422" on="0"/>
        <pt x="256" y="482" on="0"/>
        <pt x="366" y="482" on="0"/>
        <pt x="437" y="422" on="0"/>
        <pt x="437" y="313" on="0"/>
        <pt x="351" y="240" on="0"/>
        <pt x="287" y="226" on="1"/>
        <pt x="345" y="125" on="1"/>
        <pt x="372" y="79" on="0"/>
        <pt x="416" y="42" on="0"/>
        <pt x="446" y="42" on="1"/>
        <pt x="448" y="-3" on="1"/>
        <pt x="442" y="-8" on="0"/>
        <pt x="418" y="-8" on="1"/>
        <pt x="370" y="-8" on="0"/>
        <pt x="312" y="41" on="0"/>
        <pt x="285" y="93" on="1"/>
        <pt x="207" y="242" on="1"/>
        <pt x="207" y="260" on="1"/>
        <pt x="270" y="260" on="0"/>
        <pt x="362" y="316" on="0"/>
        <pt x="362" y="368" on="1"/>
        <pt x="362" y="396" on="0"/>
        <pt x="325" y="426" on="0"/>
        <pt x="296" y="426" on="1"/>
        <pt x="249" y="426" on="0"/>
        <pt x="216" y="391" on="1"/>
        <pt x="158" y="328" on="0"/>
        <pt x="158" y="206" on="1"/>
        <pt x="158" y="0" on="1"/>
      </contour>
      <contour>
        <pt x="278" y="-29" on="1"/>
        <pt x="296" y="-41" on="0"/>
        <pt x="296" y="-81" on="0"/>
        <pt x="283" y="-105" on="1"/>
        <pt x="244" y="-171" on="1"/>
        <pt x="201" y="-149" on="1"/>
        <pt x="219" y="-88" on="1"/>
        <pt x="228" y="-55" on="0"/>
        <pt x="222" y="-29" on="1"/>
      </contour>
    </TTGlyph>
    <TTGlyph name="kgreenlandic" xMin="77" yMin="-8" xMax="435" yMax="482">
      <contour>
        <pt x="77" y="0" on="1"/>
        <pt x="77" y="467" on="1"/>
        <pt x="145" y="482" on="1"/>
        <pt x="145" y="288" on="1"/>
        <pt x="203" y="291" on="1"/>
        <pt x="311" y="482" on="1"/>
        <pt x="382" y="470" on="1"/>
        <pt x="256" y="265" on="1"/>
        <pt x="330" y="134" on="1"/>
        <pt x="360" y="84" on="0"/>
        <pt x="403" y="45" on="0"/>
        <pt x="433" y="45" on="1"/>
        <pt x="435" y="-3" on="1"/>
        <pt x="427" y="-8" on="0"/>
        <pt x="404" y="-8" on="1"/>
        <pt x="359" y="-8" on="0"/>
        <pt x="307" y="42" on="0"/>
        <pt x="275" y="99" on="1"/>
        <pt x="201" y="234" on="1"/>
        <pt x="145" y="231" on="1"/>
        <pt x="145" y="0" on="1"/>
      </contour>
    </TTGlyph>
    <TTGlyph name="l" xMin="92" yMin="-8" xMax="220" yMax="745">
      <contour>
        <pt x="92" y="86" on="1"/>
        <pt x="92" y="733" on="1"/>
        <pt x="164" y="745" on="1"/>
        <pt x="164" y="127" on="1"/>
        <pt x="164" y="74" on="0"/>
        <pt x="180" y="43" on="0"/>
        <pt x="218" y="43" on="1"/>
        <pt x="220" y="-1" on="1"/>
        <pt x="204" y="-8" on="0"/>
        <pt x="128" y="-8" on="0"/>
        <pt x="92" y="36" on="0"/>
      </contour>
    </TTGlyph>
    <TTGlyph name="ldot" xMin="92" yMin="-8" xMax="343" yMax="745">
      <contour>
        <pt x="255" y="361" on="1"/>
        <pt x="255" y="408" on="0"/>
        <pt x="301" y="408" on="1"/>
        <pt x="343" y="408" on="0"/>
        <pt x="343" y="317" on="0"/>
        <pt x="255" y="317" on="0"/>
      </contour>
      <contour>
        <pt x="92" y="86" on="1"/>
        <pt x="92" y="733" on="1"/>
        <pt x="164" y="745" on="1"/>
        <pt x="164" y="127" on="1"/>
        <pt x="164" y="74" on="0"/>
        <pt x="180" y="43" on="0"/>
        <pt x="218" y="43" on="1"/>
        <pt x="220" y="-1" on="1"/>
        <pt x="204" y="-8" on="0"/>
        <pt x="128" y="-8" on="0"/>
        <pt x="92" y="36" on="0"/>
      </contour>
    </TTGlyph>
    <TTGlyph name="less" xMin="51" yMin="86" xMax="382" yMax="490">
      <contour>
        <pt x="54" y="257" on="1"/>
        <pt x="51" y="319" on="1"/>
        <pt x="347" y="490" on="1"/>
        <pt x="382" y="437" on="1"/>
        <pt x="112" y="288" on="1"/>
        <pt x="382" y="139" on="1"/>
        <pt x="347" y="86" on="1"/>
      </contour>
    </TTGlyph>
    <TTGlyph name="logicalnot" xMin="51" yMin="114" xMax="480" yMax="278">
      <contour>
        <pt x="51" y="218" on="1"/>
        <pt x="51" y="278" on="1"/>
        <pt x="480" y="277" on="1"/>
        <pt x="480" y="114" on="1"/>
        <pt x="430" y="117" on="1"/>
        <pt x="430" y="224" on="1"/>
        <pt x="401" y="218" on="0"/>
        <pt x="341" y="218" on="1"/>
      </contour>
    </TTGlyph>
    <TTGlyph name="lslash" xMin="-8" yMin="-8" xMax="251" yMax="745">
      <contour>
        <pt x="164" y="127" on="1"/>
        <pt x="164" y="74" on="0"/>
        <pt x="180" y="43" on="0"/>
        <pt x="218" y="43" on="1"/>
        <pt x="220" y="-1" on="1"/>
        <pt x="204" y="-8" on="0"/>
        <pt x="128" y="-8" on="0"/>
        <pt x="92" y="36" on="0"/>
        <pt x="92" y="86" on="1"/>
        <pt x="92" y="334" on="1"/>
        <pt x="10" y="289" on="1"/>
        <pt x="-8" y="303" on="0"/>
        <pt x="-8" y="323" on="1"/>
        <pt x="92" y="378" on="1"/>
        <pt x="92" y="733" on="1"/>
        <pt x="164" y="745" on="1"/>
        <pt x="164" y="417" on="1"/>
        <pt x="233" y="455" on="1"/>
        <pt x="251" y="441" on="0"/>
        <pt x="251" y="421" on="1"/>
        <pt x="164" y="373" on="1"/>
      </contour>
    </TTGlyph>
    <TTGlyph name="m" xMin="90" yMin="-8" xMax="743" yMax="482">
      <contour>
        <pt x="161" y="450" on="1"/>
        <pt x="161" y="397" on="0"/>
        <pt x="153" y="361" on="1"/>
        <pt x="159" y="361" on="1"/>
        <pt x="174" y="418" on="0"/>
        <pt x="244" y="482" on="0"/>
        <pt x="296" y="482" on="1"/>
        <pt x="419" y="482" on="0"/>
        <pt x="419" y="361" on="1"/>
        <pt x="425" y="361" on="1"/>
        <pt x="456" y="482" on="0"/>
        <pt x="563" y="482" on="1"/>
        <pt x="643" y="482" on="0"/>
        <pt x="695" y="407" on="0"/>
        <pt x="695" y="326" on="1"/>
        <pt x="695" y="322" on="0"/>
        <pt x="692" y="129" on="0"/>
        <pt x="692" y="69" on="0"/>
        <pt x="705" y="43" on="0"/>
        <pt x="741" y="43" on="1"/>
        <pt x="743" y="-2" on="1"/>
        <pt x="729" y="-8" on="0"/>
        <pt x="702" y="-8" on="1"/>
        <pt x="654" y="-8" on="0"/>
        <pt x="619" y="36" on="0"/>
        <pt x="619" y="84" on="1"/>
        <pt x="619" y="86" on="0"/>
        <pt x="623" y="303" on="0"/>
        <pt x="623" y="312" on="1"/>
        <pt x="623" y="368" on="0"/>
        <pt x="599" y="425" on="0"/>
        <pt x="554" y="425" on="1"/>
        <pt x="428" y="425" on="0"/>
        <pt x="428" y="147" on="1"/>
        <pt x="428" y="0" on="1"/>
        <pt x="359" y="0" on="1"/>
        <pt x="359" y="294" on="1"/>
        <pt x="359" y="383" on="0"/>
        <pt x="344" y="402" on="1"/>
        <pt x="324" y="425" on="0"/>
        <pt x="287" y="425" on="1"/>
        <pt x="159" y="425" on="0"/>
        <pt x="159" y="139" on="1"/>
        <pt x="159" y="0" on="1"/>
        <pt x="90" y="0" on="1"/>
        <pt x="90" y="470" on="1"/>
        <pt x="161" y="479" on="1"/>
      </contour>
    </TTGlyph>
    <TTGlyph name="mu" xMin="92" yMin="-228" xMax="525" yMax="482">
      <contour>
        <pt x="108" y="387" on="1"/>
        <pt x="108" y="446" on="0"/>
        <pt x="96" y="472" on="1"/>
        <pt x="153" y="482" on="1"/>
        <pt x="170" y="477" on="0"/>
        <pt x="179" y="442" on="0"/>
        <pt x="179" y="424" on="1"/>
        <pt x="179" y="411" on="0"/>
        <pt x="171" y="166" on="0"/>
        <pt x="171" y="138" on="0"/>
        <pt x="174" y="103" on="0"/>
        <pt x="182" y="84" on="1"/>
        <pt x="196" y="45" on="0"/>
        <pt x="250" y="45" on="1"/>
        <pt x="290" y="45" on="0"/>
        <pt x="347" y="102" on="0"/>
        <pt x="360" y="149" on="1"/>
        <pt x="385" y="234" on="0"/>
        <pt x="385" y="335" on="1"/>
        <pt x="385" y="470" on="1"/>
        <pt x="452" y="470" on="1"/>
        <pt x="452" y="197" on="1"/>
        <pt x="452" y="108" on="0"/>
        <pt x="478" y="41" on="0"/>
        <pt x="523" y="41" on="1"/>
        <pt x="525" y="-4" on="1"/>
        <pt x="509" y="-8" on="0"/>
        <pt x="485" y="-8" on="1"/>
        <pt x="435" y="-8" on="0"/>
        <pt x="396" y="51" on="0"/>
        <pt x="396" y="90" on="1"/>
        <pt x="396" y="101" on="0"/>
        <pt x="397" y="113" on="1"/>
        <pt x="391" y="113" on="1"/>
        <pt x="357" y="-12" on="0"/>
        <pt x="235" y="-12" on="1"/>
        <pt x="178" y="-12" on="0"/>
        <pt x="159" y="28" on="1"/>
        <pt x="154" y="27" on="1"/>
        <pt x="159" y="7" on="0"/>
        <pt x="159" y="-47" on="1"/>
        <pt x="159" y="-228" on="1"/>
        <pt x="92" y="-216" on="1"/>
      </contour>
    </TTGlyph>
    <TTGlyph name="multiply" xMin="35" yMin="150" xMax="322" yMax="434">
      <contour>
        <pt x="35" y="197" on="1"/>
        <pt x="277" y="434" on="1"/>
        <pt x="319" y="393" on="1"/>
        <pt x="82" y="151" on="1"/>
      </contour>
      <contour>
        <pt x="275" y="150" on="1"/>
        <pt x="38" y="392" on="1"/>
        <pt x="80" y="434" on="1"/>
        <pt x="322" y="197" on="1"/>
      </contour>
    </TTGlyph>
    <TTGlyph name="n" xMin="90" yMin="-8" xMax="499" yMax="482">
      <contour>
        <pt x="161" y="450" on="1"/>
        <pt x="161" y="397" on="0"/>
        <pt x="153" y="361" on="1"/>
        <pt x="159" y="361" on="1"/>
        <pt x="173" y="417" on="0"/>
        <pt x="254" y="482" on="0"/>
        <pt x="312" y="482" on="1"/>
        <pt x="391" y="482" on="0"/>
        <pt x="451" y="403" on="0"/>
        <pt x="451" y="324" on="1"/>
        <pt x="451" y="321" on="0"/>
        <pt x="448" y="123" on="0"/>
        <pt x="448" y="69" on="0"/>
        <pt x="461" y="43" on="0"/>
        <pt x="497" y="43" on="1"/>
        <pt x="499" y="-2" on="1"/>
        <pt x="485" y="-8" on="0"/>
        <pt x="458" y="-8" on="1"/>
        <pt x="410" y="-8" on="0"/>
        <pt x="375" y="36" on="0"/>
        <pt x="375" y="84" on="1"/>
        <pt x="375" y="86" on="0"/>
        <pt x="379" y="298" on="0"/>
        <pt x="379" y="302" on="1"/>
        <pt x="379" y="360" on="0"/>
        <pt x="349" y="425" on="0"/>
        <pt x="260" y="425" on="0"/>
        <pt x="201" y="369" on="0"/>
        <pt x="186" y="324" on="1"/>
        <pt x="159" y="237" on="0"/>
        <pt x="159" y="139" on="1"/>
        <pt x="159" y="0" on="1"/>
        <pt x="90" y="0" on="1"/>
        <pt x="90" y="470" on="1"/>
        <pt x="161" y="479" on="1"/>
      </contour>
    </TTGlyph>
    <TTGlyph name="nacute" xMin="90" yMin="-8" xMax="499" yMax="686">
      <contour>
        <pt x="258" y="550" on="1"/>
        <pt x="317" y="633" on="1"/>
        <pt x="354" y="686" on="0"/>
        <pt x="375" y="686" on="1"/>
        <pt x="387" y="683" on="1"/>
        <pt x="417" y="648" on="1"/>
        <pt x="288" y="530" on="1"/>
      </contour>
      <contour>
        <pt x="161" y="450" on="1"/>
        <pt x="161" y="397" on="0"/>
        <pt x="153" y="361" on="1"/>
        <pt x="159" y="361" on="1"/>
        <pt x="173" y="417" on="0"/>
        <pt x="254" y="482" on="0"/>
        <pt x="312" y="482" on="1"/>
        <pt x="391" y="482" on="0"/>
        <pt x="451" y="403" on="0"/>
        <pt x="451" y="324" on="1"/>
        <pt x="451" y="321" on="0"/>
        <pt x="448" y="123" on="0"/>
        <pt x="448" y="69" on="0"/>
        <pt x="461" y="43" on="0"/>
        <pt x="497" y="43" on="1"/>
        <pt x="499" y="-2" on="1"/>
        <pt x="485" y="-8" on="0"/>
        <pt x="458" y="-8" on="1"/>
        <pt x="410" y="-8" on="0"/>
        <pt x="375" y="36" on="0"/>
        <pt x="375" y="84" on="1"/>
        <pt x="375" y="86" on="0"/>
        <pt x="379" y="298" on="0"/>
        <pt x="379" y="302" on="1"/>
        <pt x="379" y="360" on="0"/>
        <pt x="349" y="425" on="0"/>
        <pt x="260" y="425" on="0"/>
        <pt x="201" y="369" on="0"/>
        <pt x="186" y="324" on="1"/>
        <pt x="159" y="237" on="0"/>
        <pt x="159" y="139" on="1"/>
        <pt x="159" y="0" on="1"/>
        <pt x="90" y="0" on="1"/>
        <pt x="90" y="470" on="1"/>
        <pt x="161" y="479" on="1"/>
      </contour>
    </TTGlyph>
    <TTGlyph name="nine" xMin="54" yMin="-12" xMax="479" yMax="671">
      <contour>
        <pt x="199" y="50" on="1"/>
        <pt x="292" y="50" on="0"/>
        <pt x="391" y="167" on="0"/>
        <pt x="400" y="271" on="1"/>
        <pt x="323" y="251" on="0"/>
        <pt x="260" y="251" on="1"/>
        <pt x="161" y="251" on="0"/>
        <pt x="54" y="357" on="0"/>
        <pt x="54" y="549" on="0"/>
        <pt x="170" y="671" on="0"/>
        <pt x="262" y="671" on="1"/>
        <pt x="365" y="671" on="0"/>
        <pt x="416" y="605" on="1"/>
        <pt x="463" y="546" on="0"/>
        <pt x="474" y="440" on="1"/>
        <pt x="479" y="393" on="0"/>
        <pt x="479" y="239" on="0"/>
        <pt x="422" y="86" on="0"/>
        <pt x="297" y="-12" on="0"/>
        <pt x="208" y="-12" on="1"/>
        <pt x="144" y="-12" on="0"/>
        <pt x="90" y="6" on="1"/>
        <pt x="105" y="60" on="1"/>
        <pt x="153" y="50" on="0"/>
      </contour>
      <contour>
        <pt x="262" y="609" on="1"/>
        <pt x="198" y="609" on="0"/>
        <pt x="130" y="525" on="0"/>
        <pt x="130" y="456" on="1"/>
        <pt x="130" y="313" on="0"/>
        <pt x="270" y="313" on="1"/>
        <pt x="333" y="313" on="0"/>
        <pt x="402" y="327" on="1"/>
        <pt x="402" y="487" on="0"/>
        <pt x="368" y="548" on="1"/>
        <pt x="354" y="574" on="0"/>
        <pt x="300" y="609" on="0"/>
      </contour>
    </TTGlyph>
    <TTGlyph name="ntilde" xMin="90" yMin="-8" xMax="499" yMax="650">
      <contour>
        <pt x="161" y="450" on="1"/>
        <pt x="161" y="397" on="0"/>
        <pt x="153" y="361" on="1"/>
        <pt x="159" y="361" on="1"/>
        <pt x="173" y="417" on="0"/>
        <pt x="254" y="482" on="0"/>
        <pt x="312" y="482" on="1"/>
        <pt x="391" y="482" on="0"/>
        <pt x="451" y="403" on="0"/>
        <pt x="451" y="324" on="1"/>
        <pt x="451" y="321" on="0"/>
        <pt x="448" y="123" on="0"/>
        <pt x="448" y="69" on="0"/>
        <pt x="461" y="43" on="0"/>
        <pt x="497" y="43" on="1"/>
        <pt x="499" y="-2" on="1"/>
        <pt x="485" y="-8" on="0"/>
        <pt x="458" y="-8" on="1"/>
        <pt x="410" y="-8" on="0"/>
        <pt x="375" y="36" on="0"/>
        <pt x="375" y="84" on="1"/>
        <pt x="375" y="86" on="0"/>
        <pt x="379" y="298" on="0"/>
        <pt x="379" y="302" on="1"/>
        <pt x="379" y="360" on="0"/>
        <pt x="349" y="425" on="0"/>
        <pt x="260" y="425" on="0"/>
        <pt x="201" y="369" on="0"/>
        <pt x="186" y="324" on="1"/>
        <pt x="159" y="237" on="0"/>
        <pt x="159" y="139" on="1"/>
        <pt x="159" y="0" on="1"/>
        <pt x="90" y="0" on="1"/>
        <pt x="90" y="470" on="1"/>
        <pt x="161" y="479" on="1"/>
      </contour>
      <contour>
        <pt x="129" y="610" on="0"/>
        <pt x="173" y="650" on="0"/>
        <pt x="234" y="650" on="0"/>
        <pt x="340" y="609" on="0"/>
        <pt x="353" y="609" on="1"/>
        <pt x="382" y="609" on="0"/>
        <pt x="405" y="643" on="1"/>
        <pt x="436" y="627" on="1"/>
        <pt x="427" y="588" on="0"/>
        <pt x="383" y="548" on="0"/>
        <pt x="323" y="548" on="0"/>
        <pt x="217" y="589" on="0"/>
        <pt x="205" y="589" on="1"/>
        <pt x="174" y="589" on="0"/>
        <pt x="151" y="555" on="1"/>
        <pt x="120" y="571" on="1"/>
      </contour>
    </TTGlyph>
    <TTGlyph name="numbersign" xMin="61" yMin="0" xMax="539" yMax="671">
      <contour>
        <pt x="67" y="426" on="1"/>
        <pt x="67" y="471" on="1"/>
        <pt x="539" y="471" on="1"/>
        <pt x="539" y="426" on="1"/>
      </contour>
      <contour>
        <pt x="61" y="206" on="1"/>
        <pt x="61" y="251" on="1"/>
        <pt x="533" y="251" on="1"/>
        <pt x="533" y="206" on="1"/>
      </contour>
      <contour>
        <pt x="353" y="0" on="1"/>
        <pt x="383" y="671" on="1"/>
        <pt x="407" y="671" on="0"/>
        <pt x="433" y="666" on="1"/>
        <pt x="403" y="0" on="1"/>
      </contour>
      <contour>
        <pt x="175" y="0" on="1"/>
        <pt x="205" y="671" on="1"/>
        <pt x="235" y="671" on="0"/>
        <pt x="255" y="666" on="1"/>
        <pt x="225" y="0" on="1"/>
      </contour>
    </TTGlyph>
    <TTGlyph name="o" xMin="56" yMin="-12" xMax="464" yMax="482">
      <contour>
        <pt x="252" y="41" on="1"/>
        <pt x="302" y="41" on="0"/>
        <pt x="366" y="103" on="0"/>
        <pt x="389" y="191" on="0"/>
        <pt x="389" y="248" on="1"/>
        <pt x="389" y="427" on="0"/>
        <pt x="262" y="427" on="1"/>
        <pt x="215" y="427" on="0"/>
        <pt x="184" y="397" on="1"/>
        <pt x="128" y="344" on="0"/>
        <pt x="128" y="228" on="1"/>
        <pt x="128" y="41" on="0"/>
      </contour>
      <contour>
        <pt x="464" y="137" on="0"/>
        <pt x="353" y="-12" on="0"/>
        <pt x="144" y="-12" on="0"/>
        <pt x="56" y="109" on="0"/>
        <pt x="56" y="343" on="0"/>
        <pt x="158" y="482" on="0"/>
        <pt x="364" y="482" on="0"/>
        <pt x="464" y="357" on="0"/>
      </contour>
    </TTGlyph>
    <TTGlyph name="oacute" xMin="56" yMin="-12" xMax="464" yMax="686">
      <contour>
        <pt x="252" y="41" on="1"/>
        <pt x="302" y="41" on="0"/>
        <pt x="366" y="103" on="0"/>
        <pt x="389" y="191" on="0"/>
        <pt x="389" y="248" on="1"/>
        <pt x="389" y="427" on="0"/>
        <pt x="262" y="427" on="1"/>
        <pt x="215" y="427" on="0"/>
        <pt x="184" y="397" on="1"/>
        <pt x="128" y="344" on="0"/>
        <pt x="128" y="228" on="1"/>
        <pt x="128" y="41" on="0"/>
      </contour>
      <contour>
        <pt x="464" y="137" on="0"/>
        <pt x="353" y="-12" on="0"/>
        <pt x="144" y="-12" on="0"/>
        <pt x="56" y="109" on="0"/>
        <pt x="56" y="343" on="0"/>
        <pt x="158" y="482" on="0"/>
        <pt x="364" y="482" on="0"/>
        <pt x="464" y="357" on="0"/>
      </contour>
      <contour>
        <pt x="211" y="550" on="1"/>
        <pt x="270" y="633" on="1"/>
        <pt x="307" y="686" on="0"/>
        <pt x="328" y="686" on="1"/>
        <pt x="340" y="683" on="1"/>
        <pt x="370" y="648" on="1"/>
        <pt x="241" y="530" on="1"/>
      </contour>
    </TTGlyph>
    <TTGlyph name="ocircumflex" xMin="56" yMin="-12" xMax="464" yMax="659">
      <contour>
        <pt x="252" y="41" on="1"/>
        <pt x="302" y="41" on="0"/>
        <pt x="366" y="103" on="0"/>
        <pt x="389" y="191" on="0"/>
        <pt x="389" y="248" on="1"/>
        <pt x="389" y="427" on="0"/>
        <pt x="262" y="427" on="1"/>
        <pt x="215" y="427" on="0"/>
        <pt x="184" y="397" on="1"/>
        <pt x="128" y="344" on="0"/>
        <pt x="128" y="228" on="1"/>
        <pt x="128" y="41" on="0"/>
      </contour>
      <contour>
        <pt x="464" y="137" on="0"/>
        <pt x="353" y="-12" on="0"/>
        <pt x="144" y="-12" on="0"/>
        <pt x="56" y="109" on="0"/>
        <pt x="56" y="343" on="0"/>
        <pt x="158" y="482" on="0"/>
        <pt x="364" y="482" on="0"/>
        <pt x="464" y="357" on="0"/>
      </contour>
      <contour>
        <pt x="142" y="550" on="1"/>
        <pt x="215" y="650" on="1"/>
        <pt x="285" y="659" on="1"/>
        <pt x="306" y="652" on="0"/>
        <pt x="320" y="630" on="1"/>
        <pt x="376" y="550" on="1"/>
        <pt x="346" y="530" on="1"/>
        <pt x="259" y="609" on="1"/>
        <pt x="172" y="530" on="1"/>
      </contour>
    </TTGlyph>
    <TTGlyph name="odieresis" xMin="56" yMin="-12" xMax="464" yMax="645">
      <contour>
        <pt x="252" y="41" on="1"/>
        <pt x="302" y="41" on="0"/>
        <pt x="366" y="103" on="0"/>
        <pt x="389" y="191" on="0"/>
        <pt x="389" y="248" on="1"/>
        <pt x="389" y="427" on="0"/>
        <pt x="262" y="427" on="1"/>
        <pt x="215" y="427" on="0"/>
        <pt x="184" y="397" on="1"/>
        <pt x="128" y="344" on="0"/>
        <pt x="128" y="228" on="1"/>
        <pt x="128" y="41" on="0"/>
      </contour>
      <contour>
        <pt x="464" y="137" on="0"/>
        <pt x="353" y="-12" on="0"/>
        <pt x="144" y="-12" on="0"/>
        <pt x="56" y="109" on="0"/>
        <pt x="56" y="343" on="0"/>
        <pt x="158" y="482" on="0"/>
        <pt x="364" y="482" on="0"/>
        <pt x="464" y="357" on="0"/>
      </contour>
      <contour>
        <pt x="139" y="601" on="1"/>
        <pt x="139" y="645" on="0"/>
        <pt x="182" y="645" on="1"/>
        <pt x="200" y="645" on="0"/>
        <pt x="221" y="622" on="0"/>
        <pt x="221" y="583" on="0"/>
        <pt x="199" y="560" on="0"/>
        <pt x="161" y="560" on="0"/>
        <pt x="139" y="582" on="0"/>
      </contour>
      <contour>
        <pt x="299" y="601" on="1"/>
        <pt x="299" y="645" on="0"/>
        <pt x="342" y="645" on="1"/>
        <pt x="360" y="645" on="0"/>
        <pt x="381" y="622" on="0"/>
        <pt x="381" y="583" on="0"/>
        <pt x="359" y="560" on="0"/>
        <pt x="321" y="560" on="0"/>
        <pt x="299" y="582" on="0"/>
      </contour>
    </TTGlyph>
    <TTGlyph name="oe" xMin="56" yMin="-12" xMax="729" yMax="482">
      <contour>
        <pt x="689" y="18" on="0"/>
        <pt x="608" y="-12" on="0"/>
        <pt x="517" y="-12" on="0"/>
        <pt x="435" y="37" on="0"/>
        <pt x="414" y="84" on="1"/>
        <pt x="391" y="39" on="0"/>
        <pt x="304" y="-12" on="0"/>
        <pt x="252" y="-12" on="1"/>
        <pt x="144" y="-12" on="0"/>
        <pt x="56" y="109" on="0"/>
        <pt x="56" y="343" on="0"/>
        <pt x="158" y="482" on="0"/>
        <pt x="376" y="482" on="0"/>
        <pt x="429" y="384" on="1"/>
        <pt x="454" y="429" on="0"/>
        <pt x="542" y="482" on="0"/>
        <pt x="656" y="482" on="0"/>
        <pt x="729" y="423" on="0"/>
        <pt x="729" y="320" on="0"/>
        <pt x="680" y="255" on="0"/>
        <pt x="638" y="238" on="1"/>
        <pt x="559" y="206" on="0"/>
        <pt x="455" y="206" on="1"/>
        <pt x="455" y="47" on="0"/>
        <pt x="582" y="47" on="1"/>
        <pt x="646" y="47" on="0"/>
        <pt x="703" y="82" on="1"/>
        <pt x="714" y="43" on="1"/>
      </contour>
      <contour>
        <pt x="182" y="41" on="0"/>
        <pt x="322" y="41" on="0"/>
        <pt x="389" y="156" on="0"/>
        <pt x="389" y="248" on="1"/>
        <pt x="389" y="427" on="0"/>
        <pt x="262" y="427" on="1"/>
        <pt x="215" y="427" on="0"/>
        <pt x="184" y="397" on="1"/>
        <pt x="128" y="344" on="0"/>
        <pt x="128" y="228" on="1"/>
        <pt x="128" y="142" on="0"/>
      </contour>
      <contour>
        <pt x="656" y="367" on="1"/>
        <pt x="656" y="396" on="0"/>
        <pt x="620" y="426" on="0"/>
        <pt x="590" y="426" on="1"/>
        <pt x="530" y="426" on="0"/>
        <pt x="462" y="327" on="0"/>
        <pt x="457" y="257" on="1"/>
        <pt x="656" y="257" on="0"/>
      </contour>
    </TTGlyph>
    <TTGlyph name="ogonek" xMin="366" yMin="-204" xMax="511" yMax="0">
      <contour>
        <pt x="430" y="-136" on="0"/>
        <pt x="451" y="-157" on="0"/>
        <pt x="488" y="-157" on="0"/>
        <pt x="500" y="-151" on="1"/>
        <pt x="511" y="-188" on="1"/>
        <pt x="493" y="-204" on="0"/>
        <pt x="414" y="-204" on="0"/>
        <pt x="366" y="-167" on="0"/>
        <pt x="366" y="-106" on="0"/>
        <pt x="402" y="-32" on="0"/>
        <pt x="429" y="0" on="1"/>
        <pt x="478" y="0" on="1"/>
        <pt x="430" y="-73" on="0"/>
        <pt x="430" y="-120" on="1"/>
      </contour>
    </TTGlyph>
</ttFont>
